<svg xmlns="http://www.w3.org/2000/svg" width="54" height="54" viewBox="0 0 54 54">
  <g id="Group_5845" data-name="Group 5845" transform="translate(-781 -228)">
    <g id="Group_5189" data-name="Group 5189" transform="translate(781 228)">
      <g id="Group_5047" data-name="Group 5047" transform="translate(0 0)">
        <g id="Group_4426" data-name="Group 4426" transform="translate(0)" opacity="0.38">
          <circle id="Ellipse_50" data-name="Ellipse 50" cx="27" cy="27" r="27" transform="translate(0 0)" fill="#1173ff" opacity="0.2"/>
        </g>
      </g>
    </g>
    <g id="Group_5192" data-name="Group 5192" transform="translate(794.362 243.251)">
      <path id="Path_1637" data-name="Path 1637" d="M-1536.994,4754.093v7.036h1.673v1.615l1.845-1.615s7.151.289,7.151,0v-7.036Z" transform="translate(1548.68 -4753.62)" fill="#fff"/>
      <g id="Group_4390" data-name="Group 4390" transform="translate(0 0)">
        <g id="Group_4389" data-name="Group 4389" transform="translate(0 0)">
          <path id="Path_927" data-name="Path 927" d="M-51.821,2471.688H-52.3v-.4a2.924,2.924,0,0,0,1.462-2.526v-1.994a2.947,2.947,0,0,0-.858-1.994,2.834,2.834,0,0,0-2.078-.894,2.937,2.937,0,0,0-2.936,2.924v1.958a2.91,2.91,0,0,0,1.474,2.526v.4h-.5a2.934,2.934,0,0,0-2.924,2.924v.991h.979v-.991a1.96,1.96,0,0,1,1.946-1.945h.58a1.466,1.466,0,0,0,1.861.894,1.433,1.433,0,0,0,.894-.894h.58a1.962,1.962,0,0,1,1.957,1.945v.991h.979v-.991A2.945,2.945,0,0,0-51.821,2471.688Zm-1.958-6.828A1.98,1.98,0,0,1-52,2466.032a8.538,8.538,0,0,1-2.864.774,5.283,5.283,0,0,1-.87,0A1.955,1.955,0,0,1-53.779,2464.86Zm.483,7.311a.48.48,0,0,1-.483.5.5.5,0,0,1-.5-.5v-.519a3.336,3.336,0,0,0,.979,0Zm-.483-1.462a1.954,1.954,0,0,1-1.958-1.945v-.979c.121.012.254.012.4.012a9.237,9.237,0,0,0,3.517-.773v1.74A1.954,1.954,0,0,1-53.779,2470.708Z" transform="translate(63.579 -2455.06)" fill="#1173ff"/>
          <path id="Path_928" data-name="Path 928" d="M-47.361,2452.7h-1.112v.894h1.112a.676.676,0,0,1,.677.677v8.629a.453.453,0,0,0,.443.361.453.453,0,0,0,.451-.41v-8.58A1.568,1.568,0,0,0-47.361,2452.7ZM-44,2467.928H-68.17v-13.655a.673.673,0,0,1,.665-.677h7.4v-.894h-7.4a1.565,1.565,0,0,0-1.559,1.571v13.655h-1.788a.439.439,0,0,0-.448.447v2.453a1.565,1.565,0,0,0,1.559,1.571h24.616a1.568,1.568,0,0,0,1.571-1.571v-2.453A.446.446,0,0,0-44,2467.928Zm-10.912.894-.157.447H-59.8l-.145-.447Zm10.465,2.006a.676.676,0,0,1-.677.677H-69.741a.673.673,0,0,1-.665-.677v-2.006h9.522l.339,1.027a.454.454,0,0,0,.435.314h5.365a.439.439,0,0,0,.423-.314l.351-1.027h9.522Z" transform="translate(71.3 -2448.231)" fill="#1173ff"/>
          <path id="Path_929" data-name="Path 929" d="M-31.354,2441.212H-42.1a.446.446,0,0,0-.447.447v7.166a.446.446,0,0,0,.447.447h1.341v1.342a.446.446,0,0,0,.447.447.439.439,0,0,0,.314-.132l1.656-1.656h6.984a.455.455,0,0,0,.448-.447v-7.166A.454.454,0,0,0-31.354,2441.212Zm-.459,7.166H-38.52a.428.428,0,0,0-.314.121l-1.027,1.027v-.7a.446.446,0,0,0-.448-.447H-41.65v-6.271h9.837Z" transform="translate(53.734 -2441.212)" fill="#1173ff" style="isolation: isolate"/>
        </g>
        <line id="Line_10" data-name="Line 10" x2="7.004" transform="translate(13.036 2.529)" fill="none" stroke="#1173ff" stroke-linecap="round" stroke-width="1"/>
        <line id="Line_11" data-name="Line 11" x2="7.004" transform="translate(13.036 4.086)" fill="none" stroke="#1173ff" stroke-linecap="round" stroke-width="1"/>
        <line id="Line_12" data-name="Line 12" x2="4.281" transform="translate(13.036 5.642)" fill="none" stroke="#1173ff" stroke-linecap="round" stroke-width="1"/>
        <path id="Path_1632" data-name="Path 1632" d="M.531.382l.893-.929V6.142H.531Z" transform="translate(24.087 13.824)" fill="#1173ff"/>
      </g>
    </g>
  </g>
</svg>
