<svg xmlns="http://www.w3.org/2000/svg" width="38" height="38" viewBox="0 0 38 38">
  <g id="Group_5191" data-name="Group 5191" transform="translate(-392 -746)">
    <g id="Group_5189" data-name="Group 5189" transform="translate(2545 -5846)">
      <g id="Group_5047" data-name="Group 5047" transform="translate(-3620 5827)">
        <g id="Group_4426" data-name="Group 4426" transform="translate(1467 765.575)" opacity="0.38">
          <circle id="Ellipse_50" data-name="Ellipse 50" cx="19" cy="19" r="19" transform="translate(0 -0.575)" fill="#1173ff" opacity="0.2"/>
        </g>
      </g>
    </g>
    <path id="Path_1631" data-name="Path 1631" d="M24.041,22.751V22.6L24,22.574l-.2-.067h-.022L23,22.263l-.777.333-.155.044-5.086,2.354-.888.422L15,25.883H14.98l-.067-.022-.622-.155-1.2-.333-.444-.155h-.022l-.711-.2-.178-.044-.044-.022-.089-.022h-.022l-.822-.222-3.553-.977-.067-.022-.888-.267a.022.022,0,0,0-.022-.022,2.436,2.436,0,0,1-.222-2.776l3.8,1.11h.044l.822.244h.022l.089.022.888.267.111.044.267.067.933.267.133.044.067.022.533.178.422.133.311.089h.022l.267.067.133.044.089-.044.555-.267.089-.044.044-.022,1.155-.511,1.777-.8.133-.044.777-.333,3.287-1.466.089-.044.866-.378v-.044l.089-.044-.044-.644L14.358,15.8l-8.906,4a1.115,1.115,0,0,0-.289.267c-1,.911-.688,2.909.022,3.864l-.4.178a1.115,1.115,0,0,0-.289.267c-1.2,1.133-.489,3.82.511,4.309l9.528,2.843,8.884-3.975V27.5l-.022-.466v-.155l-.044-.022-.2-.067H23.13l-.8-.244-8,3.62h-.022l-.044-.022L6.5,28.037l-.888-.267-.022-.022c-.8-.666-.622-1.91-.222-2.8l3.864,1.155.866.267L13.869,27.5h.022l.378.111.089-.044.711-.311,3.842-1.71,3.309-1.488.089-.044.866-.378v-.022l.911-.422ZM13.958,16.844,21.109,19l-1.177.489-7-2.11Zm-2,.888,7.151,2.154-1.177.489-7-2.11Z" transform="translate(397 741.276)" fill="#1173ff"/>
  </g>
</svg>
