<svg id="Group_4390" data-name="Group 4390" xmlns="http://www.w3.org/2000/svg" width="41.931" height="34.979" viewBox="0 0 41.931 34.979">
  <path id="Path_933" data-name="Path 933" d="M-2979.187-6192.409v10.6h2.825l-.23,2.375,3-2.375h10.61v-10.271Z" transform="translate(2996.72 6192.742)" fill="#21b573" opacity="0.56"/>
  <path id="Path_932" data-name="Path 932" d="M-3007.885-6141.592v4.161l1.349,1.076h37.4s1.8.144,1.874-1.076,0-4.522,0-4.522l-3.448.361Z" transform="translate(3008.541 6170.702)" fill="#96d1b7" opacity="0.43"/>
  <path id="Path_931" data-name="Path 931" d="M-2989.781-6164.67s-.921-4.052,3.548-4.084c2.8.588,3.037,2.155,3.037,2.155s-.716.948-.921.981a20.363,20.363,0,0,0-2.32.359c-.921.229-1.706.521-2.149.588A6.812,6.812,0,0,1-2989.781-6164.67Z" transform="translate(3001.116 6182.409)" fill="#96d1b7"/>
  <path id="Path_930" data-name="Path 930" d="M-2981.771-6145.019c-2.773.215-13.492.5-13.492.5a5.947,5.947,0,0,1,3.529-4.086c.782-.3,1.814.928,3.172,1.013.631.039.926-.834,1.775-1.013a10.779,10.779,0,0,1,2.968.327C-2982.734-6148.175-2981.771-6145.9-2981.771-6145.019Z" transform="translate(3003.342 6173.628)" fill="#96d1b7"/>
  <g id="Group_4389" data-name="Group 4389" transform="translate(0)">
    <path id="Path_927" data-name="Path 927" d="M-48.324,2475.179h-.731v-.578a4.2,4.2,0,0,0,2.21-3.655v-2.885a4.181,4.181,0,0,0-1.3-2.886,4.376,4.376,0,0,0-3.141-1.294,4.349,4.349,0,0,0-4.438,4.232v2.833a4.184,4.184,0,0,0,2.228,3.655v.578h-.749a4.344,4.344,0,0,0-4.42,4.232v1.434h1.479v-1.434a2.9,2.9,0,0,1,2.94-2.815h.876a2.241,2.241,0,0,0,2.813,1.294A2.121,2.121,0,0,0-49.2,2476.6h.877a2.906,2.906,0,0,1,2.958,2.815v1.434h1.48v-1.434A4.36,4.36,0,0,0-48.324,2475.179Zm-2.959-9.882a3,3,0,0,1,2.685,1.7,13.369,13.369,0,0,1-4.328,1.12,8.268,8.268,0,0,1-1.315,0A2.894,2.894,0,0,1-51.283,2465.3Zm.73,10.581a.71.71,0,0,1-.73.718.737.737,0,0,1-.749-.718v-.752a5.283,5.283,0,0,0,1.479,0Zm-.73-2.117a2.894,2.894,0,0,1-2.959-2.815v-1.417c.183.018.383.018.6.018a14.493,14.493,0,0,0,5.315-1.119v2.518A2.894,2.894,0,0,1-51.283,2473.762Z" transform="translate(66.094 -2451.114)" fill="#21b573"/>
    <path id="Path_928" data-name="Path 928" d="M-35.122,2452.7H-36.8V2454h1.68a1,1,0,0,1,1.023.979v12.489a.678.678,0,0,0,.67.522.674.674,0,0,0,.682-.594v-12.418A2.321,2.321,0,0,0-35.122,2452.7Zm5.076,22.037H-66.57v-19.763a1,1,0,0,1,1.005-.979h11.176V2452.7H-65.565a2.317,2.317,0,0,0-2.356,2.274v19.763h-2.7a.65.65,0,0,0-.676.647v3.55a2.317,2.317,0,0,0,2.356,2.274h37.2a2.321,2.321,0,0,0,2.374-2.274v-3.55A.661.661,0,0,0-30.045,2474.738Zm-16.491,1.294-.237.647h-7.141l-.219-.647Zm15.816,2.9a1,1,0,0,1-1.023.98h-37.2a1,1,0,0,1-1-.98v-2.9h14.391l.512,1.486a.684.684,0,0,0,.657.455h8.109a.661.661,0,0,0,.639-.455l.53-1.486h14.391Z" transform="translate(71.3 -2446.231)" fill="#21b573"/>
    <path id="Path_929" data-name="Path 929" d="M-25.633,2441.212H-41.868a.66.66,0,0,0-.676.647v10.371a.66.66,0,0,0,.676.647h2.027v1.941a.66.66,0,0,0,.675.646.68.68,0,0,0,.475-.192l2.5-2.4h10.555a.673.673,0,0,0,.676-.647V2441.86A.672.672,0,0,0-25.633,2441.212Zm-.693,10.371H-36.463a.662.662,0,0,0-.475.175l-1.553,1.487v-1.014a.661.661,0,0,0-.676-.647h-2.027v-9.077h14.866Z" transform="translate(59.455 -2441.212)" fill="#c3dcd1" style="isolation: isolate"/>
  </g>
  <line id="Line_10" data-name="Line 10" x2="10.586" transform="translate(19.701 3.661)" fill="none" stroke="#fff" stroke-linecap="round" stroke-width="1"/>
  <line id="Line_11" data-name="Line 11" x2="10.586" transform="translate(19.701 5.914)" fill="none" stroke="#fff" stroke-linecap="round" stroke-width="1"/>
  <line id="Line_12" data-name="Line 12" x2="6.469" transform="translate(19.701 8.166)" fill="none" stroke="#fff" stroke-linecap="round" stroke-width="1"/>
</svg>
