<svg xmlns="http://www.w3.org/2000/svg" width="32.111" height="30.24" viewBox="0 0 32.111 30.24">
  <g id="Group_4430" data-name="Group 4430" transform="translate(0 0)">
    <path id="Path_944" data-name="Path 944" d="M-1218.6-5209.44v7.322l3.107-1.263,3.232,1.263v-7.322Z" transform="translate(1228.347 5210.777)" fill="#88b9ff"/>
    <circle id="Ellipse_51" data-name="Ellipse 51" cx="7.5" cy="7.5" r="7.5" transform="translate(16.121 13.777)" fill="#88b9ff"/>
    <g id="pending" transform="translate(0 0)">
      <path id="Path_942" data-name="Path 942" d="M26.165,13.3V2.907A2.392,2.392,0,0,0,23.8.5H2.371A2.392,2.392,0,0,0,0,2.907v21.76a2.391,2.391,0,0,0,2.37,2.407h13.8a8.778,8.778,0,0,0,7.116,3.666A8.987,8.987,0,0,0,26.166,13.3ZM10.756,2.459h4.655V7.868l-1.969-.8a.953.953,0,0,0-.716,0l-1.969.8ZM2.371,25.115a.445.445,0,0,1-.441-.448V2.907a.445.445,0,0,1,.441-.448H8.827V9.315a.985.985,0,0,0,.424.811.952.952,0,0,0,.9.1l2.934-1.191,2.934,1.191a.952.952,0,0,0,.9-.1.985.985,0,0,0,.424-.811V2.459H23.8a.445.445,0,0,1,.441.448V12.86a8.727,8.727,0,0,0-.953-.052,8.908,8.908,0,0,0-8.828,8.966,9.041,9.041,0,0,0,.636,3.341Zm20.913,3.666a7.008,7.008,0,1,1,6.9-7.007A6.961,6.961,0,0,1,23.284,28.781Zm0,0" transform="translate(-0.001 -0.5)" fill="#1173ff"/>
      <path id="Path_943" data-name="Path 943" d="M359.373,266.723h-2.612V264.07a.965.965,0,1,0-1.929,0V267.7a.972.972,0,0,0,.965.98h3.577a.98.98,0,0,0,0-1.96Zm0,0" transform="translate(-332.578 -245.363)" fill="#fff"/>
    </g>
  </g>
</svg>
