<svg xmlns="http://www.w3.org/2000/svg" width="44.319" height="28.508" viewBox="0 0 44.319 28.508">
  <g id="Group_4399" data-name="Group 4399" transform="translate(0 0)">
    <g id="Group_4398" data-name="Group 4398" transform="translate(0 0)">
      <path id="Path_932" data-name="Path 932" d="M-3007.885-6141.592v4.161l1.322,1.076h36.629s1.762.144,1.835-1.076,0-4.522,0-4.522l-3.376.361Z" transform="translate(3008.528 6164.231)" fill="#df615c" opacity="0.14"/>
      <path id="Path_931" data-name="Path 931" d="M-2989.783-6164.67a3.234,3.234,0,0,1,3.475-4.084c2.739.588,2.973,2.155,2.973,2.155s-.7.948-.9.981a19.564,19.564,0,0,0-2.272.359c-.9.229-1.67.521-2.1.588A6.536,6.536,0,0,1-2989.783-6164.67Z" transform="translate(3000.883 6175.938)" fill="#df615c" opacity="0.53"/>
      <path id="Path_930" data-name="Path 930" d="M-2982.051-6145.019c-2.716.215-13.212.5-13.212.5a5.931,5.931,0,0,1,3.456-4.086c.766-.3,1.776.928,3.107,1.013.618.039.906-.834,1.738-1.013a10.347,10.347,0,0,1,2.906.327C-2982.994-6148.175-2982.051-6145.9-2982.051-6145.019Z" transform="translate(3003.174 6167.158)" fill="#df615c" opacity="0.53"/>
      <g id="Group_4389" data-name="Group 4389">
        <path id="Path_927" data-name="Path 927" d="M-48.538,2475.179h-.716v-.578a4.216,4.216,0,0,0,2.164-3.655v-2.885a4.222,4.222,0,0,0-1.27-2.886,4.241,4.241,0,0,0-3.076-1.294,4.3,4.3,0,0,0-4.346,4.232v2.833A4.2,4.2,0,0,0-53.6,2474.6v.578h-.733a4.3,4.3,0,0,0-4.328,4.232v1.434h1.448v-1.434a2.869,2.869,0,0,1,2.88-2.815h.858a2.182,2.182,0,0,0,2.755,1.294A2.1,2.1,0,0,0-49.4,2476.6h.859a2.873,2.873,0,0,1,2.9,2.815v1.434h1.449v-1.434A4.311,4.311,0,0,0-48.538,2475.179Zm-2.9-9.882a2.933,2.933,0,0,1,2.629,1.7,12.873,12.873,0,0,1-4.239,1.12,7.93,7.93,0,0,1-1.288,0A2.862,2.862,0,0,1-51.436,2465.3Zm.715,10.581a.7.7,0,0,1-.715.718.729.729,0,0,1-.733-.718v-.752a5.067,5.067,0,0,0,1.448,0Zm-.715-2.117a2.862,2.862,0,0,1-2.9-2.815v-1.417c.179.018.375.018.59.018a13.938,13.938,0,0,0,5.2-1.119v2.518A2.862,2.862,0,0,1-51.436,2473.762Z" transform="translate(65.94 -2457.584)" fill="#df615c"/>
        <path id="Path_928" data-name="Path 928" d="M-35.871,2452.7h-1.645V2454h1.645C-35.316,2454-34.583,2452.7-35.871,2452.7Zm4.971,22.037H-66.668v-19.763a.985.985,0,0,1,.984-.979h10.945V2452.7H-65.684a2.291,2.291,0,0,0-2.308,2.274v19.763h-2.646a.643.643,0,0,0-.662.647v3.55a2.291,2.291,0,0,0,2.307,2.274h36.431a2.3,2.3,0,0,0,2.325-2.274v-3.55A.653.653,0,0,0-30.9,2474.738Zm-16.149,1.294-.232.647h-6.993l-.215-.647Zm15.488,2.9a.989.989,0,0,1-1,.98H-68.993a.985.985,0,0,1-.984-.98v-2.9h14.093l.5,1.486a.67.67,0,0,0,.644.455H-46.8a.648.648,0,0,0,.626-.455l.519-1.486h14.093Z" transform="translate(71.3 -2452.701)" fill="#df615c"/>
        <path id="Path_934" data-name="Path 934" d="M16.028,6.473l17.477,0v1.3L16.028,7.754Z" transform="translate(0.362 -6.47)" fill="#df615c"/>
      </g>
    </g>
    <g id="Iconly_Two-tone_Calendar" data-name="Iconly Two-tone Calendar" transform="translate(30.353 4.402)">
      <g id="Calendar-5">
        <path id="Line_200-2" data-name="Line 200-2" d="M263.093,1869.308H276.18" transform="translate(-263.025 -1863.992)" fill="none" stroke="#df615c" stroke-linecap="round" stroke-linejoin="round" stroke-width="1.5" opacity="0.4" style="isolation: isolate"/>
        <path id="Combined_Shape-30" data-name="Combined Shape-30" d="M274.081,1876h0Zm-3.258,0h0Zm-3.264,0h0Zm6.523-2.791h0Zm-3.258,0h0Zm-3.264,0h0Z" transform="translate(-264.211 -1865.093)" fill="none" stroke="#df615c" stroke-linecap="round" stroke-linejoin="round" stroke-width="1.5" opacity="0.4" style="isolation: isolate"/>
        <path id="Line_207-2" data-name="Line 207-2" d="M276.044,1861.9v2.363" transform="translate(-266.467 -1861.904)" fill="none" stroke="#df615c" stroke-linecap="round" stroke-linejoin="round" stroke-width="1.5"/>
        <path id="Line_208-2" data-name="Line 208-2" d="M267.965,1861.9v2.363" transform="translate(-264.32 -1861.904)" fill="none" stroke="#df615c" stroke-linecap="round" stroke-linejoin="round" stroke-width="1.5"/>
        <path id="Path-16" d="M272.72,1863.483H266.5c-2.156,0-3.5,1.175-3.5,3.333v6.5a3.156,3.156,0,0,0,3.5,3.4h6.21c2.163,0,3.5-1.181,3.5-3.34v-6.553C276.223,1864.658,274.883,1863.483,272.72,1863.483Z" transform="translate(-263 -1862.349)" fill="none" stroke="#df615c" stroke-linecap="round" stroke-linejoin="round" stroke-width="1.5"/>
      </g>
    </g>
  </g>
</svg>
