<svg xmlns="http://www.w3.org/2000/svg" width="93.708" height="93.708" viewBox="0 0 93.708 93.708"><defs><style>.a{fill:red;}.b{fill:rgba(255,0,0,0.15);}</style></defs><g transform="translate(-3527.656 852.174)"><path class="a" d="M57.386,25.355,45.314,37.428,33.241,25.355,26,32.6,38.07,44.671,26,56.744l7.244,7.244L45.314,51.915,57.386,63.987l7.244-7.244L52.557,44.671,64.63,32.6Z" transform="translate(3529.196 -849.991)"/><path class="b" d="M49.425,1.928A46.854,46.854,0,1,0,96.278,48.782,46.854,46.854,0,0,0,49.425,1.928Zm0,84.923A38.069,38.069,0,1,1,87.493,48.782,38.069,38.069,0,0,1,49.425,86.851Z" transform="translate(3525.085 -854.102)"/></g></svg>