<svg xmlns="http://www.w3.org/2000/svg" width="18.772" height="16.683" viewBox="0 0 18.772 16.683">
  <path id="Icon_awesome-edit" data-name="Icon awesome-edit" d="M13.121,2.715l2.94,2.94a.319.319,0,0,1,0,.45L8.943,13.223l-3.024.336a.634.634,0,0,1-.7-.7l.336-3.024,7.118-7.118A.319.319,0,0,1,13.121,2.715Zm5.28-.746L16.81.379a1.275,1.275,0,0,0-1.8,0L13.858,1.532a.319.319,0,0,0,0,.45l2.94,2.94a.319.319,0,0,0,.45,0L18.4,3.768a1.275,1.275,0,0,0,0-1.8Zm-5.886,9.318V14.6H2.086V4.175H9.575a.4.4,0,0,0,.277-.114l1.3-1.3a.391.391,0,0,0-.277-.668H1.564A1.565,1.565,0,0,0,0,3.654V15.126A1.565,1.565,0,0,0,1.564,16.69H13.036A1.565,1.565,0,0,0,14.6,15.126V9.983a.392.392,0,0,0-.668-.277l-1.3,1.3A.4.4,0,0,0,12.515,11.287Z" transform="translate(0 -0.007)" fill="#00132d"/>
</svg>
