<svg xmlns="http://www.w3.org/2000/svg" width="54" height="54" viewBox="0 0 54 54">
  <g id="Group_6035" data-name="Group 6035" transform="translate(-1038 -228)">
    <g id="Group_5047" data-name="Group 5047" transform="translate(1038 228)">
      <g id="Group_4426" data-name="Group 4426" transform="translate(0)" opacity="0.38">
        <circle id="Ellipse_50" data-name="Ellipse 50" cx="27" cy="27" r="27" fill="#21b573" opacity="0.2"/>
      </g>
    </g>
    <g id="Path_1638" data-name="Path 1638" transform="translate(1052.707 241.305)" fill="none">
      <path d="M10.957,0A10.957,10.957,0,1,1,0,10.957,10.957,10.957,0,0,1,10.957,0Z" stroke="none"/>
      <path d="M 10.95652198791504 1.500001907348633 C 5.742181777954102 1.500001907348633 1.500001907348633 5.742181777954102 1.500001907348633 10.95652198791504 C 1.500001907348633 16.17086219787598 5.742181777954102 20.41304206848145 10.95652198791504 20.41304206848145 C 16.17086219787598 20.41304206848145 20.41304206848145 16.17086219787598 20.41304206848145 10.95652198791504 C 20.41304206848145 5.742181777954102 16.17086219787598 1.500001907348633 10.95652198791504 1.500001907348633 M 10.95652198791504 1.9073486328125e-06 C 17.00764083862305 1.9073486328125e-06 21.91304206848145 4.905401229858398 21.91304206848145 10.95652198791504 C 21.91304206848145 17.00764083862305 17.00764083862305 21.91304206848145 10.95652198791504 21.91304206848145 C 4.905401229858398 21.91304206848145 1.9073486328125e-06 17.00764083862305 1.9073486328125e-06 10.95652198791504 C 1.9073486328125e-06 4.905401229858398 4.905401229858398 1.9073486328125e-06 10.95652198791504 1.9073486328125e-06 Z" stroke="none" fill="#21b573"/>
    </g>
    <path id="Path_1362" data-name="Path 1362" d="M6.808-5.133a2.338,2.338,0,0,1-.3,1.146,2.48,2.48,0,0,1-.883.908,2.937,2.937,0,0,1-1.4.413v1.014H3.552V-2.666A3.122,3.122,0,0,1,1.7-3.4,2.093,2.093,0,0,1,.973-5.007H2.187a1.567,1.567,0,0,0,.394.914,1.581,1.581,0,0,0,.97.488v-3.13A8.91,8.91,0,0,1,2.2-7.174a2.212,2.212,0,0,1-.877-.7A2.054,2.054,0,0,1,.96-9.152a2.2,2.2,0,0,1,.707-1.678,2.93,2.93,0,0,1,1.885-.739v-1.039h.676v1.039a2.8,2.8,0,0,1,1.715.682A2.349,2.349,0,0,1,6.695-9.34H5.48a1.472,1.472,0,0,0-.388-.8,1.567,1.567,0,0,0-.864-.47v3.055a9.929,9.929,0,0,1,1.346.432,2.107,2.107,0,0,1,.877.695A2.1,2.1,0,0,1,6.808-5.133ZM2.125-9.215a1.2,1.2,0,0,0,.363.939,2.811,2.811,0,0,0,1.064.538V-10.63a1.732,1.732,0,0,0-1.039.419A1.285,1.285,0,0,0,2.125-9.215Zm2.1,5.622a1.628,1.628,0,0,0,1.058-.488,1.407,1.407,0,0,0,.382-.989,1.2,1.2,0,0,0-.376-.945,2.758,2.758,0,0,0-1.064-.532Z" transform="translate(1059.542 259.698)" fill="#21b573"/>
    <g id="Icon_feather-clock" data-name="Icon feather-clock" transform="translate(1067.264 258.047)">
      <path id="Path_1363" data-name="Path 1363" d="M13.65,8.325A5.325,5.325,0,1,1,8.325,3,5.325,5.325,0,0,1,13.65,8.325Z" transform="translate(-3 -3)" fill="none" stroke="#21b573" stroke-linecap="round" stroke-linejoin="round" stroke-width="1.2"/>
      <path id="Path_1364" data-name="Path 1364" d="M18,9v3.195l2.13,1.065" transform="translate(-12.675 -6.87)" fill="none" stroke="#21b573" stroke-linecap="round" stroke-linejoin="round" stroke-width="1.2"/>
    </g>
  </g>
</svg>
