<svg xmlns="http://www.w3.org/2000/svg" width="75.05" height="75.05" viewBox="0 0 75.05 75.05">
  <g id="Icon_feather-image" data-name="Icon feather-image" transform="translate(-2 -2)">
    <path id="Path_1703" data-name="Path 1703" d="M12.168,4.5H65.846a7.668,7.668,0,0,1,7.668,7.668V65.846a7.668,7.668,0,0,1-7.668,7.668H12.168A7.668,7.668,0,0,1,4.5,65.846V12.168A7.668,7.668,0,0,1,12.168,4.5Z" transform="translate(0 0)" fill="none" stroke="#1173ff" stroke-linecap="round" stroke-linejoin="round" stroke-width="5"/>
    <path id="Path_1704" data-name="Path 1704" d="M22,16.251A5.751,5.751,0,1,1,16.251,10.5,5.751,5.751,0,0,1,22,16.251Z" transform="translate(9.336 9.336)" fill="none" stroke="#1173ff" stroke-linecap="round" stroke-linejoin="round" stroke-width="5"/>
    <path id="Path_1705" data-name="Path 1705" d="M68.846,34.171,49.675,15,7.5,57.175" transform="translate(4.668 16.339)" fill="none" stroke="#1173ff" stroke-linecap="round" stroke-linejoin="round" stroke-width="5"/>
  </g>
</svg>
