<svg xmlns="http://www.w3.org/2000/svg" width="23.752" height="27.504" viewBox="0 0 23.752 27.504">
  <g id="Notification-5" transform="translate(1.25 1.25)">
    <path id="Path_425-2" data-name="Path 425-2" d="M503.5,1828.638v-.274a4.5,4.5,0,0,1,.75-2.272,6.083,6.083,0,0,0,1.5-2.893c0-.833,0-1.677.073-2.511.371-4.011,4.336-6.784,8.254-6.784h.1c3.917,0,7.882,2.772,8.271,6.784.073.833,0,1.677.061,2.511a6.187,6.187,0,0,0,1.494,2.9,4.384,4.384,0,0,1,.75,2.261v.261a4.452,4.452,0,0,1-1.055,2.987,5.628,5.628,0,0,1-3.57,1.714,56.316,56.316,0,0,1-12.019,0,5.7,5.7,0,0,1-3.562-1.714A4.5,4.5,0,0,1,503.5,1828.638Z" transform="translate(-503.499 -1813.904)" fill="none" stroke="#00132d" stroke-linecap="round" stroke-linejoin="round" stroke-width="2.5"/>
    <path id="Path_421-2" data-name="Path 421-2" d="M509.555,1832.756a3.848,3.848,0,0,0,5.36.625,3.6,3.6,0,0,0,.655-.625" transform="translate(-501.985 -1809.191)" fill="none" stroke="#00132d" stroke-linecap="round" stroke-linejoin="round" stroke-width="2.5" opacity="0.4" style="isolation: isolate"/>
  </g>
</svg>
