<svg xmlns="http://www.w3.org/2000/svg" width="54" height="54" viewBox="0 0 54 54">
  <g id="Group_6036" data-name="Group 6036" transform="translate(-1309 -228)">
    <g id="Group_5202" data-name="Group 5202" transform="translate(1309 228)">
      <g id="Group_5047" data-name="Group 5047" transform="translate(0 0)">
        <g id="Group_4426" data-name="Group 4426" transform="translate(0 0)" opacity="0.38">
          <circle id="Ellipse_50" data-name="Ellipse 50" cx="27" cy="27" r="27" transform="translate(0 0)" fill="#df615c" opacity="0.2"/>
        </g>
      </g>
    </g>
    <g id="Group_5041" data-name="Group 5041" transform="translate(1321.526 239.582)">
      <g id="Group_5040" data-name="Group 5040" transform="translate(0 0)">
        <g id="Group_5039" data-name="Group 5039" transform="translate(0 0)">
          <g id="Icon_feather-clock" data-name="Icon feather-clock">
            <path id="Path_1363" data-name="Path 1363" d="M30.549,16.775A13.775,13.775,0,1,1,16.775,3,13.775,13.775,0,0,1,30.549,16.775Z" transform="translate(-3 -3)" fill="none" stroke="#df615c" stroke-linecap="round" stroke-linejoin="round" stroke-width="2"/>
            <path id="Path_1364" data-name="Path 1364" d="M18,9v8.265l5.51,2.755" transform="translate(-4.225 -3.49)" fill="none" stroke="#df615c" stroke-linecap="round" stroke-linejoin="round" stroke-width="2"/>
          </g>
        </g>
      </g>
      <path id="Path_1366" data-name="Path 1366" d="M-970.706,4791.718c-.3-1.114-.042-4.113,2.854-4.155a3.156,3.156,0,0,1,2.211.449,3.261,3.261,0,0,1,.842,1.009,1.943,1.943,0,0,1,.222.545,4.437,4.437,0,0,1-.379,2.152s.252,2.727-1.511,4.112c-.336,1.385,0,1.511,0,1.511s3.945-.881,4.071,3.819h-10.786V4799.1l1.46-1.46,2.317-.6.168-1.469a2.178,2.178,0,0,1-1.76-.914,3.254,3.254,0,0,1-.293-.721,2.9,2.9,0,0,1-.073-1.479C-971.278,4792.235-970.706,4792.271-970.706,4791.718Z" transform="translate(990.252 -4767.396)" fill="#fff"/>
      <path id="Path_1365" data-name="Path 1365" d="M-50.423,2473.283h-.583v-.481a3.521,3.521,0,0,0,1.761-3.042v-2.4a3.551,3.551,0,0,0-1.033-2.4,3.414,3.414,0,0,0-2.5-1.077,3.537,3.537,0,0,0-3.537,3.522v2.358a3.5,3.5,0,0,0,1.775,3.042v.481h-.6a3.534,3.534,0,0,0-3.522,3.522V2478h1.179v-1.193a2.36,2.36,0,0,1,2.343-2.343h.7a1.765,1.765,0,0,0,2.242,1.077,1.725,1.725,0,0,0,1.077-1.077h.7a2.363,2.363,0,0,1,2.357,2.343V2478h1.179v-1.193A3.546,3.546,0,0,0-50.423,2473.283Zm-2.358-8.223a2.384,2.384,0,0,1,2.139,1.411,10.289,10.289,0,0,1-3.449.932,6.311,6.311,0,0,1-1.048,0A2.354,2.354,0,0,1-52.781,2465.06Zm.582,8.805a.578.578,0,0,1-.582.6.6.6,0,0,1-.6-.6v-.626a4.022,4.022,0,0,0,1.179,0Zm-.582-1.762a2.354,2.354,0,0,1-2.358-2.343v-1.179c.146.015.306.015.48.015a11.124,11.124,0,0,0,4.235-.931v2.1A2.354,2.354,0,0,1-52.781,2472.1Z" transform="translate(75.133 -2444.157)" fill="#df615c"/>
    </g>
  </g>
</svg>
