<svg xmlns="http://www.w3.org/2000/svg" width="93.708" height="93.708" viewBox="0 0 93.708 93.708">
  <g id="Group_6029" data-name="Group 6029" transform="translate(-914 -287.326)">
    <g id="Group_6027" data-name="Group 6027">
      <g id="Group_5356" data-name="Group 5356" transform="translate(-4241 -3433)">
        <path id="Icon_metro-cancel" data-name="Icon metro-cancel" d="M49.425,1.928A46.854,46.854,0,1,0,96.278,48.782,46.854,46.854,0,0,0,49.425,1.928Zm0,84.923A38.069,38.069,0,1,1,87.493,48.782,38.069,38.069,0,0,1,49.425,86.851Z" transform="translate(5152.429 3718.398)" fill="rgba(33,181,115,0.15)"/>
      </g>
    </g>
    <g id="Group_6028" data-name="Group 6028">
      <path id="Icon_awesome-book-open" data-name="Icon awesome-book-open" d="M38.125,2.254c-3.853.219-11.512,1.015-16.239,3.909a1.081,1.081,0,0,0-.511.926V32.673a1.113,1.113,0,0,0,1.637.949c4.864-2.448,11.9-3.116,15.377-3.3A2.193,2.193,0,0,0,40.5,28.166V4.412a2.2,2.2,0,0,0-2.374-2.159ZM18.614,6.162C13.887,3.268,6.228,2.473,2.375,2.254A2.205,2.205,0,0,0,0,4.412V28.167a2.192,2.192,0,0,0,2.111,2.156c3.48.183,10.518.851,15.382,3.3a1.109,1.109,0,0,0,1.632-.946V7.076A1.059,1.059,0,0,0,18.614,6.162Z" transform="translate(940.604 316.18)" fill="#21b573"/>
    </g>
  </g>
</svg>
