<svg xmlns="http://www.w3.org/2000/svg" width="54" height="54" viewBox="0 0 54 54">
  <g id="Group_6037" data-name="Group 6037" transform="translate(-1605 -228)">
    <g id="Group_5204" data-name="Group 5204" transform="translate(1605 228)">
      <g id="Group_5047" data-name="Group 5047" transform="translate(0 0)">
        <g id="Group_4426" data-name="Group 4426" transform="translate(0)" opacity="0.38">
          <circle id="Ellipse_50" data-name="Ellipse 50" cx="27" cy="27" r="27" transform="translate(0 0)" fill="#faaf3a" opacity="0.2"/>
        </g>
      </g>
    </g>
    <g id="Group_5206" data-name="Group 5206" transform="translate(1619.399 239.739)">
      <path id="Path_1639" data-name="Path 1639" d="M45.778,44.7h0a9.546,9.546,0,0,0-6.9,2.9,9.976,9.976,0,0,0,6.852,16.981h.025a9.531,9.531,0,0,0,6.877-2.9,9.955,9.955,0,0,0,2.876-7.027A9.853,9.853,0,0,0,45.778,44.7ZM52.1,61.155a8.854,8.854,0,0,1-6.352,2.676h-.025a9.084,9.084,0,0,1-8.978-9.2,9.281,9.281,0,0,1,2.651-6.5,8.854,8.854,0,0,1,6.352-2.676h.025a9.084,9.084,0,0,1,8.978,9.2A9.194,9.194,0,0,1,52.1,61.155Z" transform="translate(-33.424 -37.348)" fill="#faaf3a"/>
      <path id="Path_1640" data-name="Path 1640" d="M39.754,20.152V19.126H41.58V18.5a3.207,3.207,0,0,0-3.2-3.2h-.625a3.207,3.207,0,0,0-3.2,3.2v.625h1.826v1A12.127,12.127,0,0,0,29.326,23.7,12.629,12.629,0,0,0,25.7,32.581,12.436,12.436,0,0,0,38,45.16h.025a12.186,12.186,0,0,0,8.7-3.651,12.657,12.657,0,0,0-6.977-21.357ZM35.878,17.9a1.946,1.946,0,0,1,1.851-1.325h.625A1.946,1.946,0,0,1,40.2,17.9H35.878ZM37.6,20.027v-.9h.9v.9h-.9Zm8.228,20.582a10.881,10.881,0,0,1-7.8,3.3H38A11.214,11.214,0,0,1,26.95,32.581a11.379,11.379,0,0,1,3.276-8A10.8,10.8,0,0,1,37.8,21.3h.45a11.343,11.343,0,0,1,7.577,19.306Z" transform="translate(-25.7 -15.3)" fill="#faaf3a"/>
      <path id="Path_1641" data-name="Path 1641" d="M73.975,54.4H73.6v.75h.375a6.716,6.716,0,0,1,6.6,6.352H79.7l1.225,2.2,1.225-2.2h-.875A7.388,7.388,0,0,0,73.975,54.4Z" transform="translate(-61.621 -44.622)" fill="#faaf3a"/>
      <path id="Path_1642" data-name="Path 1642" d="M71.1,70.976A1.978,1.978,0,0,0,69.776,69.1V66.5h-1.25v2.6A1.978,1.978,0,0,0,67.2,70.976a1.959,1.959,0,0,0,1.951,1.976,1.9,1.9,0,0,0,1.5-.725L74.878,73.9l.45-1.15-4.251-1.7C71.1,71.051,71.1,71.026,71.1,70.976Zm-1.951.75a.7.7,0,0,1-.7-.725.721.721,0,0,1,.7-.725.726.726,0,0,1,0,1.45Z" transform="translate(-56.822 -53.696)" fill="#faaf3a"/>
    </g>
  </g>
</svg>
