<svg xmlns="http://www.w3.org/2000/svg" width="93" height="93" viewBox="0 0 93 93">
  <g id="Group_11605" data-name="Group 11605" transform="translate(-140 -1413)">
    <circle id="Ellipse_95" data-name="Ellipse 95" cx="46.5" cy="46.5" r="46.5" transform="translate(140 1413)" fill="#1877ff" opacity="0.24"/>
    <g id="Group_7403" data-name="Group 7403" transform="translate(-904.532 855.971)">
      <path id="Path_2027" data-name="Path 2027" d="M9.458,0A9.458,9.458,0,1,1,0,9.458,9.458,9.458,0,0,1,9.458,0Z" transform="translate(1091.205 604.491)" fill="#fff"/>
      <path id="Path_2026" data-name="Path 2026" d="M1091.774,589.066v9.069l-4.745-1.621-3.664,1.261s.42-9.309-.42-9.189-10.149,0-10.149,0l-1.2,1.5v27.626l2.4,1.922,17.537-.36s-3.243-4.985,0-9.429,2.7-5.946,11.351-5.525c-.3-5.225,0-15.255,0-15.255Z" fill="#1173ff"/>
      <g id="pending" transform="translate(1070.5 587.223)">
        <path id="Path_942" data-name="Path 942" d="M33.461,16.615V3.531A3.034,3.034,0,0,0,30.431.5H3.032A3.034,3.034,0,0,0,0,3.531v27.4a3.034,3.034,0,0,0,3.031,3.031H20.676A11.288,11.288,0,1,0,33.461,16.615ZM13.755,2.967h5.953v6.81L17.189,8.771a1.236,1.236,0,0,0-.915,0L13.755,9.777ZM3.032,31.493a.564.564,0,0,1-.564-.564V3.531a.564.564,0,0,1,.564-.564h8.256V11.6a1.233,1.233,0,0,0,1.691,1.145l3.752-1.5,3.752,1.5A1.233,1.233,0,0,0,22.175,11.6V2.967h8.256a.564.564,0,0,1,.564.564V16.063A11.289,11.289,0,0,0,19.3,31.493Zm26.744,4.616A8.823,8.823,0,1,1,38.6,27.287,8.833,8.833,0,0,1,29.776,36.109Zm0,0" transform="translate(-0.001 -0.5)" fill="#1173ff"/>
        <path id="Path_943" data-name="Path 943" d="M360.64,267.664H357.3v-3.34a1.234,1.234,0,1,0-2.467,0V268.9a1.234,1.234,0,0,0,1.233,1.233h4.574a1.234,1.234,0,1,0,0-2.467Zm0,0" transform="translate(-326.373 -240.77)" fill="#1173ff"/>
      </g>
    </g>
  </g>
</svg>
