<svg id="Group_10192" data-name="Group 10192" xmlns="http://www.w3.org/2000/svg" width="63.501" height="66.794" viewBox="0 0 63.501 66.794">
  <g id="Group_10188" data-name="Group 10188">
    <g id="Group_10176" data-name="Group 10176" transform="translate(0 4.082)">
      <g id="Group_10175" data-name="Group 10175">
        <g id="Group_10174" data-name="Group 10174">
          <ellipse id="Ellipse_184" data-name="Ellipse 184" cx="31.751" cy="31.356" rx="31.751" ry="31.356" fill="#ced3e6"/>
        </g>
      </g>
    </g>
    <g id="Group_10180" data-name="Group 10180">
      <g id="Group_10179" data-name="Group 10179">
        <g id="Group_10178" data-name="Group 10178">
          <g id="Group_10177" data-name="Group 10177">
            <ellipse id="Ellipse_185" data-name="Ellipse 185" cx="31.751" cy="31.356" rx="31.751" ry="31.356" fill="#21b573"/>
          </g>
        </g>
      </g>
    </g>
    <g id="Group_10184" data-name="Group 10184" transform="translate(5.938 5.865)">
      <g id="Group_10183" data-name="Group 10183">
        <g id="Group_10182" data-name="Group 10182">
          <g id="Group_10181" data-name="Group 10181">
            <ellipse id="Ellipse_186" data-name="Ellipse 186" cx="25.812" cy="25.492" rx="25.812" ry="25.492" fill="#fff"/>
          </g>
        </g>
      </g>
    </g>
    <g id="Group_10187" data-name="Group 10187" transform="translate(5.939 5.866)">
      <g id="Group_10186" data-name="Group 10186">
        <g id="Group_10185" data-name="Group 10185">
          <path id="Path_2210" data-name="Path 2210" d="M-22.873,588.465c0,.679-.027,1.352-.08,2.015A25.72,25.72,0,0,0-48.685,567,25.72,25.72,0,0,0-74.417,590.48c-.052-.663-.079-1.336-.079-2.015a25.68,25.68,0,0,1,25.811-25.49A25.681,25.681,0,0,1-22.873,588.465Z" transform="translate(74.496 -562.975)" fill="#ced3e6"/>
        </g>
      </g>
    </g>
  </g>
  <g id="Group_10191" data-name="Group 10191" transform="translate(18.443 15.897)">
    <g id="Group_10190" data-name="Group 10190">
      <g id="Group_10189" data-name="Group 10189">
        <path id="Path_2211" data-name="Path 2211" d="M-50.581,589.6a.647.647,0,0,1-.519-.257L-63.763,572.5a.633.633,0,0,1,.134-.892.651.651,0,0,1,.9.132l12.356,16.427,14.041-6.086a.649.649,0,0,1,.851.328.634.634,0,0,1-.331.84l-14.513,6.29A.652.652,0,0,1-50.581,589.6Z" transform="translate(63.89 -571.484)" fill="#39393b"/>
      </g>
    </g>
  </g>
</svg>
