<svg xmlns="http://www.w3.org/2000/svg" width="45.324" height="44.244" viewBox="0 0 45.324 44.244">
  <g id="Group_10916" data-name="Group 10916" transform="translate(0 0)">
    <g id="Group_10912" data-name="Group 10912">
      <g id="Group_10908" data-name="Group 10908" transform="translate(1.079)">
        <g id="Group_10907" data-name="Group 10907">
          <g id="Group_10906" data-name="Group 10906">
            <path id="Path_2305" data-name="Path 2305" d="M-24.963,739.941A22.122,22.122,0,0,0-2.841,762.063a22.122,22.122,0,0,0,22.122-22.121A22.123,22.123,0,0,0-2.841,717.819,22.123,22.123,0,0,0-24.963,739.941Z" transform="translate(24.963 -717.819)" fill="#df615c"/>
          </g>
        </g>
      </g>
      <g id="Group_10911" data-name="Group 10911" transform="translate(0 32.486)">
        <g id="Group_10910" data-name="Group 10910">
          <g id="Group_10909" data-name="Group 10909">
            <path id="Path_2306" data-name="Path 2306" d="M-13.991,753.105l-11.887,2.516,5.147-10.245Z" transform="translate(25.878 -745.377)" fill="#df615c"/>
          </g>
        </g>
      </g>
    </g>
    <g id="Group_10915" data-name="Group 10915" transform="translate(13.418 9.684)">
      <g id="Group_10914" data-name="Group 10914">
        <g id="Group_10913" data-name="Group 10913">
          <path id="Path_2307" data-name="Path 2307" d="M-2.829,733.723c0-1.036-1-1.571-2.24-1.571a3.938,3.938,0,0,0-3.476,2.274L-14.5,731.45c1.7-3.21,5.081-5.416,10.431-5.416,5.248,0,9.16,2.206,9.16,6.385,0,5.115-5.348,6.018-5.348,8.591H-7.141C-7.141,736.966-2.829,735.762-2.829,733.723Zm-5.282,12.57c0-2.24,1.806-3.946,4.414-3.946s4.412,1.706,4.412,3.946A4.129,4.129,0,0,1-3.7,750.3,4.129,4.129,0,0,1-8.111,746.293Z" transform="translate(14.496 -726.034)" fill="#fff"/>
        </g>
      </g>
    </g>
  </g>
</svg>
