<?xml version="1.0" encoding="utf-8"?>
<!-- Generator: Adobe Illustrator 20.1.0, SVG Export Plug-In . SVG Version: 6.00 Build 0)  -->
<svg version="1.1" id="Layer_1" xmlns="http://www.w3.org/2000/svg" xmlns:xlink="http://www.w3.org/1999/xlink" x="0px" y="0px"
	 viewBox="0 0 1370 738.6" style="enable-background:new 0 0 1370 738.6;" xml:space="preserve">
<style type="text/css">
	.st0{fill:#FFFFFF;}
	.st1{opacity:0.64;}
	.st2{fill:#C1C1C1;}
	.st3{fill:#F44336;}
</style>
<g>
	<g>
		<circle class="st0" cx="1172.2" cy="540.7" r="197.4"/>
	</g>
	<g class="st1">
		<path class="st2" d="M1208.7,598.9H57.2c-31.4,0-56.8-25.5-56.8-56.9l0,0c0-31.4,25.4-56.8,56.8-56.8h1151.5
			c31.4,0,56.8,25.4,56.8,56.8l0,0C1265.6,573.4,1240.1,598.9,1208.7,598.9z"/>
	</g>
	<g>
		<path d="M1188.4,534.7h-6c-5.1,0-8.8,4-8.8,9.2v13.5c-11.6,0-22.9,0-34.1,0c-5.4,0-8.6-2.9-9.8-8.1c0-0.1,0.1-0.1,0.1-0.2v-35
			c0-1.6,0.5-3.2,1.6-4.6c1.8-2.3,4-3.6,6.9-3.7c2-0.1,4-0.1,6-0.1c11.3,0,22.6,0,33.9,0c4.3,0,7.4,1.8,9.2,5.7
			c0.6,1.3,0.9,2.9,0.9,4.4C1188.4,522.2,1188.4,528.7,1188.4,534.7z"/>
		<path d="M1217,531.6c0,4.9,0.2,9.9,0.1,14.8c0,2.1-0.8,4-2.6,4.9v-7.4c0-5.1-4.4-9.2-9.6-9.2h-11.7c0-4.3,0-9,0-13.5
			c0-0.5,0.1-0.9,0.6-1.2c4.8-2.7,9.6-5.5,14.4-8.3c2.9-1.7,6.4-0.8,8,2.1c0.5,0.9,0.7,2.1,0.8,3.2C1217,522,1217,526.8,1217,531.6z
			"/>
	</g>
	<g>
		<path class="st3" d="M1213.6,578.7h-32.3c-2.3,0-4.1-1.8-4.1-4.1v-32.3c0-2.3,1.8-4.1,4.1-4.1h32.3c2.3,0,4.1,1.8,4.1,4.1v32.3
			C1217.7,576.9,1215.9,578.7,1213.6,578.7z"/>
		<path class="st0" d="M1192.8,558.7c-3.3-3.3-6.5-6.5-9.7-9.7c-0.9-0.9-1.3-1.8-1.1-3c0.2-1.3,1-2.3,2.3-2.7s2.5-0.1,3.5,0.9
			c1.5,1.5,2.9,2.9,4.4,4.4c1.8,1.8,3.5,3.5,5.3,5.4c0.2-0.2,0.4-0.4,0.6-0.6c3-3,6-6,9.1-9.1c1.4-1.4,3.2-1.5,4.6-0.4
			c1.6,1.3,1.6,3.5,0.1,5c-2.7,2.8-5.5,5.5-8.3,8.3c-0.4,0.4-0.9,0.8-1.4,1.2c0.3,0.3,0.5,0.5,0.7,0.7c3,3,6.1,6,9.1,9.1
			c1.6,1.6,1.4,4.1-0.5,5.3c-1.4,0.9-3,0.7-4.3-0.5c-3-3-6-6-9-9c-0.2-0.2-0.4-0.4-0.5-0.7c-0.3,0.3-0.5,0.5-0.7,0.7c-3,3-6,6-9,9
			c-0.9,0.9-1.8,1.3-3,1.2c-1.3-0.2-2.3-1-2.7-2.3c-0.5-1.3-0.1-2.5,0.9-3.5c2.6-2.7,5.3-5.3,7.9-7.9
			C1191.5,559.9,1192.1,559.3,1192.8,558.7z"/>
	</g>
	<g>
		<path d="M89.3,530.7h4.8l6.4,23.5l7-23.5h4.8l6.8,23.6l6.3-23.6h4.6l-8.7,28h-4.9l-6.8-22.3l-6.8,22.3H98L89.3,530.7z"/>
		<path d="M131.2,530.7h4.8l6.4,23.5l7-23.5h4.8l6.8,23.6l6.3-23.6h4.6l-8.7,28h-4.8l-6.8-22.3l-6.8,22.3H140L131.2,530.7z"/>
		<path d="M173.2,530.7h4.8l6.4,23.5l7-23.5h4.8l6.8,23.6l6.3-23.6h4.6l-8.7,28h-4.8l-6.8-22.3l-6.8,22.3H182L173.2,530.7z"/>
		<path d="M220,559c-1.8,0-3.2-1.4-3.2-3.2s1.4-3.2,3.2-3.2c1.7,0,3.1,1.4,3.1,3.2S221.6,559,220,559z"/>
		<path d="M230.2,534.5h-3.6v-3.8h3.6v-7.1h4.7v7.1h7.3v3.8h-7.3V551c0,2.8,1,3.7,3.9,3.7h3.4v3.9H238c-5,0-7.8-2-7.8-7.7
			L230.2,534.5L230.2,534.5z"/>
		<path d="M272.7,558.7H268v-4.1c-1.8,2.9-5.2,4.6-9,4.6c-6.4,0-11.5-4-11.5-12v-16.4h4.6v15.8c0,5.7,3.1,8.6,7.8,8.6c4.8,0,8-3,8-9
			v-15.4h4.7v27.9H272.7z"/>
		<path d="M281.6,534.5H278v-3.8h3.6v-7.1h4.7v7.1h7.3v3.8h-7.3V551c0,2.8,1,3.7,3.9,3.7h3.4v3.9h-4.2c-5,0-7.8-2-7.8-7.7V534.5z"/>
		<path d="M311.4,559.2c-7.9,0-14-5.6-14-14.5s6.2-14.4,14.2-14.4s14.2,5.6,14.2,14.4C325.8,553.6,319.4,559.2,311.4,559.2z
			 M311.4,555.1c4.9,0,9.6-3.3,9.6-10.4c0-7.1-4.7-10.4-9.5-10.4c-4.9,0-9.4,3.3-9.4,10.4C302.2,551.8,306.6,555.1,311.4,555.1z"/>
		<path d="M336.6,558.7h-4.7v-28h4.7v4.6c1.6-3.1,4.6-5.1,9.1-5.1v4.8h-1.3c-4.5,0-7.8,2-7.8,8.5V558.7z"/>
		<path d="M352.7,530.7l8.7,23.7l8.7-23.7h5l-11,28h-5.4l-11-28H352.7z"/>
		<path d="M399.1,530.7h4.8L387,571.9h-4.8l5.5-13.5l-11.3-27.7h5.2l8.8,22.7L399.1,530.7z"/>
		<path d="M410,559c-1.8,0-3.2-1.4-3.2-3.2s1.4-3.2,3.2-3.2c1.7,0,3.1,1.4,3.1,3.2S411.7,559,410,559z"/>
		<path d="M431.2,530.2c7,0,11.5,3.6,12.9,9.5h-5c-1-3.4-3.8-5.5-7.9-5.5c-5.1,0-8.9,3.6-8.9,10.5c0,7,3.8,10.6,8.9,10.6
			c4.1,0,6.9-2,7.9-5.5h5c-1.4,5.6-6,9.5-12.9,9.5c-8,0-13.7-5.6-13.7-14.5C417.6,535.9,423.2,530.2,431.2,530.2z"/>
		<path d="M462.6,559.2c-7.9,0-14-5.6-14-14.5s6.2-14.4,14.2-14.4s14.2,5.6,14.2,14.4C477,553.6,470.6,559.2,462.6,559.2z
			 M462.6,555.1c4.9,0,9.6-3.3,9.6-10.4c0-7.1-4.7-10.4-9.5-10.4c-4.9,0-9.4,3.3-9.4,10.4C453.4,551.8,457.7,555.1,462.6,555.1z"/>
		<path d="M523.6,542.9c0-5.7-3.1-8.6-7.7-8.6c-4.7,0-7.9,3-7.9,9.1v15.5h-4.6V543c0-5.7-3.1-8.6-7.7-8.6c-4.7,0-7.9,3-7.9,9.1V559
			h-4.7v-28h4.7v4c1.8-3,5.2-4.6,8.9-4.6c4.6,0,8.4,2,10.3,6.2c1.6-4,5.6-6.2,9.9-6.2c6.4,0,11.4,4,11.4,12v16.5h-4.6v-16H523.6z"/>
	</g>
	<g>
		<g>
			<path class="st0" d="M1276.5,56.1c-0.3,0.9-0.7,1.8-1,2.7c-6.8,16.6-13.6,33.2-20.4,49.7c-1.5,3.6-1.3,6.9,1.2,9.9
				c3.7,4.5,10.9,3.8,13.9-1.2c0.6-0.9,1-1.9,1.4-3c9.5-23.3,19.1-46.5,28.6-69.8c2.9-7,1.2-11.1-5.8-14
				c-23.4-9.6-46.7-19.1-70-28.8c-3.8-1.6-7.3-1.5-10.3,1.3c-4.8,4.4-3.2,11.9,3.2,14.5c13.1,5.4,26.3,10.8,39.4,16.2
				c4.3,1.7,8.5,3.4,13.6,5.4c-1.7,0.8-2.6,1.3-3.5,1.7c-44,19.8-76.8,51.3-97.7,94.8c-18.7,38.9-23.7,79.7-15.6,122.1
				c2.4,12.7,6.2,25.1,11.2,37.1c2.1,5.1,7,7.4,11.6,5.5c4.7-1.9,6.5-6.9,4.5-12c-16.7-41.6-18.3-83.8-3.7-126.2
				c13.6-39.6,38.3-70.8,73.8-93.1c8.1-5.1,16.7-9.3,25.1-13.9C1276,55.6,1276.2,55.9,1276.5,56.1z"/>
		</g>
	</g>
</g>
</svg>
