<svg xmlns="http://www.w3.org/2000/svg" xmlns:xlink="http://www.w3.org/1999/xlink" width="992" height="274" viewBox="0 0 992 274"><defs><style>.a{fill:url(#a);}.b{fill:none;}.c{clip-path:url(#d);}.d{opacity:0.27;mix-blend-mode:lighten;isolation:isolate;}.e{fill:#1072ff;}.f,.g{fill:#fff;}.g{stroke:#f1f1f1;}.h,.i{fill:#00132d;}.i{opacity:0.12;}.j{clip-path:url(#e);}.k{fill:#ea9b7a;}.l{fill:#d96c63;}.m{fill:#39393b;}.n{fill:#faaf3a;}.o{fill:#c77e2e;}.p{fill:#585859;}.q{stroke:none;}.r{filter:url(#b);}</style><linearGradient id="a" x1="0.237" y1="0.451" x2="1.037" y2="1.498" gradientUnits="objectBoundingBox"><stop offset="0" stop-color="#1173ff"/><stop offset="1" stop-color="#00439f"/></linearGradient><filter id="b" x="-100.5" y="-27.5" width="1193" height="405" filterUnits="userSpaceOnUse"><feOffset dy="3" input="SourceAlpha"/><feGaussianBlur stdDeviation="33.5" result="c"/><feFlood flood-opacity="0.02"/><feComposite operator="in" in2="c"/><feComposite in="SourceGraphic"/></filter><clipPath id="d"><g class="r" transform="matrix(1, 0, 0, 1, 0, 0)"><rect class="a" width="992" height="204" rx="8" transform="translate(372 227.5)"/></g></clipPath><clipPath id="e"><path class="b" d="M342.355,287.515c-1.643,0-1.834.031-1.826,0l.416-122.491c0-.775-.048-.654-.048-92.565H627.451l.038,215.047Z" transform="translate(-340.897 -72.459)"/></clipPath></defs><g transform="translate(-372 -192.5)"><g class="c" transform="translate(0 35)"><g class="d" transform="translate(4941 5690.514)"><g transform="translate(-3712.082 -5365.319)"><path class="e" d="M657.56,321.9s-41.1-8.125-52.565-36.8,30.464-50.176,52.565-34.78C681.206,266.789,657.56,321.9,657.56,321.9Z" transform="translate(-603.045 -245.189)"/><g transform="translate(18.974 4.13)"><path class="e" d="M676.345,395.992a.745.745,0,0,1-.735-.635c-3.937-26.632-19.806-64.949-32.424-92.4-13.685-29.771-26.6-53.531-26.728-53.767a.743.743,0,1,1,1.306-.711c.13.236,13.067,24.041,26.773,53.857,12.66,27.542,28.583,66,32.546,92.805a.744.744,0,0,1-.627.845A.716.716,0,0,1,676.345,395.992Z" transform="translate(-616.366 -248.088)"/></g></g><g transform="translate(-3707.229 -5350.786)"><path class="f" d="M654.571,314.791a.743.743,0,0,1-.655-.392c-17.874-33.295-46.9-57.449-47.194-57.69a.743.743,0,1,1,.946-1.147c.294.242,29.54,24.573,47.558,58.133a.743.743,0,0,1-.655,1.1Z" transform="translate(-606.452 -255.392)"/></g><g transform="translate(-3711.046 -5328.812)"><path class="f" d="M656.521,310.627a.743.743,0,0,1-.567-.262,142.714,142.714,0,0,0-35.29-30.184,88.428,88.428,0,0,0-16.372-7.908.744.744,0,0,1,.45-1.419,88.167,88.167,0,0,1,16.633,8.019A144.169,144.169,0,0,1,657.087,309.4a.743.743,0,0,1-.086,1.048A.735.735,0,0,1,656.521,310.627Z" transform="translate(-603.772 -270.819)"/></g><g transform="translate(-3669.607 -5364.405)"><path class="f" d="M640.558,312.5a.745.745,0,0,1-.7-.5c-10.02-29.408-6.334-65.148-6.3-65.505a.743.743,0,0,1,1.479.158c-.038.355-3.688,35.777,6.225,64.867a.743.743,0,0,1-.7.984Z" transform="translate(-632.865 -245.831)"/></g><g transform="translate(-3661.581 -5352.458)"><path class="f" d="M640.688,314.766a.745.745,0,0,1-.734-.624,103.513,103.513,0,0,1,1.807-43.261c2.732-10.274,6.148-16.06,6.292-16.3a.744.744,0,0,1,1.278.762,68.794,68.794,0,0,0-6.149,15.981,102.053,102.053,0,0,0-1.759,42.577.745.745,0,0,1-.614.855A.885.885,0,0,1,640.688,314.766Z" transform="translate(-638.5 -254.218)"/></g><g transform="translate(-3630.702 -5356.723)"><g transform="translate(8.583)"><path class="e" d="M674.11,326.825s41.5-5.678,54.652-33.621-27.442-51.891-50.416-37.831C653.767,270.417,674.11,326.825,674.11,326.825Z" transform="translate(-666.205 -251.225)"/></g><g transform="translate(0 5.209)"><path class="e" d="M660.922,390.672h-.009a.744.744,0,0,1-.735-.752c.164-13.715,3.155-29.338,8.891-46.436A305.658,305.658,0,0,1,687.9,300.013a400.187,400.187,0,0,1,27.157-44.825.743.743,0,1,1,1.2.873A398.724,398.724,0,0,0,689.2,300.72c-12.361,23.739-27.173,58.486-27.539,89.217A.743.743,0,0,1,660.922,390.672Z" transform="translate(-660.179 -254.882)"/></g></g><g transform="translate(-3613.209 -5340.292)"><path class="f" d="M673.2,319.252a.743.743,0,0,1-.632-1.134c19.971-32.434,50.608-54.992,50.914-55.216a.744.744,0,0,1,.877,1.2c-.3.222-30.711,22.616-50.525,54.794A.745.745,0,0,1,673.2,319.252Z" transform="translate(-672.46 -262.76)"/></g><g transform="translate(-3614.16 -5318.13)"><path class="f" d="M672.535,314.981a.743.743,0,0,1-.537-1.258,144.2,144.2,0,0,1,37.457-28.362,88.013,88.013,0,0,1,17.08-7.019.743.743,0,0,1,.365,1.442,88.61,88.61,0,0,0-16.812,6.925,142.74,142.74,0,0,0-37.015,28.043A.739.739,0,0,1,672.535,314.981Z" transform="translate(-671.792 -278.319)"/></g><g transform="translate(-3610.034 -5356.156)"><path class="f" d="M675.432,317.813a.745.745,0,0,1-.688-1.026c11.616-28.453,10.069-64.03,10.053-64.386a.744.744,0,1,1,1.486-.07c.017.359,1.581,36.255-10.161,65.018A.746.746,0,0,1,675.432,317.813Z" transform="translate(-674.689 -251.622)"/></g><g transform="translate(-3617.39 -5345.222)"><path class="f" d="M674.764,320.217a.823.823,0,0,1-.165-.018.745.745,0,0,1-.561-.89A102.07,102.07,0,0,0,674.8,276.7a68.789,68.789,0,0,0-5.192-16.319.744.744,0,0,1,1.32-.685c.13.251,3.2,6.227,5.316,16.645a103.512,103.512,0,0,1-.758,43.294A.743.743,0,0,1,674.764,320.217Z" transform="translate(-669.525 -259.299)"/></g><g transform="translate(-3665.4 -5415.798)"><path class="e" d="M671.022,290.355s-35.166-22.764-35.2-53.646,46.879-35.329,61.708-12.844C713.393,247.923,671.022,290.355,671.022,290.355Z" transform="translate(-635.819 -209.75)"/><g transform="translate(28.736 0.25)"><path class="e" d="M657.545,369.355a.791.791,0,0,1-.171-.02.745.745,0,0,1-.553-.9c6.2-26.2,5.652-67.665,4.1-97.84-1.687-32.722-4.886-59.574-4.918-59.842a.744.744,0,0,1,1.477-.177c.031.268,3.236,27.17,4.927,59.942,1.561,30.272,2.111,71.894-4.134,98.26A.744.744,0,0,1,657.545,369.355Z" transform="translate(-655.993 -209.925)"/></g></g><g transform="translate(-3653.634 -5411.114)"><path class="f" d="M667.386,285.863a.743.743,0,0,1-.738-.659c-4.276-37.547-22.3-70.733-22.477-71.064a.743.743,0,1,1,1.3-.715c.184.333,18.342,33.765,22.652,71.61a.746.746,0,0,1-.655.823A.842.842,0,0,1,667.386,285.863Z" transform="translate(-644.079 -213.038)"/></g><g transform="translate(-3665.315 -5392.114)"><path class="f" d="M670.739,282.718a.746.746,0,0,1-.705-.507,142.7,142.7,0,0,0-21.6-41.106A88.629,88.629,0,0,0,636.15,227.7a.744.744,0,0,1,.943-1.151,88.236,88.236,0,0,1,12.482,13.608,144.236,144.236,0,0,1,21.87,41.583.744.744,0,0,1-.469.943A.763.763,0,0,1,670.739,282.718Z" transform="translate(-635.878 -226.377)"/></g><g transform="translate(-3631.325 -5409.579)"><path class="f" d="M660.486,278.475h-.038a.744.744,0,0,1-.7-.781c1.581-31.027,18.24-62.863,18.409-63.181a.744.744,0,0,1,1.315.7c-.167.315-16.674,31.869-18.238,62.561A.744.744,0,0,1,660.486,278.475Z" transform="translate(-659.741 -214.116)"/></g><g transform="translate(-3631.139 -5392.648)"><path class="f" d="M660.617,279.772a.7.7,0,0,1-.161-.019.744.744,0,0,1-.567-.886,104.931,104.931,0,0,1,17.743-39.706c6.366-8.626,11.7-12.828,11.925-13a.743.743,0,1,1,.914,1.172,70.757,70.757,0,0,0-11.678,12.761,103.441,103.441,0,0,0-17.452,39.093A.743.743,0,0,1,660.617,279.772Z" transform="translate(-659.871 -226.003)"/></g><g transform="translate(-3676.688 -5264.728)"><path class="e" d="M717.353,320.422l-1.226,3.253-.775,2.061-2.223,5.9-.778,2.062-2.285,6.062-.773,2.058-9.8,26.013H645.973l-9.8-26.013-.773-2.058-2.285-6.062-.778-2.062-2.223-5.9-.773-2.061-1.228-3.253a3.408,3.408,0,0,1,3.189-4.611h82.859A3.41,3.41,0,0,1,717.353,320.422Z" transform="translate(-627.894 -315.811)"/></g><g transform="translate(-3675.239 -5256.864)"><path class="f" d="M715.694,321.331l-.774,2.061H629.685l-.774-2.061Z" transform="translate(-628.911 -321.331)"/><g transform="translate(2.998 7.965)"><path class="f" d="M711.8,326.923l-.777,2.061H631.794l-.777-2.061Z" transform="translate(-631.016 -326.923)"/></g><g transform="translate(6.06 16.089)"><path class="f" d="M707.829,332.627l-.774,2.058H633.94l-.774-2.058Z" transform="translate(-633.166 -332.627)"/></g></g></g><g class="d" transform="translate(4702 5719.514)"><g transform="translate(-3712.082 -5365.319)"><path class="e" d="M657.56,321.9s-41.1-8.125-52.565-36.8,30.464-50.176,52.565-34.78C681.206,266.789,657.56,321.9,657.56,321.9Z" transform="translate(-603.045 -245.189)"/><g transform="translate(18.974 4.13)"><path class="e" d="M676.345,395.992a.745.745,0,0,1-.735-.635c-3.937-26.632-19.806-64.949-32.424-92.4-13.685-29.771-26.6-53.531-26.728-53.767a.743.743,0,1,1,1.306-.711c.13.236,13.067,24.041,26.773,53.857,12.66,27.542,28.583,66,32.546,92.805a.744.744,0,0,1-.627.845A.716.716,0,0,1,676.345,395.992Z" transform="translate(-616.366 -248.088)"/></g></g><g transform="translate(-3707.229 -5350.786)"><path class="f" d="M654.571,314.791a.743.743,0,0,1-.655-.392c-17.874-33.295-46.9-57.449-47.194-57.69a.743.743,0,1,1,.946-1.147c.294.242,29.54,24.573,47.558,58.133a.743.743,0,0,1-.655,1.1Z" transform="translate(-606.452 -255.392)"/></g><g transform="translate(-3711.046 -5328.812)"><path class="f" d="M656.521,310.627a.743.743,0,0,1-.567-.262,142.714,142.714,0,0,0-35.29-30.184,88.428,88.428,0,0,0-16.372-7.908.744.744,0,0,1,.45-1.419,88.167,88.167,0,0,1,16.633,8.019A144.169,144.169,0,0,1,657.087,309.4a.743.743,0,0,1-.086,1.048A.735.735,0,0,1,656.521,310.627Z" transform="translate(-603.772 -270.819)"/></g><g transform="translate(-3669.607 -5364.405)"><path class="f" d="M640.558,312.5a.745.745,0,0,1-.7-.5c-10.02-29.408-6.334-65.148-6.3-65.505a.743.743,0,0,1,1.479.158c-.038.355-3.688,35.777,6.225,64.867a.743.743,0,0,1-.7.984Z" transform="translate(-632.865 -245.831)"/></g><g transform="translate(-3661.581 -5352.458)"><path class="f" d="M640.688,314.766a.745.745,0,0,1-.734-.624,103.513,103.513,0,0,1,1.807-43.261c2.732-10.274,6.148-16.06,6.292-16.3a.744.744,0,0,1,1.278.762,68.794,68.794,0,0,0-6.149,15.981,102.053,102.053,0,0,0-1.759,42.577.745.745,0,0,1-.614.855A.885.885,0,0,1,640.688,314.766Z" transform="translate(-638.5 -254.218)"/></g><g transform="translate(-3630.702 -5356.723)"><g transform="translate(8.583)"><path class="e" d="M674.11,326.825s41.5-5.678,54.652-33.621-27.442-51.891-50.416-37.831C653.767,270.417,674.11,326.825,674.11,326.825Z" transform="translate(-666.205 -251.225)"/></g><g transform="translate(0 5.209)"><path class="e" d="M660.922,390.672h-.009a.744.744,0,0,1-.735-.752c.164-13.715,3.155-29.338,8.891-46.436A305.658,305.658,0,0,1,687.9,300.013a400.187,400.187,0,0,1,27.157-44.825.743.743,0,1,1,1.2.873A398.724,398.724,0,0,0,689.2,300.72c-12.361,23.739-27.173,58.486-27.539,89.217A.743.743,0,0,1,660.922,390.672Z" transform="translate(-660.179 -254.882)"/></g></g><g transform="translate(-3613.209 -5340.292)"><path class="f" d="M673.2,319.252a.743.743,0,0,1-.632-1.134c19.971-32.434,50.608-54.992,50.914-55.216a.744.744,0,0,1,.877,1.2c-.3.222-30.711,22.616-50.525,54.794A.745.745,0,0,1,673.2,319.252Z" transform="translate(-672.46 -262.76)"/></g><g transform="translate(-3614.16 -5318.13)"><path class="f" d="M672.535,314.981a.743.743,0,0,1-.537-1.258,144.2,144.2,0,0,1,37.457-28.362,88.013,88.013,0,0,1,17.08-7.019.743.743,0,0,1,.365,1.442,88.61,88.61,0,0,0-16.812,6.925,142.74,142.74,0,0,0-37.015,28.043A.739.739,0,0,1,672.535,314.981Z" transform="translate(-671.792 -278.319)"/></g><g transform="translate(-3610.034 -5356.156)"><path class="f" d="M675.432,317.813a.745.745,0,0,1-.688-1.026c11.616-28.453,10.069-64.03,10.053-64.386a.744.744,0,1,1,1.486-.07c.017.359,1.581,36.255-10.161,65.018A.746.746,0,0,1,675.432,317.813Z" transform="translate(-674.689 -251.622)"/></g><g transform="translate(-3617.39 -5345.222)"><path class="f" d="M674.764,320.217a.823.823,0,0,1-.165-.018.745.745,0,0,1-.561-.89A102.07,102.07,0,0,0,674.8,276.7a68.789,68.789,0,0,0-5.192-16.319.744.744,0,0,1,1.32-.685c.13.251,3.2,6.227,5.316,16.645a103.512,103.512,0,0,1-.758,43.294A.743.743,0,0,1,674.764,320.217Z" transform="translate(-669.525 -259.299)"/></g><g transform="translate(-3665.4 -5415.798)"><path class="e" d="M671.022,290.355s-35.166-22.764-35.2-53.646,46.879-35.329,61.708-12.844C713.393,247.923,671.022,290.355,671.022,290.355Z" transform="translate(-635.819 -209.75)"/><g transform="translate(28.736 0.25)"><path class="e" d="M657.545,369.355a.791.791,0,0,1-.171-.02.745.745,0,0,1-.553-.9c6.2-26.2,5.652-67.665,4.1-97.84-1.687-32.722-4.886-59.574-4.918-59.842a.744.744,0,0,1,1.477-.177c.031.268,3.236,27.17,4.927,59.942,1.561,30.272,2.111,71.894-4.134,98.26A.744.744,0,0,1,657.545,369.355Z" transform="translate(-655.993 -209.925)"/></g></g><g transform="translate(-3653.634 -5411.114)"><path class="f" d="M667.386,285.863a.743.743,0,0,1-.738-.659c-4.276-37.547-22.3-70.733-22.477-71.064a.743.743,0,1,1,1.3-.715c.184.333,18.342,33.765,22.652,71.61a.746.746,0,0,1-.655.823A.842.842,0,0,1,667.386,285.863Z" transform="translate(-644.079 -213.038)"/></g><g transform="translate(-3665.315 -5392.114)"><path class="f" d="M670.739,282.718a.746.746,0,0,1-.705-.507,142.7,142.7,0,0,0-21.6-41.106A88.629,88.629,0,0,0,636.15,227.7a.744.744,0,0,1,.943-1.151,88.236,88.236,0,0,1,12.482,13.608,144.236,144.236,0,0,1,21.87,41.583.744.744,0,0,1-.469.943A.763.763,0,0,1,670.739,282.718Z" transform="translate(-635.878 -226.377)"/></g><g transform="translate(-3631.325 -5409.579)"><path class="f" d="M660.486,278.475h-.038a.744.744,0,0,1-.7-.781c1.581-31.027,18.24-62.863,18.409-63.181a.744.744,0,0,1,1.315.7c-.167.315-16.674,31.869-18.238,62.561A.744.744,0,0,1,660.486,278.475Z" transform="translate(-659.741 -214.116)"/></g><g transform="translate(-3631.139 -5392.648)"><path class="f" d="M660.617,279.772a.7.7,0,0,1-.161-.019.744.744,0,0,1-.567-.886,104.931,104.931,0,0,1,17.743-39.706c6.366-8.626,11.7-12.828,11.925-13a.743.743,0,1,1,.914,1.172,70.757,70.757,0,0,0-11.678,12.761,103.441,103.441,0,0,0-17.452,39.093A.743.743,0,0,1,660.617,279.772Z" transform="translate(-659.871 -226.003)"/></g><g transform="translate(-3676.688 -5264.728)"><path class="e" d="M717.353,320.422l-1.226,3.253-.775,2.061-2.223,5.9-.778,2.062-2.285,6.062-.773,2.058-9.8,26.013H645.973l-9.8-26.013-.773-2.058-2.285-6.062-.778-2.062-2.223-5.9-.773-2.061-1.228-3.253a3.408,3.408,0,0,1,3.189-4.611h82.859A3.41,3.41,0,0,1,717.353,320.422Z" transform="translate(-627.894 -315.811)"/></g><g transform="translate(-3675.239 -5256.864)"><path class="f" d="M715.694,321.331l-.774,2.061H629.685l-.774-2.061Z" transform="translate(-628.911 -321.331)"/><g transform="translate(2.998 7.965)"><path class="f" d="M711.8,326.923l-.777,2.061H631.794l-.777-2.061Z" transform="translate(-631.016 -326.923)"/></g><g transform="translate(6.06 16.089)"><path class="f" d="M707.829,332.627l-.774,2.058H633.94l-.774-2.058Z" transform="translate(-633.166 -332.627)"/></g></g></g></g><g transform="translate(-95 13)"><g class="g" transform="translate(1032 179.5)"><rect class="q" width="311" height="210" rx="8"/><rect class="b" x="0.5" y="0.5" width="310" height="209" rx="7.5"/></g><g transform="translate(261.214 -221.991)"><g transform="translate(825 445)"><g transform="translate(87.253 7.083)"><g transform="translate(47.305 21.129)"><path class="h" d="M349.48,236.61a1.691,1.691,0,0,1-.01-.2c0-.142-.005-.33-.009-.572-.005-.516-.011-1.256-.02-2.212-.01-1.943-.025-4.766-.043-8.352-.021-7.179-.051-17.41-.086-29.677l.168.168-41.009.026h0l.2-.194c-.01,15.017-.019,29.089-.027,41.013l-.168-.168,29.679.085,8.351.044,2.211.019.572.01a1.688,1.688,0,0,1,.2.01,1.275,1.275,0,0,1-.181.009l-.553.01-2.179.019-8.313.044-29.786.086H308.3v-.169c-.008-11.923-.016-26-.026-41.013V195.4h.2l41.009.026h.169v.168c-.035,12.312-.065,22.579-.086,29.785-.019,3.569-.034,6.38-.043,8.314-.009.942-.016,1.671-.02,2.179,0,.235-.007.417-.009.554A1.321,1.321,0,0,1,349.48,236.61Z" transform="translate(-308.273 -195.403)"/></g><g transform="translate(47.499 10.439)"><path class="h" d="M349.546,233.006s.1-.081.313-.219l.94-.605,3.632-2.288,13.353-8.317-.07.125c-.013-10.7-.03-24.883-.048-40.4l.194.194h-.114l-40.425-.048.073-.019-13.765,7.756-3.767,2.1-.986.537c-.224.119-.344.171-.344.171s.105-.077.322-.208l.965-.574,3.728-2.166,13.7-7.869.033-.019h.04l40.425-.048h.31v.2c-.019,15.515-.035,29.693-.048,40.4v.082l-.07.043-13.422,8.207-3.673,2.22-.962.57C349.663,232.95,349.546,233.006,349.546,233.006Z" transform="translate(-308.533 -181.109)"/></g><g transform="translate(88.511 10.631)"><path class="h" d="M381.691,181.368c.055.093-4,2.561-9.059,5.513s-9.2,5.269-9.257,5.176,4-2.561,9.06-5.513S381.637,181.275,381.691,181.368Z" transform="translate(-363.374 -181.365)"/></g><g transform="translate(47.495 11.89)"><g transform="translate(0 48.736)"><path class="h" d="M310.477,248.244c.054.093-.339.419-.876.727s-1.016.483-1.07.39.339-.419.876-.727S310.423,248.151,310.477,248.244Z" transform="translate(-308.527 -248.219)"/></g><g transform="translate(3.892 46.503)"><path class="h" d="M315.681,245.257c.053.093-.339.419-.876.727s-1.016.483-1.069.39.339-.419.876-.727S315.627,245.164,315.681,245.257Z" transform="translate(-313.73 -245.232)"/></g><g transform="translate(7.783 44.269)"><path class="h" d="M320.884,242.27c.054.093-.339.419-.876.727s-1.016.483-1.069.39.338-.419.876-.727S320.831,242.177,320.884,242.27Z" transform="translate(-318.934 -242.245)"/></g><g transform="translate(11.674 42.035)"><path class="h" d="M326.088,239.283c.054.093-.339.419-.876.727s-1.016.483-1.07.39.339-.419.876-.727S326.034,239.19,326.088,239.283Z" transform="translate(-324.138 -239.258)"/></g><g transform="translate(15.566 39.801)"><path class="h" d="M331.292,236.3c.053.093-.339.419-.876.727s-1.016.483-1.069.39.339-.419.876-.728S331.238,236.2,331.292,236.3Z" transform="translate(-329.341 -236.271)"/></g><g transform="translate(18.299 35.895)"><path class="h" d="M333.2,231.048c.108,0,.191.5.185,1.123s-.1,1.121-.2,1.12-.191-.5-.185-1.123S333.092,231.046,333.2,231.048Z" transform="translate(-332.996 -231.048)"/></g><g transform="translate(18.334 31.408)"><path class="h" d="M333.246,225.048c.108,0,.191.5.186,1.123s-.1,1.121-.2,1.12-.191-.5-.185-1.123S333.139,225.047,333.246,225.048Z" transform="translate(-333.043 -225.048)"/></g><g transform="translate(18.369 26.921)"><path class="h" d="M333.293,219.048c.108,0,.191.5.186,1.123s-.1,1.121-.2,1.12-.191-.5-.186-1.123S333.186,219.047,333.293,219.048Z" transform="translate(-333.09 -219.048)"/></g><g transform="translate(18.404 22.434)"><path class="h" d="M333.34,213.048c.108,0,.191.5.186,1.123s-.1,1.121-.2,1.12-.191-.5-.186-1.123S333.233,213.047,333.34,213.048Z" transform="translate(-333.137 -213.048)"/></g><g transform="translate(18.439 17.947)"><path class="h" d="M333.387,207.048c.108,0,.191.5.186,1.123s-.1,1.121-.2,1.12-.191-.5-.186-1.123S333.28,207.047,333.387,207.048Z" transform="translate(-333.184 -207.048)"/></g><g transform="translate(18.475 13.461)"><path class="h" d="M333.434,201.049c.108,0,.191.5.186,1.122s-.1,1.122-.2,1.12-.191-.5-.186-1.123S333.327,201.048,333.434,201.049Z" transform="translate(-333.231 -201.049)"/></g><g transform="translate(18.51 8.974)"><path class="h" d="M333.482,195.049c.107,0,.191.5.185,1.123s-.1,1.121-.2,1.12-.191-.5-.186-1.123S333.374,195.048,333.482,195.049Z" transform="translate(-333.278 -195.049)"/></g><g transform="translate(18.546 4.487)"><path class="h" d="M333.529,189.049c.108,0,.191.5.185,1.123s-.1,1.121-.2,1.12-.191-.5-.185-1.123S333.422,189.048,333.529,189.049Z" transform="translate(-333.326 -189.049)"/></g><g transform="translate(18.581)"><path class="h" d="M333.576,183.049c.108,0,.191.5.185,1.123s-.1,1.121-.2,1.12-.191-.5-.185-1.123S333.469,183.048,333.576,183.049Z" transform="translate(-333.373 -183.049)"/></g></g><g transform="translate(65.97 50.837)"><g transform="translate(38.614)"><path class="h" d="M384.867,235.323c0-.108.5-.194,1.122-.194s1.122.087,1.122.194-.5.2-1.122.2S384.867,235.431,384.867,235.323Z" transform="translate(-384.867 -235.129)"/></g><g transform="translate(34.127)"><path class="h" d="M378.867,235.323c0-.108.5-.194,1.122-.194s1.122.087,1.122.194-.5.2-1.122.2S378.867,235.431,378.867,235.323Z" transform="translate(-378.867 -235.129)"/></g><g transform="translate(29.64)"><path class="h" d="M372.867,235.323c0-.108.5-.194,1.122-.194s1.122.087,1.122.194-.5.2-1.122.2S372.867,235.431,372.867,235.323Z" transform="translate(-372.867 -235.129)"/></g><g transform="translate(25.153)"><path class="h" d="M366.867,235.323c0-.108.5-.194,1.122-.194s1.122.087,1.122.194-.5.2-1.122.2S366.867,235.431,366.867,235.323Z" transform="translate(-366.867 -235.129)"/></g><g transform="translate(20.666)"><path class="h" d="M360.867,235.323c0-.108.5-.194,1.122-.194s1.122.087,1.122.194-.5.2-1.122.2S360.867,235.431,360.867,235.323Z" transform="translate(-360.867 -235.129)"/></g><g transform="translate(16.179)"><path class="h" d="M354.867,235.323c0-.108.5-.194,1.122-.194s1.122.087,1.122.194-.5.2-1.122.2S354.867,235.431,354.867,235.323Z" transform="translate(-354.867 -235.129)"/></g><g transform="translate(11.692)"><path class="h" d="M348.867,235.323c0-.108.5-.194,1.122-.194s1.122.087,1.122.194-.5.2-1.122.2S348.867,235.431,348.867,235.323Z" transform="translate(-348.867 -235.129)"/></g><g transform="translate(7.205)"><path class="h" d="M342.867,235.323c0-.108.5-.194,1.122-.194s1.122.087,1.122.194-.5.2-1.122.2S342.867,235.431,342.867,235.323Z" transform="translate(-342.867 -235.129)"/></g><g transform="translate(2.718)"><path class="h" d="M336.867,235.323c0-.108.5-.194,1.122-.194s1.122.087,1.122.194-.5.2-1.122.2S336.867,235.431,336.867,235.323Z" transform="translate(-336.867 -235.129)"/></g><path class="h" d="M333.232,235.323a.242.242,0,1,1,.238.2A.22.22,0,0,1,333.232,235.323Z" transform="translate(-333.232 -235.129)"/></g><g transform="translate(110.65 26.029)"><path class="h" d="M394.121,213.3a4.777,4.777,0,0,0,1.024-.047,3.175,3.175,0,0,0,2.125-1.6,4.277,4.277,0,0,0-.116-3.9,1.194,1.194,0,0,0-.8-.644,1.407,1.407,0,0,0-1.051.28,4.933,4.933,0,0,0-1.3,2.174,10.079,10.079,0,0,0-.583,2.784l-.379-.008c-.043-2.97-.065-5.564-.064-7.416q.01-1.3.017-2.174a3.538,3.538,0,0,1,.052-.786,3.49,3.49,0,0,1,.08.784q.038.868.095,2.172c.067,1.849.137,4.442.2,7.413l-.38-.008a10.216,10.216,0,0,1,.6-2.894,9.826,9.826,0,0,1,.561-1.267,3.2,3.2,0,0,1,.876-1.081,1.772,1.772,0,0,1,1.347-.34,1.555,1.555,0,0,1,1.042.832,4.52,4.52,0,0,1,.046,4.214,3.26,3.26,0,0,1-2.341,1.62,2.486,2.486,0,0,1-.788-.016C394.206,213.345,394.118,213.31,394.121,213.3Z" transform="translate(-392.978 -201.956)"/></g><g transform="translate(83.753)"><path class="h" d="M365.168,173.1c.007.006-.021.058-.094.144a1.313,1.313,0,0,1-.4.3,1.635,1.635,0,0,1-.788.168,1.534,1.534,0,0,1-1.007-.423,3.071,3.071,0,0,1-.675-1.143c-.17-.438-.33-.919-.475-1.439a16.084,16.084,0,0,1-.569-3.534l.365-.024a13.42,13.42,0,0,1-.134,4.678,4.233,4.233,0,0,1-1.452,2.385,1.82,1.82,0,0,1-1.369.3,1.692,1.692,0,0,1-1.07-.817,4.6,4.6,0,0,1,2.215-6.24,3.869,3.869,0,0,1,.751-.255.69.69,0,0,1,.275-.032c.01.034-.365.11-.959.423a4.642,4.642,0,0,0-1.952,1.965,4.568,4.568,0,0,0-.485,1.849,3.852,3.852,0,0,0,.46,2.1,1.331,1.331,0,0,0,.839.642,1.453,1.453,0,0,0,1.08-.255,3.91,3.91,0,0,0,1.29-2.171,13.5,13.5,0,0,0,.146-4.545l.365-.024a16.635,16.635,0,0,0,.5,3.471c.131.512.276.989.429,1.425a2.909,2.909,0,0,0,.581,1.077,1.467,1.467,0,0,0,1.588.305A2.817,2.817,0,0,0,365.168,173.1Z" transform="translate(-357.011 -167.15)"/></g><g transform="translate(0.189 51.761)"><path class="h" d="M267.934,236.364a1.015,1.015,0,0,1,.037.224l.069.661c.053.609.128,1.461.222,2.546.168,2.211.428,5.416.443,9.39a53.4,53.4,0,0,1-1.583,13.845,35.242,35.242,0,0,1-3,7.689,30.291,30.291,0,0,1-5.341,7.063c-2.132,2.161-4.346,4.123-6.2,6.278a25.528,25.528,0,0,0-4.255,6.934,39.812,39.812,0,0,0-2.749,13.528c-.168,3.955.008,7.165.1,9.379.051,1.087.091,1.941.12,2.551.01.274.017.493.023.664a1,1,0,0,1-.005.227,1.013,1.013,0,0,1-.034-.225c-.016-.171-.037-.388-.062-.661-.046-.609-.111-1.463-.192-2.548a92.156,92.156,0,0,1-.225-9.4A39.556,39.556,0,0,1,248,290.856a25.74,25.74,0,0,1,4.3-7.045c1.869-2.184,4.089-4.155,6.207-6.3a30.074,30.074,0,0,0,5.283-6.971,35.2,35.2,0,0,0,2.985-7.6,54.093,54.093,0,0,0,1.653-13.753c.02-3.961-.2-7.165-.319-9.379-.064-1.087-.114-1.94-.149-2.55-.013-.274-.023-.493-.031-.664A1,1,0,0,1,267.934,236.364Z" transform="translate(-245.269 -236.364)"/></g><g transform="translate(9.406 56.754)"><path class="h" d="M262.679,250.8a12.335,12.335,0,0,1-.932-2c-.529-1.253-1.235-3-1.992-4.927l-.118-.3.351.022a21,21,0,0,0-1.867,4.681c-.331,1.245-.448,2.035-.508,2.027a7.232,7.232,0,0,1,.245-2.089,17.776,17.776,0,0,1,1.789-4.8l.2-.365.152.387.119.3c.758,1.932,1.422,3.69,1.886,4.969A12.391,12.391,0,0,1,262.679,250.8Z" transform="translate(-257.595 -243.041)"/></g><g transform="translate(10.657 57.202)"><path class="h" d="M259.295,321.761c-.108,0,.112-17.493.491-39.062s.773-39.06.881-39.059-.113,17.489-.492,39.066S259.4,321.762,259.295,321.761Z" transform="translate(-259.267 -243.64)"/></g><g transform="translate(0 94.697)"><path class="h" d="M272.328,293.973c0,.108-6.114.2-13.655.2s-13.656-.087-13.656-.2,6.113-.194,13.656-.194S272.328,293.866,272.328,293.973Z" transform="translate(-245.017 -293.779)"/></g><g transform="translate(23.618 92.306)"><path class="h" d="M277.26,296.171a13.34,13.34,0,0,1,2.036-1c1.28-.572,3.06-1.339,5.047-2.17l.014.364-.228-.076c-2.1-.7-3.987-1.346-5.35-1.835a13.908,13.908,0,0,1-2.18-.868,14.015,14.015,0,0,1,2.267.607c1.384.422,3.289,1.031,5.386,1.727l.228.076.494.164-.481.2c-1.988.829-3.786,1.555-5.093,2.062A13.316,13.316,0,0,1,277.26,296.171Z" transform="translate(-276.599 -290.582)"/></g><g transform="translate(26.759 84.161)"><path class="h" d="M281.423,285.012c.019.021-.044.116-.18.273l-.443.512.324-.617c.256-.488.918-1.526,1.732-2.7a16.066,16.066,0,0,1,2.167-2.786,16.161,16.161,0,0,1-1.847,3.008c-.814,1.175-1.553,2.16-1.92,2.571l-.12-.1C281.3,285.045,281.4,284.991,281.423,285.012Z" transform="translate(-280.799 -279.69)"/></g><g transform="translate(27.429 84.118)"><path class="h" d="M286.332,284.472a28.9,28.9,0,0,1-4.633-4.836,28.9,28.9,0,0,1,4.633,4.836Z" transform="translate(-281.695 -279.632)"/></g><g transform="translate(4.713 87.763)"><path class="h" d="M253.828,284.639c-.013-.009.187-.165.585-.082a1.468,1.468,0,0,1,1.063,1.188,4.37,4.37,0,0,1-.417,2.342,2.853,2.853,0,0,1-.864,1.161,1.8,1.8,0,0,1-1.55.351,1.847,1.847,0,0,1-1.158-1.089,2.641,2.641,0,0,1-.121-1.449,3.545,3.545,0,0,1,1.119-2.1,1.874,1.874,0,0,1,1.549-.418c.383.087.535.258.523.27-.016.031-.194-.087-.545-.12a1.8,1.8,0,0,0-1.347.478,3.387,3.387,0,0,0-.944,1.951,2.32,2.32,0,0,0,.119,1.243,1.482,1.482,0,0,0,.911.861,1.433,1.433,0,0,0,1.216-.281,2.548,2.548,0,0,0,.765-1,4.334,4.334,0,0,0,.472-2.148,1.331,1.331,0,0,0-.834-1.09A1.933,1.933,0,0,0,253.828,284.639Z" transform="translate(-251.32 -284.507)"/></g><g transform="translate(1.194 59.414)"><path class="h" d="M248.86,249.686c-.087.064-.658-.576-1.276-1.427a4.838,4.838,0,0,1-.96-1.656c.087-.063.658.576,1.276,1.428A4.839,4.839,0,0,1,248.86,249.686Z" transform="translate(-246.613 -246.598)"/></g><g transform="translate(1.797 58.578)"><path class="h" d="M247.431,253.391a45.838,45.838,0,0,1,2.957-7.91,45.836,45.836,0,0,1-2.957,7.91Z" transform="translate(-247.42 -245.48)"/></g><g transform="translate(42.134 91.965)"><path class="h" d="M305.331,294.566a22.847,22.847,0,0,1-3.967-4.437,22.842,22.842,0,0,1,3.967,4.437Z" transform="translate(-301.359 -290.125)"/></g><g transform="translate(45.219 91.263)"><path class="h" d="M305.494,300.542a7.4,7.4,0,0,1,.353-1.739c.277-1.059.712-2.508,1.273-4.082s1.142-2.97,1.6-3.966a7.426,7.426,0,0,1,.827-1.569,8.812,8.812,0,0,1-.573,1.676c-.39,1.019-.927,2.424-1.486,3.99s-1.032,2.994-1.375,4.029A8.782,8.782,0,0,1,305.494,300.542Z" transform="translate(-305.484 -289.186)"/></g><g transform="translate(53.078 94.268)"><path class="h" d="M322.145,293.4a24.334,24.334,0,0,1-6.152,0,24.433,24.433,0,0,1,6.152,0Z" transform="translate(-315.993 -293.205)"/></g><g transform="translate(52.819 99.294)"><path class="h" d="M322.751,300.12a32.549,32.549,0,0,1-7.105,0,32.554,32.554,0,0,1,7.105,0Z" transform="translate(-315.646 -299.926)"/></g><g transform="translate(63.708 95.16)"><path class="h" d="M336.019,301.087a50.5,50.5,0,0,1-5.808-6.686,50.5,50.5,0,0,1,5.808,6.686Z" transform="translate(-330.207 -294.398)"/></g><g transform="translate(63.073 94.205)"><path class="h" d="M335.4,293.122a8.248,8.248,0,0,1-.82,1.541l-2.137,3.614-2.128,3.621a8.137,8.137,0,0,1-.951,1.464,7.46,7.46,0,0,1,.71-1.6c.488-.96,1.2-2.269,2.033-3.685s1.635-2.672,2.239-3.564A7.406,7.406,0,0,1,335.4,293.122Z" transform="translate(-329.358 -293.121)"/></g><g transform="translate(70.011 84.241)"><path class="h" d="M343.536,287.695c-.011.091-1.832-.258-4.54-.137l-.328.014.176-.279,2.174-3.433c.607-1,1.438-1.936,1.219-2.884a1.05,1.05,0,0,0-.851-.835,1.77,1.77,0,0,0-1.138.168,3.59,3.59,0,0,0-1.223,1.274,2.668,2.668,0,0,1-.387.559,2.055,2.055,0,0,1,.255-.635,3.416,3.416,0,0,1,1.223-1.44,2.024,2.024,0,0,1,1.333-.244,1.388,1.388,0,0,1,1.139,1.073,2.4,2.4,0,0,1-.314,1.684c-.283.512-.609.981-.927,1.489l-2.212,3.409-.151-.264a19.3,19.3,0,0,1,3.317.2A4.584,4.584,0,0,1,343.536,287.695Z" transform="translate(-338.635 -279.797)"/></g><g transform="translate(93.116 77.677)"><path class="h" d="M370.213,279.782c.022-.029.251.177.75.371a3.043,3.043,0,0,0,2.178.028A2.533,2.533,0,0,0,374.7,277.6a2.038,2.038,0,0,0-.966-1.522,2.079,2.079,0,0,0-1.909-.21l-.139-.363.239-.079a4.931,4.931,0,0,0,1.892-.975,1.827,1.827,0,0,0,.63-1.69,1.887,1.887,0,0,0-1.068-1.27,2.336,2.336,0,0,0-1.507-.1,3.428,3.428,0,0,0-1.839,1.3c-.333.441-.469.723-.5.708a2.187,2.187,0,0,1,.374-.795,3.425,3.425,0,0,1,1.891-1.476,2.594,2.594,0,0,1,1.706.064,2.205,2.205,0,0,1,1.291,1.487,2.183,2.183,0,0,1-.716,2.045,5.218,5.218,0,0,1-2.033,1.069l-.241.079-.138-.363a2.51,2.51,0,0,1,3.386,2.052,2.81,2.81,0,0,1-1.816,2.868,3.078,3.078,0,0,1-2.333-.145,2.64,2.64,0,0,1-.539-.344C370.257,279.848,370.2,279.793,370.213,279.782Z" transform="translate(-369.532 -271.02)"/></g><g transform="translate(101.098 76.27)"><path class="h" d="M384.283,270.168a.489.489,0,0,1,.316-.117,1.019,1.019,0,0,1,.84.467,1.176,1.176,0,0,1,.233.684,1.746,1.746,0,0,1-.224.821,6.1,6.1,0,0,1-1.347,1.492,18.109,18.109,0,0,1-1.914,1.466,2.448,2.448,0,0,0-1.357,2.05,2.331,2.331,0,0,0,1.624,2.092,3.258,3.258,0,0,0,2.937-.385,1.921,1.921,0,0,0,.817-1.217,1.8,1.8,0,0,0-.387-1.36,4.852,4.852,0,0,0-2.475-1.478,5.7,5.7,0,0,1-2.454-1.351,2.525,2.525,0,0,1-.64-1.148,1.974,1.974,0,0,1,.118-1.214,2.855,2.855,0,0,1,1.449-1.414,4.861,4.861,0,0,1,1.471-.369,9.2,9.2,0,0,1,.948-.049,1.071,1.071,0,0,1,.331.021c0,.034-.454.058-1.258.178a5.023,5.023,0,0,0-1.4.416,2.653,2.653,0,0,0-1.287,1.322,1.857,1.857,0,0,0,.5,2.033,5.458,5.458,0,0,0,2.338,1.235,5.147,5.147,0,0,1,2.663,1.587,2.184,2.184,0,0,1,.464,1.651,2.3,2.3,0,0,1-.97,1.471,3.623,3.623,0,0,1-3.294.429,2.834,2.834,0,0,1-1.33-.955,2.617,2.617,0,0,1-.523-1.486,2.14,2.14,0,0,1,.485-1.424,4.618,4.618,0,0,1,1.045-.9,18.947,18.947,0,0,0,1.918-1.409,6.113,6.113,0,0,0,1.336-1.389,1.191,1.191,0,0,0,.056-1.314.959.959,0,0,0-.714-.473A2.408,2.408,0,0,0,384.283,270.168Z" transform="translate(-380.206 -269.138)"/></g><g transform="translate(108.237 78.922)"><path class="h" d="M394.225,277.036a4.571,4.571,0,0,1-1.308.278l-1.431.2a6.149,6.149,0,0,1-.879.076,1.051,1.051,0,0,1-.525-.147.725.725,0,0,1-.325-.517,1.93,1.93,0,0,1,.244-.977l.346-.78.606-1.311a4.622,4.622,0,0,1,.65-1.169,4.6,4.6,0,0,1-.4,1.277l-.529,1.344c-.107.258-.215.521-.325.789a1.7,1.7,0,0,0-.209.774c.024.216.217.324.485.337a7.054,7.054,0,0,0,.82-.052l1.44-.112A4.625,4.625,0,0,1,394.225,277.036Z" transform="translate(-389.752 -272.684)"/></g><g transform="translate(112.643 77.844)"><path class="h" d="M396.424,280.7a57.818,57.818,0,0,1-.734-9.454,57.835,57.835,0,0,1,.734,9.454Z" transform="translate(-395.643 -271.243)"/></g><g transform="translate(96.5 92.519)"><path class="h" d="M375.17,299.791a2.484,2.484,0,0,1,.12.829l-.207.007c-.132-1.284-.284-2.768-.458-4.465-.314-2.92-.657-5.277-.547-5.3a5.93,5.93,0,0,1,.387,1.52c.182.949.389,2.269.547,3.735a43.743,43.743,0,0,1,.278,4.5l-.208.007A2.483,2.483,0,0,1,375.17,299.791Z" transform="translate(-374.057 -290.866)"/></g><g transform="translate(101.335 91.643)"><path class="h" d="M385.413,289.72a16.677,16.677,0,0,1-4.891,1.38,16.674,16.674,0,0,1,4.891-1.38Z" transform="translate(-380.521 -289.695)"/></g><g transform="translate(101.166 92.618)"><path class="h" d="M380.3,298.89a4,4,0,0,1,.6.119,3.414,3.414,0,0,0,1.6-.151,3.133,3.133,0,0,0,1.781-1.474,2.458,2.458,0,0,0,.3-1.318,1.705,1.705,0,0,0-.626-1.229,1.577,1.577,0,0,0-1.554-.155,5.688,5.688,0,0,0-1.386.805l-.251.184-.028-.3a19.281,19.281,0,0,1-.042-3.167,4.289,4.289,0,0,1,.177-1.2c.092.005-.085,1.774.211,4.331l-.279-.12a5.741,5.741,0,0,1,1.467-.883,1.942,1.942,0,0,1,1.923.2,2.065,2.065,0,0,1,.767,1.509,2.771,2.771,0,0,1-.361,1.514,3.333,3.333,0,0,1-2.015,1.567,3.223,3.223,0,0,1-1.719.037A1.271,1.271,0,0,1,380.3,298.89Z" transform="translate(-380.296 -290.999)"/></g><g transform="translate(87.452 91.865)"><path class="h" d="M365.083,290.186a6.376,6.376,0,0,1-3.125,0,6.376,6.376,0,0,1,3.125,0Z" transform="translate(-361.958 -289.992)"/></g></g><g transform="translate(0 17.889)"><g transform="translate(6.166 11.665)"><path class="h" d="M136.782,270.175c-.108,0-.2-16.337-.2-36.486s.087-36.49.2-36.49.194,16.334.194,36.49S136.889,270.175,136.782,270.175Z" transform="translate(-136.587 -197.199)"/></g><g transform="translate(4.248 7.512)"><path class="h" d="M138.318,196.433a31.455,31.455,0,0,1-2.478-4.236l.348-.022-.038.089a32.221,32.221,0,0,1-2.119,4.542,32.466,32.466,0,0,1,1.76-4.693l.038-.09.159-.378.189.355A31.578,31.578,0,0,1,138.318,196.433Z" transform="translate(-134.023 -191.645)"/></g><g transform="translate(4.284 0.548)"><path class="h" d="M135.743,184.835c-.064.081-.666-.312-1.14-1.04s-.6-1.434-.5-1.461.38.574.825,1.247S135.816,184.751,135.743,184.835Z" transform="translate(-134.07 -182.333)"/></g><g transform="translate(4.797)"><path class="h" d="M134.77,186.753a14.551,14.551,0,0,1,.93-2.6,14.535,14.535,0,0,1,1.06-2.551,12.075,12.075,0,0,1-1.989,5.152Z" transform="translate(-134.757 -181.6)"/></g><g transform="translate(1.125 16.694)"><path class="h" d="M129.857,208.507a22.1,22.1,0,0,0,.666-2.242,22.112,22.112,0,0,0,.051-2.339,4.183,4.183,0,0,1-.717,4.581Z" transform="translate(-129.846 -203.924)"/></g><g transform="translate(0 16.498)"><path class="h" d="M130.192,205.389c.042.017-.09.321-.555.429a1.092,1.092,0,1,1-.1-2.151c.472.064.633.353.593.374-.038.047-.243-.118-.6-.1a.8.8,0,1,0,.077,1.6C129.962,205.531,130.149,205.347,130.192,205.389Z" transform="translate(-128.342 -203.661)"/></g><g transform="translate(0.735 79.263)"><path class="h" d="M191.759,287.785c0,.108-13.978.2-31.216.2s-31.218-.087-31.218-.2,13.974-.194,31.218-.194S191.759,287.678,191.759,287.785Z" transform="translate(-129.325 -287.591)"/></g><g transform="translate(58.811 77.37)"><path class="h" d="M211.982,287.072a18.681,18.681,0,0,1-5-2,18.681,18.681,0,0,1,5,2Z" transform="translate(-206.984 -285.059)"/></g><g transform="translate(60.231 79.59)"><path class="h" d="M213.144,288.049a13.164,13.164,0,0,1-4.26,1.494,13.18,13.18,0,0,1,4.26-1.494Z" transform="translate(-208.883 -288.027)"/></g><g transform="translate(1.402 81.439)"><path class="h" d="M132.245,290.5a1.886,1.886,0,0,1,.8,1.3,2.8,2.8,0,0,1-.124,1.695,1.905,1.905,0,0,1-.628.845,1.06,1.06,0,0,1-1.18.046,2.214,2.214,0,0,1-.9-1.9,1.974,1.974,0,0,1,.693-1.564,1.55,1.55,0,0,1,1.095-.354c.277.028.4.125.395.143s-.151-.012-.4.008a1.543,1.543,0,0,0-.915.412,1.741,1.741,0,0,0-.512,1.351,1.925,1.925,0,0,0,.741,1.567.676.676,0,0,0,.763-.025,1.6,1.6,0,0,0,.516-.672,2.675,2.675,0,0,0,.184-1.5A4.666,4.666,0,0,0,132.245,290.5Z" transform="translate(-130.217 -290.501)"/></g><g transform="translate(52.574 82.113)"><path class="h" d="M200.337,291.552c-.022-.014.227-.132.526.123a.784.784,0,0,1,.262.618,1.26,1.26,0,0,1-.368.8c-.441.492-1.244.67-1.614,1.268a1.032,1.032,0,0,0,.007,1.008.987.987,0,0,0,.951.469.962.962,0,0,0,.819-.667,1.04,1.04,0,0,0-.2-1,2.662,2.662,0,0,0-.825-.656,1.3,1.3,0,0,1-.749-.765,1.041,1.041,0,0,1,.2-.872,1.248,1.248,0,0,1,.529-.386c.334-.123.532-.1.533-.077s-.185.061-.468.215a1.182,1.182,0,0,0-.418.375.831.831,0,0,0-.108.673c.119.494,1.045.565,1.588,1.27a1.4,1.4,0,0,1,.283,1.343,1.343,1.343,0,0,1-1.145.935,1.361,1.361,0,0,1-1.319-.669,1.389,1.389,0,0,1,.017-1.381,2.35,2.35,0,0,1,.93-.769,3.67,3.67,0,0,0,.8-.507,1.063,1.063,0,0,0,.347-.623.637.637,0,0,0-.153-.5C200.55,291.545,200.334,291.586,200.337,291.552Z" transform="translate(-198.644 -291.401)"/></g><g transform="translate(53.892 77.35)"><path class="h" d="M200.6,288.482a7.716,7.716,0,0,1,0-3.449,7.745,7.745,0,0,1,0,3.449Z" transform="translate(-200.406 -285.033)"/></g><g transform="translate(68.081 76.367)"><path class="h" d="M222.088,286.883a3.06,3.06,0,0,1-1.074.163l-1.168.07a.45.45,0,0,1-.264-.053.326.326,0,0,1-.139-.343.752.752,0,0,1,.241-.369l.519-.53a1.712,1.712,0,0,0,.628-1.1.7.7,0,0,0-.483-.726,1.193,1.193,0,0,0-.686.131c-.168.073-.266.114-.281.09s.053-.1.2-.221a1.165,1.165,0,0,1,.806-.272.984.984,0,0,1,.8,1,1.957,1.957,0,0,1-.7,1.355l-.524.523a.574.574,0,0,0-.163.2c.019,0-.067,0-.062.006s0,0,.008-.01a.291.291,0,0,0,.019-.041l.01,0a.338.338,0,0,0,.055,0l1.17.014A3.065,3.065,0,0,1,222.088,286.883Z" transform="translate(-219.379 -283.718)"/></g><g transform="translate(10.835 65.703)"><path class="h" d="M146.672,283.213a10.207,10.207,0,0,1-.049-1.072c-.013-.732-.032-1.695-.054-2.866-.038-2.426-.079-5.785-.087-9.622l.19.191-3.627,0c.387-.389.107-.105.194-.191v1.028q0,.513,0,1.016,0,1.007,0,1.976c-.006,1.287-.01,2.519-.016,3.678-.022,2.283-.04,4.278-.055,5.861l-.118-.119,2.639.066a9.645,9.645,0,0,1,.989.053,6.792,6.792,0,0,1-.918.053l-2.71.066-.118,0v-.122c-.015-1.582-.034-3.578-.055-5.861-.005-1.159-.01-2.391-.016-3.678q0-.968,0-1.976,0-.5,0-1.016v-1.028c.087-.087-.2.191.2-.2l3.627,0h.191v.19c-.009,3.917-.049,7.339-.087,9.754-.022,1.155-.04,2.1-.054,2.822A7.207,7.207,0,0,1,146.672,283.213Z" transform="translate(-142.831 -269.458)"/></g><g transform="translate(45.369 59.495)"><path class="h" d="M192.851,281.123a2.885,2.885,0,0,1-.025-.414c-.007-.3-.016-.679-.026-1.144-.013-1.032-.032-2.448-.055-4.191-.039-3.546-.079-8.457-.085-14.023l.192.192-3.627,0c.387-.389.107-.1.194-.189V262.9q0,.771,0,1.527c0,1.007,0,2,0,2.958-.007,1.923-.013,3.75-.019,5.447-.027,3.357-.049,6.2-.066,8.287l-.1-.1,2.653.058.716.025a1.5,1.5,0,0,1,.259.021,7.92,7.92,0,0,1-.915.046l-2.714.058h-.1v-.105c-.016-2.088-.04-4.93-.067-8.287-.005-1.7-.012-3.524-.018-5.447,0-.963,0-1.951-.005-2.958q0-.756,0-1.527v-1.547c.088-.088-.2.189.2-.2l3.627,0h.193v.192c-.006,5.647-.046,10.622-.085,14.159-.023,1.725-.043,3.126-.056,4.147-.01.448-.019.812-.026,1.1A1.737,1.737,0,0,1,192.851,281.123Z" transform="translate(-189.01 -261.157)"/></g><g transform="translate(19.565 54.63)"><path class="h" d="M158.345,279.479a4.225,4.225,0,0,1-.026-.513c-.007-.361-.015-.835-.026-1.426-.013-1.269-.033-3.041-.057-5.229-.021-4.44-.051-10.558-.084-17.465l.193.193h-3.627c.387-.389.107-.1.193-.188v3.916c0,1.282,0,2.537-.005,3.758-.007,2.439-.014,4.743-.021,6.866-.03,4.206-.055,7.685-.073,10.086l-.094-.094,2.669.053.707.022a1.583,1.583,0,0,1,.253.019.919.919,0,0,1-.219.019l-.685.022-2.724.053-.093,0v-.1c-.017-2.4-.043-5.88-.073-10.086-.007-2.123-.013-4.427-.021-6.866,0-1.221,0-2.476-.005-3.758q0-.961,0-1.944v-1.973c.087-.089-.2.188.2-.2l3.627,0h.194v.193c-.033,6.962-.063,13.129-.084,17.6-.024,2.169-.043,3.925-.057,5.184-.011.574-.019,1.033-.026,1.383A2.886,2.886,0,0,1,158.345,279.479Z" transform="translate(-154.504 -254.652)"/></g><g transform="translate(28.111 41.018)"><path class="h" d="M169.773,274.815a1.35,1.35,0,0,1-.013-.206c0-.153-.007-.344-.013-.581-.007-.533-.016-1.273-.027-2.213-.014-1.94-.034-4.7-.058-8.124-.021-6.873-.05-16.38-.082-27.045l.194.194h-3.626c.385-.389.107-.1.193-.185v3.157q0,1.568,0,3.1c0,2.046,0,4.044-.007,5.981-.008,3.873-.016,7.506-.023,10.812-.037,6.573-.066,11.834-.084,15.1l-.079-.079,2.673.045.705.018a1.971,1.971,0,0,1,.25.016,1.15,1.15,0,0,1-.222.016l-.687.019-2.718.045h-.079v-.08c-.018-3.271-.047-8.532-.084-15.1-.007-3.306-.015-6.939-.024-10.812,0-1.938,0-3.935-.006-5.981q0-1.535,0-3.1,0-.785,0-1.577v-1.58c.087-.09-.2.185.2-.2h3.821v.194c-.033,10.721-.062,20.277-.083,27.186-.024,3.4-.043,6.149-.058,8.079-.011.921-.02,1.646-.027,2.169-.005.227-.01.41-.013.556A.818.818,0,0,1,169.773,274.815Z" transform="translate(-165.931 -236.45)"/></g><g transform="translate(36.864 14.754)"><path class="h" d="M181.479,265.958s-.009-.12-.013-.342-.008-.562-.014-.978c-.006-.873-.016-2.13-.028-3.742-.013-3.257-.034-7.944-.058-13.749-.02-11.613-.049-27.689-.081-45.623l.194.194h-3.626c.383-.388.106-.095.191-.176v2.8q0,1.4,0,2.791,0,2.776,0,5.486c0,3.611-.005,7.126-.007,10.521-.01,6.787-.019,13.092-.028,18.723-.045,11.226-.079,19.754-.1,24.1l-.06-.061,2.719.035.678.014a1.96,1.96,0,0,1,.232.011,1.358,1.358,0,0,1-.211.011l-.663.014-2.754.035h-.06v-.061c-.017-4.342-.052-12.87-.1-24.1-.008-5.632-.018-11.937-.028-18.723,0-3.394-.005-6.909-.007-10.521q0-2.708,0-5.486v-5.59c.089-.093-.2.176.2-.213h3.82v.194c-.032,17.99-.061,34.117-.081,45.767-.025,5.785-.044,10.458-.058,13.7-.012,1.593-.021,2.834-.028,3.7l-.013.953A2.627,2.627,0,0,1,181.479,265.958Z" transform="translate(-177.637 -201.329)"/></g></g><g transform="translate(62.034 0)"><path class="h" d="M250.731,160.641s.137.035.4.122.656.206,1.155.407a23.194,23.194,0,0,1,9.65,7.215,20.417,20.417,0,0,1,4.1,8.924,19.917,19.917,0,0,1-1.521,11.755,18.382,18.382,0,0,1-3.817,5.481,17.376,17.376,0,0,1-2.732,2.2c-.515.295-1.022.615-1.56.884-.547.249-1.081.543-1.658.74-4.563,1.816-9.818,1.891-15.033,1.39-2.623-.254-5.272-.633-7.958-1.05a48.456,48.456,0,0,1-8.063-1.87,20.452,20.452,0,0,1-7.214-4.055,16.022,16.022,0,0,1-2.635-3.118,16.818,16.818,0,0,1-1.682-3.644,19.147,19.147,0,0,1-.771-7.722,20.66,20.66,0,0,1,2.12-7.137,23.767,23.767,0,0,1,9.708-9.553,32.252,32.252,0,0,1,11.371-3.628,43.957,43.957,0,0,1,9.865-.061,64.156,64.156,0,0,1,7.353,1.2c2,.443,3.528.859,4.566,1.146l1.174.343c.264.08.4.131.4.131s-.139-.025-.407-.093l-1.185-.306c-1.042-.263-2.579-.654-4.577-1.072a66.235,66.235,0,0,0-7.341-1.134,44.207,44.207,0,0,0-9.809.117,32.07,32.07,0,0,0-11.25,3.638,23.471,23.471,0,0,0-9.545,9.434,20.337,20.337,0,0,0-2.069,7.009,18.781,18.781,0,0,0,.764,7.567,16.414,16.414,0,0,0,1.644,3.556,15.6,15.6,0,0,0,2.569,3.035,20.088,20.088,0,0,0,7.081,3.974,48.152,48.152,0,0,0,8,1.856c2.677.417,5.325.8,7.933,1.053,5.188.5,10.383.43,14.865-1.345a17.4,17.4,0,0,0,9.605-9.111,19.67,19.67,0,0,0,1.544-11.571,20.281,20.281,0,0,0-4-8.839,23.043,23.043,0,0,0-5.388-5.044,24.214,24.214,0,0,0-4.119-2.232c-.494-.211-.884-.337-1.139-.442S250.731,160.641,250.731,160.641Z" transform="translate(-211.293 -157.679)"/></g><g transform="translate(69.802 9.148)"><g transform="translate(0 6.654)"><path class="h" d="M227.218,191.265a3.189,3.189,0,0,1-.8.094c-.515.035-1.259.073-2.179.112l-.722.029a2.77,2.77,0,0,1-.832-.034.7.7,0,0,1-.411-.324,1.218,1.218,0,0,1-.132-.475l-.059-.894c-.071-1.226-.148-2.558-.229-3.955s-.167-2.728-.175-3.972a3.6,3.6,0,0,1,.412-1.745,2.417,2.417,0,0,1,1.2-1.022,4.894,4.894,0,0,1,2.2-.243,2.526,2.526,0,0,1,.793.143,4.262,4.262,0,0,1-.8.008,5.277,5.277,0,0,0-2.086.345,2.16,2.16,0,0,0-1.026.927,3.344,3.344,0,0,0-.335,1.594c.027,1.191.141,2.546.206,3.943s.137,2.73.2,3.957c.061.578-.067,1.308.341,1.405a2.7,2.7,0,0,0,.726.042l.723,0c.921,0,1.667,0,2.182.011A3.219,3.219,0,0,1,227.218,191.265Z" transform="translate(-221.681 -178.808)"/></g><g transform="translate(0.359 12.539)"><path class="h" d="M226.237,186.834a10.783,10.783,0,0,1-4.076.085,10.782,10.782,0,0,1,4.076-.085Z" transform="translate(-222.161 -186.678)"/></g><g transform="translate(8.426 10.638)"><path class="h" d="M239.148,184.381a18.918,18.918,0,0,1-3.1.155,19,19,0,0,1-3.1.035,14.772,14.772,0,0,1,6.2-.19Z" transform="translate(-232.949 -184.137)"/></g><g transform="translate(9.104 15.34)"><path class="h" d="M239.97,190.644a16.4,16.4,0,0,1-6.115-.15,46.193,46.193,0,0,1,6.115.15Z" transform="translate(-233.855 -190.424)"/></g><g transform="translate(22.271 10.891)"><path class="h" d="M260.868,191.953c-.029,0,.007-.424-.028-1.194a11.946,11.946,0,0,0-.589-3.219,3.3,3.3,0,0,0-1.131-1.849.991.991,0,0,0-1.072.075,2.6,2.6,0,0,0-.808,1.01,13.649,13.649,0,0,0-1,6.075l-.379-.017a25.837,25.837,0,0,0-.055-4.5,17.206,17.206,0,0,0-.261-1.81,2.315,2.315,0,0,0-.82-1.414,1.225,1.225,0,0,0-1.431-.04,2.163,2.163,0,0,0-.893,1.236,8.288,8.288,0,0,0-.28,1.555c-.059.52-.1,1.028-.127,1.523a26.266,26.266,0,0,0,0,2.79l-.3.019c-.085-2.2-.154-4-.2-5.318-.013-.592-.025-1.074-.034-1.453a2.33,2.33,0,0,1,.017-.509,2.254,2.254,0,0,1,.07.506c.03.378.067.858.114,1.449.083,1.312.2,3.113.335,5.3l-.3.019a25.335,25.335,0,0,1-.039-2.825c.021-.5.058-1.018.113-1.545a8.523,8.523,0,0,1,.283-1.627,2.53,2.53,0,0,1,1.042-1.445,1.724,1.724,0,0,1,.924-.273,1.615,1.615,0,0,1,.93.322,2.691,2.691,0,0,1,.973,1.635,17.2,17.2,0,0,1,.271,1.861,25.645,25.645,0,0,1,.047,4.569l-.379-.017a13.736,13.736,0,0,1,1.081-6.22,2.883,2.883,0,0,1,.929-1.119,1.293,1.293,0,0,1,1.388-.07,3.479,3.479,0,0,1,1.22,2.029,11.063,11.063,0,0,1,.488,3.291,8.517,8.517,0,0,1-.049.891A1.109,1.109,0,0,1,260.868,191.953Z" transform="translate(-251.462 -184.475)"/></g><g transform="translate(34.274 10.724)"><path class="h" d="M273.492,191.278c.011.016-.137.161-.467.331a3.68,3.68,0,0,1-1.52.375,3.983,3.983,0,0,1-2.252-.615A3.964,3.964,0,0,1,268,186.189a3.974,3.974,0,0,1,1.722-1.576,3.665,3.665,0,0,1,1.523-.363,1.191,1.191,0,0,1,.567.081,5.41,5.41,0,0,0-1.966.527,3.871,3.871,0,0,0-1.533,1.506,3.7,3.7,0,0,0,1.139,4.7,3.862,3.862,0,0,0,2.052.638A5.429,5.429,0,0,0,273.492,191.278Z" transform="translate(-267.511 -184.251)"/></g><g transform="translate(37.362)"><path class="h" d="M276.842,176.566a20.215,20.215,0,0,0-4.355.758l-.66.211.488-.5a13.225,13.225,0,0,0,2.43-2.96,4.4,4.4,0,0,0,.512-3.011c-.1-.453-.378-.82-.759-.832a2.453,2.453,0,0,0-1.1.3,4.1,4.1,0,0,0-1.348,1.086c-.264.322-.373.532-.4.517a1.419,1.419,0,0,1,.28-.607,3.821,3.821,0,0,1,1.343-1.24,2.623,2.623,0,0,1,1.252-.38,1.019,1.019,0,0,1,.72.345,1.749,1.749,0,0,1,.365.719,4.656,4.656,0,0,1-.514,3.283,12.516,12.516,0,0,1-2.534,3.024l-.172-.287a12.261,12.261,0,0,1,3.218-.515A3.917,3.917,0,0,1,276.842,176.566Z" transform="translate(-271.641 -169.911)"/></g></g></g></g><circle class="i" cx="4.5" cy="4.5" r="4.5" transform="translate(1042 206)"/><circle class="i" cx="4.5" cy="4.5" r="4.5" transform="translate(1042 274)"/><circle class="i" cx="4.5" cy="4.5" r="4.5" transform="translate(1042 240)"/><circle class="i" cx="4.5" cy="4.5" r="4.5" transform="translate(1042 308)"/><circle class="i" cx="4.5" cy="4.5" r="4.5" transform="translate(1042 223)"/><circle class="i" cx="4.5" cy="4.5" r="4.5" transform="translate(1042 291)"/><circle class="i" cx="4.5" cy="4.5" r="4.5" transform="translate(1042 257)"/><circle class="i" cx="4.5" cy="4.5" r="4.5" transform="translate(1042 325)"/></g><g transform="translate(1076.951 251.408)"><g class="j" transform="translate(0 0)"><g transform="translate(13.584 4.335)"><g transform="translate(0 47.498)"><g transform="translate(0 46.083)"><path class="k" d="M385.219,182.864s-1.754,10.7-9.629,12.611c-6.36,1.544-12.357-4.565-14.429-6.97-.5-.576-.765-.939-.765-.939a10.847,10.847,0,0,1-1.181.039c-1.657-.022-4.606-.361-5.76-2.4-1.645-2.906,4.341-4.89,4.341-4.89s-3.07-2.741-2.3-4.734c.757-1.959,4.875-2.369,4.875-2.369s-4.433-2.878-2.95-5.39c2.233-3.775,6.819.379,7.184.607-.29-.331-6.034-6.275-2.89-7.343,2.744-.934,7.256,2.154,10.224,5.213.47.484.736.765.736.765s.177-.135.49-.343c1.484-.993,6.038-3.651,8.941-1.227C385.613,168.421,385.219,182.864,385.219,182.864Z" transform="translate(-353.169 -160.916)"/></g><g transform="translate(17.199 61.021)"><path class="l" d="M375.338,187.989a.625.625,0,0,1-.793-.911,5.623,5.623,0,0,0,.952-4.682c-1.038-4-6.395-6.776-6.449-6.8a.625.625,0,1,1,.568-1.114c.24.123,5.913,3.06,7.092,7.6a6.82,6.82,0,0,1-1.125,5.693A.627.627,0,0,1,375.338,187.989Z" transform="translate(-368.706 -174.41)"/></g><g transform="translate(6.044 56.325)"><path class="l" d="M370.948,173.026a1.944,1.944,0,0,1-.882,1.7,2.2,2.2,0,0,1-.405.206,4.581,4.581,0,0,1-1.127.255,4.5,4.5,0,0,1,.8.653,2.147,2.147,0,0,1,.483.734,1.632,1.632,0,0,1-.277,1.577c-1,1.329-3.319,1.873-5.2,2.1a6.6,6.6,0,0,1,2.912,2.962,1.953,1.953,0,0,1-.241,1.905,3.7,3.7,0,0,1-1.355,1,20.489,20.489,0,0,1-5.073,1.4c-.5-.577-.766-.941-.766-.941a10.715,10.715,0,0,1-1.185.042.609.609,0,0,1,.324-.132c2.315-.27,6.277-1.081,7.057-2.118a.721.721,0,0,0,.061-.737c-.428-1.194-2.676-2.775-4.619-3.254a.624.624,0,0,1,.157-1.23c1.545.029,5.8-.236,6.932-1.746.164-.218.122-.338.1-.4a2.073,2.073,0,0,0-.946-.866,15.427,15.427,0,0,0-3.7-1.391.59.59,0,0,1-.322-.2.606.606,0,0,1-.142-.557.626.626,0,0,1,.756-.464c.216.052.663.164,1.22.338a14,14,0,0,0,2.827.1,2.482,2.482,0,0,0,1.058-.289.715.715,0,0,0,.313-.666,4,4,0,0,0-.673-1.9.613.613,0,0,1,.051-.7.084.084,0,0,0,.013-.017.612.612,0,0,1,1.007.064A5.238,5.238,0,0,1,370.948,173.026Z" transform="translate(-358.629 -170.168)"/></g><g transform="translate(5.53)"><path class="m" d="M366.415,166.765a17.073,17.073,0,0,1,2.929,2.152c.89.847,1.451,1.274,2.06,1.833.042-.071-.042.066,0,0l-12.018-50.986a.618.618,0,0,0-1.21.248l8.239,46.753Z" transform="translate(-358.165 -119.285)"/></g><g transform="translate(16.219 59.876)"><path class="m" d="M375.83,189.294c-4.165,2.688-5.333.7-5.333.7l-2.112-11.975a2.656,2.656,0,0,0,.174-.206,1.632,1.632,0,0,0,.277-1.577,2.15,2.15,0,0,0-.483-.734,3.679,3.679,0,0,0-.486-.428l-.046-.26a4.381,4.381,0,0,0,.857-.219,2.2,2.2,0,0,0,.405-.206,1.837,1.837,0,0,0,.773-1.011,3.105,3.105,0,0,0,1.873.84,4.239,4.239,0,0,0,.605.019Z" transform="translate(-367.821 -173.376)"/></g><g transform="translate(16.955 51.465)"><path class="l" d="M379.379,171.41a20.585,20.585,0,0,1-4.1,2.755,7.03,7.03,0,0,1-3.619.864,3.119,3.119,0,0,1-2.261-1.279c-1.981-2.661-.286-6.137.9-7.973.47.484.736.765.736.765s.177-.135.49-.343c-1.024,1.512-2.735,4.649-1.128,6.8a1.878,1.878,0,0,0,1.388.781c2.2.233,5.632-2.312,6.766-3.312a.625.625,0,0,1,.827.936Z" transform="translate(-368.485 -165.778)"/></g><g transform="translate(15.659 44.693)"><path class="n" d="M443.837,159.7l0-.022c0-.006,0-.026,0-.006l-.014.069-.032.15-.075.367-.166.813c-.055.277-.117.56-.182.848s-.127.573-.2.866c-.264,1.162-.557,2.35-.873,3.533-.648,2.367-1.336,4.747-2.14,7.088s-1.636,4.67-2.584,6.945c-.482,1.132-.957,2.268-1.473,3.381-.487,1.127-1.03,2.221-1.553,3.325-1.1,2.178-2.24,4.324-3.48,6.392-.292.529-.624,1.029-.936,1.544s-.619,1.033-.958,1.525c-.666,1-1.311,2.006-2.01,2.968-1.351,1.968-2.842,3.806-4.327,5.638-1.542,1.777-3.106,3.531-4.781,5.157-.417.407-.827.826-1.249,1.228l-1.3,1.172-.646.589-.161.147.082-.074.113-.1a4.473,4.473,0,0,1,.483-.341,7.606,7.606,0,0,1,2.33-1.079c.2-.051.365-.106.554-.138.092-.017.185-.031.278-.042l.235-.04a3.955,3.955,0,0,1,.463-.035,2.5,2.5,0,0,1,.364-.013c.055,0,.131.011.172.008s.085,0,.127,0a2.356,2.356,0,0,1,.246.029.777.777,0,0,1,.152.019l.071.02a.14.14,0,0,1,.031,0c.183.058-.181,0-.722-.235a18.154,18.154,0,0,1-2.085-1.089c-.8-.475-1.666-1.047-2.553-1.679-1.782-1.256-3.648-2.767-5.517-4.369s-3.75-3.336-5.619-5.13-3.742-3.637-5.582-5.539-3.694-3.827-5.507-5.789c-.914-.975-1.823-1.958-2.716-2.945L387.488,182l-20.173,15.131.672,1.017.638.942,1.274,1.85q1.288,1.826,2.606,3.62c1.771,2.382,3.585,4.739,5.472,7.06s3.841,4.61,5.885,6.875c1.025,1.129,2.066,2.254,3.14,3.371s2.18,2.221,3.318,3.321a93.518,93.518,0,0,0,7.428,6.487c1.367,1.057,2.809,2.105,4.389,3.136a44.736,44.736,0,0,0,5.311,2.991,32.2,32.2,0,0,0,7.259,2.481l.548.111c.19.034.4.064.592.1.4.061.8.115,1.2.166.415.045.867.075,1.3.1l.655.033c.216.011.467.007.7.007q.711-.007,1.42-.039c.5-.034,1.01-.09,1.512-.151.255-.032.5-.063.759-.105s.529-.1.794-.154c.531-.115,1.047-.223,1.582-.38a21.754,21.754,0,0,0,6.142-2.861c.452-.314.889-.644,1.322-.983l.321-.257.29-.238.231-.206L435,234.6l1.845-1.653c.6-.563,1.188-1.145,1.781-1.717,2.385-2.283,4.575-4.738,6.71-7.228,2.078-2.529,4.084-5.117,5.9-7.81,1.862-2.669,3.532-5.442,5.125-8.243l1.155-2.12c.382-.707.732-1.429,1.1-2.143s.724-1.431,1.058-2.157l1.018-2.172a117.71,117.71,0,0,0,6.406-17.91c.809-3.057,1.538-6.134,2.094-9.271.28-1.57.544-3.144.754-4.76.054-.4.1-.807.152-1.218s.1-.819.138-1.24.086-.848.124-1.28l.116-1.541Z" transform="translate(-367.315 -159.66)"/></g><g transform="translate(28.836 77.201)"><path class="o" d="M379.226,190.915a1.74,1.74,0,1,0,1.585-1.882A1.739,1.739,0,0,0,379.226,190.915Z" transform="translate(-379.219 -189.027)"/></g><g transform="translate(64.264 94.813)"><path class="o" d="M411.967,219.1a.743.743,0,0,0,.721-.562A55.98,55.98,0,0,0,413.9,205.66a.743.743,0,1,0-1.485.042,55.548,55.548,0,0,1-1.167,12.478.742.742,0,0,0,.54.9A.731.731,0,0,0,411.967,219.1Z" transform="translate(-411.224 -204.938)"/><g transform="translate(1.198 0.991)"><path class="o" d="M416.606,213.627a.744.744,0,0,0,.664-1.075,60.461,60.461,0,0,0-3.639-6.438.743.743,0,0,0-1.165.923,61.451,61.451,0,0,1,3.474,6.178A.743.743,0,0,0,416.606,213.627Z" transform="translate(-412.306 -205.833)"/></g></g><g transform="translate(21.258 75.297)"><g transform="translate(1.498)"><path class="o" d="M374.469,205.536a.741.741,0,0,0,.534-.227c6.222-6.416,20.266-16.554,20.408-16.655a.743.743,0,0,0-.869-1.207c-.142.1-14.292,10.318-20.6,16.828a.743.743,0,0,0,.533,1.261Z" transform="translate(-373.726 -187.307)"/></g><g transform="translate(0 2.244)"><path class="o" d="M380.625,199.833a.743.743,0,0,0,.571-1.219l-7.511-9.013a.743.743,0,1,0-1.141.952l7.51,9.012A.744.744,0,0,0,380.625,199.833Z" transform="translate(-372.372 -189.335)"/></g></g></g><g transform="translate(72.957 198.337)"><g transform="translate(0 35.034)"><path class="m" d="M456.664,364.729,466.733,305.3l.826-4.857-28.986-10.231-1.654-.582-6.9-2.434s-.551,2.54-1.409,6.911c-.1.527-.211,1.083-.322,1.661-2.72,14.053-7.82,43.017-9.208,68.957Z" transform="translate(-419.077 -287.2)"/><g transform="translate(30.852 16.281)"><path class="p" d="M448.545,363.156c4.355-23.694,9.953-58.319,10.28-60.339a.783.783,0,1,0-1.545-.249c-.081.5-5.893,36.444-10.332,60.588Z" transform="translate(-446.948 -301.908)"/></g></g><g transform="translate(9.208)"><g transform="translate(1.603)"><path class="m" d="M514.266,271.613s2.182,20.7-2.526,32.217-65.66,5.592-81.194-4.778c-6.372-4.253,7.2-43.5,7.2-43.5Z" transform="translate(-428.843 -255.551)"/></g><g transform="translate(0 19.601)"><path class="p" d="M427.395,297.264a17.768,17.768,0,0,0,2.7-.694,18.075,18.075,0,0,0,4.009-1.94,21.114,21.114,0,0,0,3.58-2.92c6.719-6.779,8.7-17.025,8.791-17.525a.783.783,0,1,0-1.54-.288c-.022.122-2.081,10.778-8.9,17.227a18.727,18.727,0,0,1-2.783,2.194,16.551,16.551,0,0,1-3.828,1.825,16.316,16.316,0,0,1-1.7.456C427.614,296.128,427.5,296.683,427.395,297.264Z" transform="translate(-427.395 -273.258)"/></g><g transform="translate(37.606 8.439)"><path class="p" d="M461.369,304.131a.771.771,0,0,0,.739.793h.007a.77.77,0,0,0,.818-.716c.137-2.829.3-5.727.486-8.622.032-.509.064-1.018.1-1.527.614-9.459,1.4-18.744,1.986-25.3.049-.53.093-1.045.139-1.539.132-1.438.25-2.714.352-3.795-.518-.081-1.037-.164-1.55-.25-.1,1.079-.221,2.368-.353,3.821-.048.494-.092,1.008-.141,1.537-.583,6.5-1.359,15.7-1.975,25.1-.035.518-.069,1.039-.1,1.557C461.685,298.2,461.513,301.2,461.369,304.131Z" transform="translate(-461.368 -263.175)"/></g><g transform="translate(34.941 9.372)"><path class="p" d="M459.4,294.059a20.47,20.47,0,0,0,2.734,1.046,15.77,15.77,0,0,0,1.545.39,11.048,11.048,0,0,0,1.481.193,5.388,5.388,0,0,0,2.625-.411,3.2,3.2,0,0,0,1.781-2.39c.569-2.917,1.763-14.966,2.567-23.487.052-.524.1-1.036.146-1.532.127-1.363.241-2.6.339-3.656-.518-.063-1.037-.125-1.556-.194-.1,1.059-.212,2.315-.344,3.695q-.07.741-.143,1.532c-.806,8.5-2,20.532-2.547,23.359a1.68,1.68,0,0,1-.943,1.32,5.525,5.525,0,0,1-3.305.043c-.527-.115-1.051-.262-1.541-.42a18.764,18.764,0,0,1-2.146-.841.794.794,0,0,0-1.048.34A.747.747,0,0,0,459.4,294.059Z" transform="translate(-458.96 -264.018)"/></g></g><g transform="translate(50.974 19.6)"><g transform="translate(0 9.692)"><path class="m" d="M502.809,365.284c2.411-22.056,5.2-51.568,6.776-68.668.051-.536.1-1.053.143-1.564.7-7.544,1.123-12.3,1.123-12.3-3.74-1.559-10.523-.487-17.741,1.562-.523.146-1.044.294-1.568.455A215.576,215.576,0,0,0,465.126,295.1v70.185Z" transform="translate(-465.126 -282.013)"/></g><g transform="translate(32.429 31.715)"><path class="p" d="M495.993,363.156c2.083-24.519,4.551-59.943,4.585-60.409a.783.783,0,1,0-1.562-.109c-.033.466-2.51,36.021-4.594,60.518Z" transform="translate(-494.422 -301.909)"/></g><g transform="translate(22.08)"><path class="p" d="M485.086,274.184a40.976,40.976,0,0,0,4.322,11.522,25.263,25.263,0,0,0,8.05,8.923,18.309,18.309,0,0,0,10,2.923c.05-.536.1-1.055.144-1.565a16.842,16.842,0,0,1-9.292-2.672,23.448,23.448,0,0,1-7.327-8.062,40.206,40.206,0,0,1-4.353-11.355.783.783,0,1,0-1.54.286Z" transform="translate(-485.073 -273.257)"/></g></g></g><g transform="translate(83.333)"><g transform="translate(0 70.621)"><path class="n" d="M428.451,282.645c16.873,15.751,56.773,24.125,87.527,9.149,3.374-9.22,7.083-42.123,8.077-51.959.2-1.959.36-3.917.489-5.879a258.116,258.116,0,0,0,.032-28.88c-.025-.541-.052-1.081-.077-1.625-.4-8.178-1-16.663-1.57-25.667-1.124-17.827-7.075-28.811-17.411-30.456a42.18,42.18,0,0,1-11.411-3.441c-.343-.162-.666-.32-.981-.483a32.238,32.238,0,0,1-5.221-3.23H464.848a17.584,17.584,0,0,1-7.177,6c-.3.143-.6.278-.9.411-8.184,3.532-17.728,2.829-19.7,12.7-1.236,6.2,3.509,18.944,3.011,44.791q-.055,2.846-.2,5.9-.136,2.866-.362,5.924c-.14,1.9-.311,3.86-.511,5.873q-.263,2.645-.6,5.428-.345,2.856-.775,5.853C436.1,243.8,431.985,268.832,428.451,282.645Z" transform="translate(-428.451 -140.174)"/><g transform="translate(78.33 51.092)"><path class="o" d="M499.907,283.093a.692.692,0,0,1-.668-.874c12.806-46.954,10.221-94.68,10.194-95.157a.692.692,0,0,1,1.382-.08c.027.479,2.625,48.432-10.241,95.6A.692.692,0,0,1,499.907,283.093Z" transform="translate(-499.214 -186.33)"/></g><g transform="translate(8.792 44.601)"><path class="o" d="M437.138,222.737a.743.743,0,0,0,.737-.66c1.532-13.58,1.55-40.6,1.55-40.868a.743.743,0,0,0-1.487,0c0,.27-.018,27.2-1.54,40.7a.741.741,0,0,0,.655.821A.724.724,0,0,0,437.138,222.737Z" transform="translate(-436.394 -180.466)"/></g><g transform="translate(41.115 136.13)"><path class="o" d="M465.6,265.04a1.739,1.739,0,1,0,1.585-1.882A1.74,1.74,0,0,0,465.6,265.04Z" transform="translate(-465.594 -263.152)"/></g><g transform="translate(40.839 144.539)"><path class="o" d="M465.35,272.637a1.739,1.739,0,1,0,1.584-1.882A1.739,1.739,0,0,0,465.35,272.637Z" transform="translate(-465.344 -270.749)"/></g><g transform="translate(17.418 35.828)"><path class="o" d="M447.313,190.629c-4.526-5.257-2.829-16.959-2.754-17.455a.742.742,0,0,1,.734-.633h15.356a.742.742,0,0,1,.734.633c.075.5,1.772,12.2-2.754,17.455a7.617,7.617,0,0,1-11.315,0Zm-1.365-16.6c-.284,2.472-1.037,11.534,2.49,15.632a6.132,6.132,0,0,0,9.063,0c3.526-4.092,2.774-13.16,2.492-15.633Z" transform="translate(-444.186 -172.541)"/></g></g><g transform="translate(16.621)"><path class="m" d="M488.381,90.146c-4.3-2.782-17.829-4.178-17.829-4.178s-2.228-5.85-4.735-7.522c-5.7-3.8-6.407,3.9-6.407,3.9s-5.571-7.8-10.586-5.571,1.393,9.471,1.393,9.471-7.522-1.393-6.686,5.014,8.079,9.193,8.079,9.193-2.228,3.621-1.113,9.471,3.621,6.129,3.621,6.129l31.2,2.785s6.407,0,8.078-8.078-3.9-11.421-3.9-11.421S493.117,93.212,488.381,90.146Z" transform="translate(-443.466 -76.375)"/><g transform="translate(9.993 52.24)"><g transform="translate(9.436)"><path class="k" d="M461.018,138.028v5.861a18.361,18.361,0,0,0,2.075,1.453c10.177,6.111,21.157-1.453,21.157-1.453V123.568L463.789,136.3Z" transform="translate(-461.018 -123.568)"/></g><g transform="translate(9.436 9.252)"><path class="m" d="M461.018,136.966V143a18.37,18.37,0,0,0,2.075,1.453c8.666-3.43,14.973-12.523,14.973-12.523l-14.277,3.484Z" transform="translate(-461.018 -131.926)"/></g><g transform="translate(19.224 14.367)"><path class="n" d="M483.252,136.547a11.6,11.6,0,0,1,8.728,8.985c-6.672,6.98-12.571,13.033-22.119,14.8V146.311A24.706,24.706,0,0,0,483.252,136.547Z" transform="translate(-469.861 -136.547)"/></g><g transform="translate(0.727 16.393)"><path class="n" d="M461.645,138.377s-6.117,1.313-8.495,9.139c6.167,7.5,9.461,10.328,18.5,12.621V146.116S466.61,146.035,461.645,138.377Z" transform="translate(-453.151 -138.377)"/></g><g transform="translate(0 22.609)"><g transform="translate(5.775 19.345)"><path class="m" d="M457.711,244.888l3.965,9.572v0l1.78,4.3,5.031,12.152,2.428-4.693.862-1.661,1.949-3.763.859-1.661,1.95-3.762.859-1.661,1.949-3.763v0l.862-1.658,1.831-3.537L482,244.37l-.285-2.805-.648-6.36-.285-2.808-.648-6.36-.285-2.806-.648-6.36-.285-2.805-.648-6.363-.285-2.805-.648-6.36-.285-2.806-.648-6.36-.285-2.809-.648-6.357-.285-2.808-.648-6.36-.285-2.806-.669-6.574-4.859-.19-.143,1.094-.294,2.226-.665,5.046-.294,2.226-.666,5.046-.294,2.229-.666,5.046-.294,2.226-.666,5.046-.294,2.226-.666,5.049-.294,2.226-.666,5.046-.294,2.226-.665,5.046-.294,2.229-.666,5.046-.294,2.226-.666,5.046-.294,2.229-.665,5.046-.294,2.226-.665,5.046-.294,2.229Z" transform="translate(-457.711 -161.469)"/><g transform="translate(0.012 1.094)"><g transform="translate(10.559)"><path class="p" d="M467.26,164.683l6.25,6.25-.286-2.806-5.67-5.67Z" transform="translate(-467.26 -162.457)"/></g><g transform="translate(9.599 7.272)"><path class="p" d="M466.393,171.253l8.143,8.146-.286-2.808-7.564-7.564Z" transform="translate(-466.393 -169.027)"/></g><g transform="translate(8.639 14.545)"><path class="p" d="M465.526,177.826l10.036,10.036-.285-2.809L465.82,175.6Z" transform="translate(-465.526 -175.597)"/></g><g transform="translate(7.679 21.82)"><path class="p" d="M464.659,184.395l11.929,11.929-.285-2.806-11.35-11.35Z" transform="translate(-464.659 -182.169)"/></g><g transform="translate(6.72 29.092)"><path class="p" d="M463.792,190.965l13.822,13.822-.285-2.805-13.243-13.243Z" transform="translate(-463.792 -188.739)"/></g><g transform="translate(5.76 36.367)"><path class="p" d="M462.925,197.537l15.715,15.715-.285-2.805-15.136-15.136Z" transform="translate(-462.925 -195.311)"/></g><g transform="translate(4.8 43.639)"><path class="p" d="M462.058,204.107l17.608,17.609-.285-2.806-17.029-17.029Z" transform="translate(-462.058 -201.881)"/></g><g transform="translate(3.84 50.912)"><path class="p" d="M461.19,210.679l19.5,19.5-.285-2.808L461.484,208.45Z" transform="translate(-461.19 -208.45)"/></g><g transform="translate(2.88 58.187)"><path class="p" d="M460.323,217.249l21.395,21.395-.285-2.805-20.815-20.815Z" transform="translate(-460.323 -215.023)"/></g><g transform="translate(1.92 65.459)"><path class="p" d="M459.456,223.821l19.7,19.7.862-1.658L459.75,221.592Z" transform="translate(-459.456 -221.592)"/></g><g transform="translate(0.96 72.734)"><path class="p" d="M458.589,230.391l17.852,17.852.859-1.661-18.417-18.417Z" transform="translate(-458.589 -228.165)"/></g><g transform="translate(0 80.007)"><path class="p" d="M457.722,236.963l16,16,.859-1.661-16.568-16.568Z" transform="translate(-457.722 -234.735)"/></g><g transform="translate(3.953 91.9)"><path class="p" d="M461.292,245.479l1.78,4.3,7.459,7.459.862-1.661Z" transform="translate(-461.292 -245.479)"/></g></g><g transform="translate(10.582 0)"><path class="p" d="M472.557,161.66l-2.419,3.6L467.7,161.47l-.427,3.235,2.829,2.879,2.712-3.42Z" transform="translate(-467.271 -161.47)"/></g></g><g transform="translate(13.013 5.449)"><path class="m" d="M476.943,156.962l-6.482,9.635-6.212-9.635,6.212-8.047Z" transform="translate(-464.249 -148.915)"/></g><path class="o" d="M481.965,164.081a.744.744,0,0,0,.464-.162c6.417-5.116,11.882-18.341,12.112-18.9a.743.743,0,0,0-1.376-.563c-.052.129-5.2,12.581-11.072,17.8L472.333,149a.743.743,0,0,0-1.205.013l-9.108,12.929c-1.389-2.509-5.045-9.178-8.117-15.359a.743.743,0,0,0-1.331.662c3.876,7.8,8.678,16.369,8.726,16.456a.743.743,0,0,0,1.255.064l9.2-13.053,9.62,13.065a.744.744,0,0,0,.5.3A.962.962,0,0,0,481.965,164.081Z" transform="translate(-452.494 -143.993)"/><g transform="translate(18.497 1.387)"><path class="o" d="M469.947,150.05a.743.743,0,0,0,.744-.743v-3.319a.743.743,0,0,0-1.487,0v3.319A.743.743,0,0,0,469.947,150.05Z" transform="translate(-469.204 -145.246)"/></g></g></g><g transform="translate(6.103 38.978)"><path class="l" d="M454.981,113.335s-3.329-3.932-5.209,0-.435,11.893,4.63,10.591Z" transform="translate(-448.98 -111.587)"/></g><g transform="translate(8.554 17.725)"><path class="k" d="M451.194,129.179s-.016,12.118,12.587,12.09c12.526-.023,21.062-9.86,21.506-10.316l.014-.012.136-2.546.713-13.219.381-7.064s1.6-12.722-10.489-15.042c-8.833-1.7-17.116-.228-21.3,4.38-.134.148-.266.3-.389.457a10.868,10.868,0,0,0-2.379,5.925l-.391,12.69-.1,3.109Z" transform="translate(-451.194 -92.388)"/></g><g transform="translate(22.269 29.134)"><path class="m" d="M464.341,106.319s5.288,3.938,8.436,1.427-4.185-5.247-6.6-5.04S462.77,105.426,464.341,106.319Z" transform="translate(-463.584 -102.695)"/></g><g transform="translate(8.061 29.134)"><path class="m" d="M459.958,106.319s-5.288,3.938-8.436,1.427,4.185-5.247,6.6-5.04S461.528,105.426,459.958,106.319Z" transform="translate(-450.749 -102.695)"/></g><g transform="translate(19.658 53.964)"><path class="l" d="M463,127.261a5.247,5.247,0,0,0,3.6-1.156.557.557,0,0,0-.726-.846,3.857,3.857,0,0,1-3.873.6.557.557,0,0,0-.453,1.018A4.536,4.536,0,0,0,463,127.261Z" transform="translate(-461.225 -125.126)"/></g><g transform="translate(15.326 47.449)"><path class="f" d="M468.886,119.24s-7.69,1.549-11.574,1.2c0,0,1.445,5.724,7.167,4.278A5.731,5.731,0,0,0,468.886,119.24Z" transform="translate(-457.312 -119.24)"/></g><g transform="translate(11.715 17.725)"><path class="m" d="M454.05,97.907c1.977-.7,3.4-.049,6.485,1.305,4.454,1.956,9.435.2,13.835-2.053s7.042.88,5.542,2.933-1.336,3.716.327,6.335-3.145,3.836-.488,5.89c1.119.866,1.052,2.157.6,3.362a1.813,1.813,0,0,0,2.04,2.4h0c1.433-.364,3.455-2.9,3.455-2.9l.381-7.064s1.6-12.722-10.489-15.042c-8.833-1.7-17.116-.228-21.3,4.38C454.3,97.6,454.173,97.751,454.05,97.907Z" transform="translate(-454.05 -92.388)"/></g><g transform="translate(25.384 41.821)"><path class="l" d="M466.4,115.753c0,.882,1.818,1.6,4.059,1.6s4.058-.716,4.058-1.6-1.816-1.6-4.058-1.6S466.4,114.872,466.4,115.753Z" transform="translate(-466.398 -114.156)"/></g><g transform="translate(8.85 41.821)"><path class="l" d="M451.461,117.3a9.594,9.594,0,0,0,.977.048c2.239,0,4.057-.716,4.057-1.6s-1.818-1.6-4.057-1.6c-.3,0-.6.013-.882.039Z" transform="translate(-451.461 -114.156)"/></g><g transform="translate(23.627 36.369)"><path class="m" d="M464.811,111.425c0,1.211.549,2.194,1.228,2.194s1.228-.983,1.228-2.194-.55-2.194-1.228-2.194S464.811,110.213,464.811,111.425Z" transform="translate(-464.811 -109.231)"/></g><g transform="translate(11.451 36.369)"><path class="m" d="M453.811,111.425c0,1.211.549,2.194,1.228,2.194s1.228-.983,1.228-2.194-.55-2.194-1.228-2.194S453.811,110.213,453.811,111.425Z" transform="translate(-453.811 -109.231)"/></g><g transform="translate(38.702 51.375)"><path class="m" d="M478.429,122.787c.058.134,1.653,3.833,3.946,4.916l.012-.012.136-2.546A8.7,8.7,0,0,1,478.429,122.787Z" transform="translate(-478.429 -122.787)"/></g><g transform="translate(40.921 39.605)"><path class="k" d="M480.434,115.508s4.845-6.508,8.394-1.394c2.926,4.214-2.6,15.2-8.394,11.434Z" transform="translate(-480.434 -112.154)"/></g><g transform="translate(41.084 42.92)"><path class="m" d="M481.081,123.267a.5.5,0,0,0,.495-.444,8.33,8.33,0,0,1,4.839-6.714.5.5,0,0,0-.369-.925,9.327,9.327,0,0,0-5.462,7.531.5.5,0,0,0,.442.55Z" transform="translate(-480.581 -115.149)"/></g><g transform="translate(42.692 45.879)"><path class="m" d="M485.577,119.96a.5.5,0,0,0,.315-.884c-.2-.163-1.987-1.57-3.484-1.188a.5.5,0,0,0,.247.966c.86-.22,2.174.643,2.608,1A.5.5,0,0,0,485.577,119.96Z" transform="translate(-482.034 -117.822)"/></g><g transform="translate(15.653 33.292)"><path class="m" d="M461.646,117.821a.5.5,0,1,0,0-1,3.427,3.427,0,0,1-2.975-1.388c1.988-4.1,3.964-8.23,3.984-8.272a.5.5,0,1,0-.9-.43c-.021.042-2.072,4.333-4.1,8.507a.493.493,0,0,0,0,.428A4.259,4.259,0,0,0,461.646,117.821Z" transform="translate(-457.607 -106.451)"/></g></g></g></g><g transform="translate(162.716 57.175)"><g transform="translate(84.397)"><path class="k" d="M570.856,160.86s6.711,6.778,13.338,4.136c5.351-2.136,6.535-9.575,6.8-12.358.062-.666.071-1.064.071-1.064a9.65,9.65,0,0,0,.866-.574c1.179-.861,3.12-2.608,2.909-4.659-.3-2.922-5.609-1.293-5.609-1.293s.8-3.532-.764-4.571c-1.543-1.019-4.7.787-4.7.787s1.711-4.326-.633-5.37c-3.526-1.57-4.7,3.748-4.843,4.1.038-.386,1.717-16.688-1.084-15.853-2.444.729-4.7,14.356-5.263,18.063-.092.587-.138.924-.138.924s-.2-.007-.527,0c-1.571.044-6.193.46-7.039,3.678C563.207,150.7,570.856,160.86,570.856,160.86Z" transform="translate(-564.136 -124.11)"/><g transform="translate(14.593 20.194)"><path class="l" d="M583.177,147.391A5.827,5.827,0,0,0,582.6,151a1.718,1.718,0,0,0,1.146,1.243,3.247,3.247,0,0,0,1.477.022,18,18,0,0,0,4.356-1.581c.064-.667.071-1.064.071-1.064a9.244,9.244,0,0,0,.869-.574.54.54,0,0,0-.3.071c-1.8.986-5.053,2.425-6.141,2.078a.631.631,0,0,1-.419-.495c-.3-1.075.5-3.356,1.653-4.69a.549.549,0,0,0-.74-.8c-1.094.808-4.278,2.786-5.861,2.283-.23-.074-.261-.18-.274-.237a1.854,1.854,0,0,1,.239-1.1,13.54,13.54,0,0,1,1.946-2.885.53.53,0,0,0,.132-.3.538.538,0,0,0-.182-.473.551.551,0,0,0-.778.051,14.9,14.9,0,0,0-1.982,2.865,4.669,4.669,0,0,0-.464,1.374,1.914,1.914,0,0,0,.029.774,1.428,1.428,0,0,0,1,.988C579.775,148.985,581.713,148.2,583.177,147.391Z" transform="translate(-577.319 -142.353)"/></g><g transform="translate(11.328 20.32)"><path class="l" d="M575.078,142.747a.539.539,0,0,1,.393.474,3.559,3.559,0,0,0,.484,1.7.634.634,0,0,0,.566.318,2.19,2.19,0,0,0,.906-.332,16.191,16.191,0,0,0,2.943-2.444.535.535,0,0,1-.132.3,13.52,13.52,0,0,0-1.946,2.885c-.109.073-.222.14-.33.2a4.2,4.2,0,0,1-1,.427,1.979,1.979,0,0,1-.394.059,1.711,1.711,0,0,1-1.5-.773,4.583,4.583,0,0,1-.7-2.268.538.538,0,0,1,.691-.56Z" transform="translate(-574.369 -142.467)"/></g><g transform="translate(3.665 18.094)"><path class="l" d="M567.94,149.125a18.048,18.048,0,0,0,4.348-.116,6.182,6.182,0,0,0,3.036-1.224,2.747,2.747,0,0,0,.971-2.07c.064-2.92-2.926-4.548-4.715-5.259-.092.587-.138.924-.138.924s-.2-.007-.527,0c1.506.562,4.333,1.939,4.28,4.3a1.658,1.658,0,0,1-.6,1.268c-1.463,1.291-5.22,1.213-6.543,1.075a.549.549,0,1,0-.115,1.092Z" transform="translate(-567.447 -140.456)"/></g><g transform="translate(11.517 24.365)"><path class="l" d="M578.989,159.026a.551.551,0,0,0,.1-1.058,4.945,4.945,0,0,1-3.071-2.872c-1.3-3.4,1.132-8.122,1.157-8.169a.551.551,0,0,0-.977-.509c-.11.21-2.681,5.21-1.208,9.071A6,6,0,0,0,578.7,159,.548.548,0,0,0,578.989,159.026Z" transform="translate(-574.54 -146.121)"/></g></g><g transform="translate(0 28.84)"><path class="n" d="M506.589,150.164l11.472,9.962q2.75,2.569,5.52,5.1c1.839,1.694,3.676,3.381,5.522,5.041s3.686,3.312,5.528,4.931,3.687,3.2,5.513,4.718,3.639,3,5.343,4.263c.845.628,1.666,1.2,2.333,1.637l.444.283.18.114a.3.3,0,0,1,.065.056,1.193,1.193,0,0,1,.144.15c.059.079.05.138.126.2a.854.854,0,0,0,.567.087,8.686,8.686,0,0,0,3.217-1.25,27.585,27.585,0,0,0,4.408-3.293,59.6,59.6,0,0,0,4.531-4.55,112.163,112.163,0,0,0,8.553-11.019c2.724-3.931,4.649-6.964,7.11-11.146a18.417,18.417,0,0,0,16.715,6.392,148.933,148.933,0,0,1-6.465,14.918,115.734,115.734,0,0,1-8.507,14.453,73.705,73.705,0,0,1-5.521,7.027,51.8,51.8,0,0,1-7.188,6.714,36.109,36.109,0,0,1-4.684,3.039,30.67,30.67,0,0,1-5.809,2.422,26.562,26.562,0,0,1-7.011,1.107,25.508,25.508,0,0,1-7.429-.946,27.094,27.094,0,0,1-3.436-1.219l-.8-.36-.671-.328c-.231-.112-.422-.215-.631-.322s-.421-.216-.6-.319c-1.551-.839-2.881-1.648-4.153-2.454-2.525-1.608-4.8-3.2-7.021-4.813s-4.337-3.253-6.438-4.895-4.16-3.293-6.183-4.976-4.036-3.36-6.023-5.058-3.944-3.422-5.9-5.145-3.877-3.475-5.793-5.237l-2.863-2.659-1.422-1.348c-.481-.456-.938-.894-1.442-1.386Z" transform="translate(-487.893 -150.164)"/></g><g transform="translate(7.822 57.966)"><path class="o" d="M516.781,194.407a.683.683,0,0,1-.4-.125c-7.574-5.3-21.041-16.469-21.176-16.582a.692.692,0,0,1,.884-1.065c.135.113,13.558,11.245,21.085,16.513a.692.692,0,0,1-.4,1.259Z" transform="translate(-494.959 -176.476)"/><g transform="translate(0.127 3.691)"><path class="o" d="M501.1,181.971a.614.614,0,0,1-.1-.008l-5.336-.775a.692.692,0,1,1,.2-1.369l5.335.775a.692.692,0,0,1-.1,1.377Z" transform="translate(-495.074 -179.811)"/></g></g><g transform="translate(85.356 39.936)"><path class="o" d="M581.91,169.378a.705.705,0,0,0-.476-1.314c-10.047,2.188-15.05-7.394-15.1-7.492a.7.7,0,0,0-.947-.308l-.006,0a.705.705,0,0,0-.3.945c.054.106,5.557,10.647,16.655,8.229A.707.707,0,0,0,581.91,169.378Z" transform="translate(-565.002 -160.187)"/></g><g transform="translate(96.069 40.258)"><path class="o" d="M575.71,169.532a.709.709,0,0,0,.323-.348l3.307-7.723a.7.7,0,1,0-1.3-.555l-3.307,7.723a.7.7,0,0,0,.973.9Z" transform="translate(-574.681 -160.479)"/></g><g transform="translate(91.037 40.101)"><path class="o" d="M570.273,162.123a1.222,1.222,0,1,0,.52-1.648A1.222,1.222,0,0,0,570.273,162.123Z" transform="translate(-570.135 -160.337)"/></g><g transform="translate(58.264 65.423)"><path class="o" d="M541.557,191.763a.705.705,0,0,0,.371-.51,30.456,30.456,0,0,1,2.057-7.016.7.7,0,1,0-1.256-.639,31.225,31.225,0,0,0-2.191,7.424.7.7,0,0,0,1.02.741Z" transform="translate(-540.528 -183.212)"/><g transform="translate(1.976 0.633)"><path class="o" d="M545.943,190.117a.687.687,0,0,0,.128-.085.7.7,0,0,0,.087-.993,12.932,12.932,0,0,1-2.449-4.69.7.7,0,1,0-1.382.281,14.168,14.168,0,0,0,2.75,5.314A.705.705,0,0,0,545.943,190.117Z" transform="translate(-542.313 -183.784)"/></g></g></g></g></g></g></svg>