<svg xmlns="http://www.w3.org/2000/svg" xmlns:xlink="http://www.w3.org/1999/xlink" width="160.594" height="116.33" viewBox="0 0 160.594 116.33"><defs><style>.a,.d,.m,.n,.q,.t{fill:none;}.b{clip-path:url(#a);}.c{fill:#8e716c;}.d,.q,.s{stroke:#282828;stroke-linecap:round;stroke-linejoin:round;}.d,.m,.s{stroke-width:0.5px;}.e{fill:#ffb1a5;}.f{fill:#f3978e;}.g{fill:#372f5f;}.h{fill:#261b43;}.i{fill:#e6e6e6;}.j{fill:#fff;}.k{fill:#21b573;}.l{fill:#282828;}.m,.n{stroke:#c98bd2;}.m,.n,.t{stroke-miterlimit:10;}.n{stroke-width:1.342px;}.o{fill:#ea9b7a;}.p{fill:#39393b;}.q{stroke-width:1.397px;}.r,.s{fill:#df615c;}.t{stroke:#fff;stroke-width:1.951px;}</style><clipPath id="a"><rect class="a" width="160.594" height="116.33"/></clipPath></defs><g transform="translate(-96.625 -58.422)"><g transform="translate(96.625 58.422)"><g class="b" transform="translate(0)"><g transform="translate(1.05 1.412)"><g transform="translate(89.958 4.444)"><g transform="translate(1.959 69.78)"><path class="c" d="M464.811,319.421l-12.763-1.7.1,1.267-10.913,1.453S434.2,338.09,440.4,376.9h8.877l3.195-39.355h1.135L456.7,376.9h8.877C471.777,338.09,464.811,319.421,464.811,319.421Z" transform="translate(-437.845 -317.722)"/><line class="d" x2="9.262" transform="translate(10.568 19.825)"/></g><g transform="translate(0 35.512)"><g transform="translate(28.329 10.645)"><g transform="translate(0 4.984)"><path class="e" d="M521.309,266.139c-1.092-1.743-7.226-1.681-7.55-1.719-1.658-.194,1.063,13,4.513,24.535a3.873,3.873,0,0,0,5.219,2.462l.069-.029a3.878,3.878,0,0,0,2.3-4.291C524.22,278.394,522.572,268.155,521.309,266.139Z" transform="translate(-513.261 -264.418)"/><path class="f" d="M524.529,277.965,516.7,281l-.734-3.716,8.109-2.023Z" transform="translate(-515.019 -271.472)"/><path class="f" d="M538.108,298.11s-3.71,4.982-3.533,4.753,2.91-8.052,2.91-8.052Z" transform="translate(-527.118 -284.184)"/></g><g transform="translate(4.845)"><path class="e" d="M538.566,285.092,527.932,298.87a3.91,3.91,0,0,0,.966,5.669h0a3.91,3.91,0,0,0,5.567-1.417l8.852-16.331Z" transform="translate(-527.117 -272.879)"/><g transform="translate(11.162 6.4)"><path class="e" d="M562.078,279.287a4.387,4.387,0,1,1,5.523-2.826A4.387,4.387,0,0,1,562.078,279.287Z" transform="translate(-559.039 -269.936)"/><path class="e" d="M567.023,271.008s1.2-1.247-.929-2.12-4.763-.673-6.444,3.408Z" transform="translate(-559.436 -268.467)"/></g><g transform="translate(13.913)"><path class="g" d="M574.738,250.758l4.453,1.931a.459.459,0,0,1,.2.656l-5.858,10.941a.56.56,0,0,1-.7.267l-4.453-1.931a.459.459,0,0,1-.2-.656l5.858-10.941A.56.56,0,0,1,574.738,250.758Z" transform="translate(-567.696 -250.525)"/><path class="h" d="M573.521,250.2l4.453,1.931a.459.459,0,0,1,.2.656l-5.858,10.941a.56.56,0,0,1-.7.267l-4.453-1.931a.459.459,0,0,1-.2-.656l5.858-10.941A.56.56,0,0,1,573.521,250.2Z" transform="translate(-566.904 -250.164)"/><path class="i" d="M575.513,253.461l3.912,1.7-4.774,8.917-3.912-1.7Z" transform="translate(-569.398 -252.308)"/><path class="j" d="M579.425,255.157l-8.686,7.221,4.774-8.917Z" transform="translate(-569.398 -252.308)"/></g><path class="e" d="M567.776,268.631a7.1,7.1,0,0,1,1.886.7,1.007,1.007,0,0,1,.487,1.118h0a1,1,0,0,1-.846.751l-2.315.292s-1.208,2.082-2.786,2.316l1.448-3.655Z" transform="translate(-551.235 -262.174)"/></g></g><path class="k" d="M452.4,219.721c-.256,0,16.416,2.307,19.167,21.314l-8.651,1.326-1.744,14.349H437.035L432.244,230.2a30.108,30.108,0,0,1,15.274-10.477Z" transform="translate(-432.244 -219.721)"/><line class="d" y1="8.299" x2="0.751" transform="translate(30.668 14.34)"/></g><g transform="translate(7.514)"><path class="e" d="M476.153,208.219v-6.6h-7.737v6.68a15.029,15.029,0,0,0-2.078.843l6.034,3.594,6.169-3.595A10.065,10.065,0,0,0,476.153,208.219Z" transform="translate(-461.93 -172.436)"/><path class="l" d="M472.077,200.139s1.39,3.689,5.1,3.371c3.409-.293,2.867-5.406,2.867-5.406Z" transform="translate(-465.663 -170.151)"/><g transform="translate(0 20.447)"><path class="f" d="M456.773,181.273c-1.213,1.1-3.924-3.072-2.753-4.244s2.065.666,2.065.666l.523,1.245.394,1.687.094.442Z" transform="translate(-453.733 -176.639)"/><g transform="translate(0.854 1.808)"><path class="d" d="M456.175,181.869s.918-.413,1.733.918" transform="translate(-456.175 -181.809)"/></g></g><g transform="translate(17.075 20.5)"><path class="f" d="M502.871,181.245c1.115,1.2,4.17-2.729,3.1-4s-2.115.489-2.115.489l-.626,1.2-.536,1.647-.131.432Z" transform="translate(-502.565 -176.791)"/><g transform="translate(0.914 1.79)"><path class="d" d="M506.983,182s-.88-.489-1.8.768" transform="translate(-505.178 -181.909)"/></g></g><g transform="translate(0.913 7.578)"><path class="l" d="M456.344,149.114c0,5.523,4.211,8.141,9.405,8.141s9.4-2.619,9.4-8.141a9.406,9.406,0,0,0-18.81,0Z" transform="translate(-456.344 -139.834)"/></g><path class="e" d="M459.989,151.859a37.754,37.754,0,0,0,.957,8.393,7.285,7.285,0,0,0,3.647,4.6l.339.208a6.4,6.4,0,0,0,6.515.072h0a7.318,7.318,0,0,0,3.864-4.908,55.19,55.19,0,0,0,.877-8.362s.752-8.559-7.984-8.392S459.989,151.859,459.989,151.859Z" transform="translate(-457.798 -134.617)"/><g transform="translate(2.011 16.603)"><path class="d" d="M481.648,181.441v1.184a.539.539,0,0,0,.038.2.528.528,0,0,0,.629.291l.543-.144" transform="translate(-473.898 -175.918)"/><path class="l" d="M469.6,167.2l-4.342,1.018s.2-1.1,1.974-1.507S469.6,167.2,469.6,167.2Z" transform="translate(-463.24 -166.273)"/><path class="l" d="M488.7,167.2l4.193,1.018s-.191-1.1-1.906-1.507S488.7,167.2,488.7,167.2Z" transform="translate(-478.481 -166.273)"/><ellipse class="l" cx="0.732" cy="0.73" rx="0.732" ry="0.73" transform="translate(3.979 3.39)"/><path class="l" d="M492.18,176.069a.732.732,0,1,1-.732-.73A.731.731,0,0,1,492.18,176.069Z" transform="translate(-479.795 -171.95)"/><path class="j" d="M475.052,190.172H480.7S478.2,193.216,475.052,190.172Z" transform="translate(-469.608 -181.596)"/><circle class="m" cx="3.114" cy="3.114" r="3.114" transform="translate(0 4.404) rotate(-45)"/><circle class="m" cx="3.114" cy="3.114" r="3.114" transform="translate(7.649 4.404) rotate(-45)"/><path class="n" d="M480.982,177.67a1.014,1.014,0,0,1,1.422,0" transform="translate(-473.465 -173.267)"/><line class="n" x1="0.981" y1="0.025" transform="translate(0.309 4.379)"/><line class="n" y1="0.025" x2="0.987" transform="translate(15.167 4.379)"/></g><path class="l" d="M500.785,157.908s-3.493-4.722-2.687-9.506a6.882,6.882,0,0,1,3.268,4.672C502.04,156.442,500.785,157.908,500.785,157.908Z" transform="translate(-482.506 -137.828)"/><path class="l" d="M459.079,157.63s4.058-5.363,3.252-10.147a7.989,7.989,0,0,0-3.489,4.993C458.166,155.844,459.079,157.63,459.079,157.63Z" transform="translate(-456.893 -137.231)"/><path class="l" d="M474.005,146.43s-4.485,4.91-16.756,4.069c0,0,1.879-7.2,7.826-7.972C465.075,142.527,471.941,141.707,474.005,146.43Z" transform="translate(-456.02 -133.972)"/><circle class="l" cx="5.859" cy="5.859" r="5.859" transform="translate(10.953 11.568) rotate(-80.831)"/></g></g><g transform="translate(8.23 10.988)"><path class="l" d="M249.671,317.484l-10.913-1.453.1-1.268-12.763,1.7s-6.966,18.669-.767,57.481h8.877l3.094-39.355h1.135l3.195,39.355h8.877C256.705,335.131,249.671,317.484,249.671,317.484Z" transform="translate(-214.281 -252.561)"/><g transform="translate(6.346)"><path class="l" d="M244.836,149.928a20.125,20.125,0,0,1-3.665-6.609c-1.079-3.054-4.612-1.812-4.612-1.812s-2.944-3.787-7.374-2.468-5.969,4.472-6.059,8.219-3.038,4.334-5.308,8.67c-4.007,7.654,2.74,14.1,15.021,12.313l.017-.119a12.887,12.887,0,0,0,4.5.42C252.112,167.665,250.688,156.813,244.836,149.928Z" transform="translate(-216.662 -138.101)"/><g transform="translate(23.019 12.869)"><path class="f" d="M282.817,178.314c1.213,1.1,3.924-3.072,2.753-4.244s-2.066.666-2.066.666l-.523,1.245-.394,1.687-.094.442Z" transform="translate(-282.492 -173.68)"/><g transform="translate(0.778 1.808)"><path class="d" d="M286.449,178.911s-.918-.413-1.733.918" transform="translate(-284.716 -178.851)"/></g></g><g transform="translate(5.678 12.922)"><path class="f" d="M236.224,178.286c-1.115,1.2-4.17-2.729-3.1-4s2.115.49,2.115.49l.626,1.2.536,1.647.131.432Z" transform="translate(-232.899 -173.832)"/><g transform="translate(0.912 1.79)"><path class="d" d="M235.508,179.045s.88-.489,1.8.768" transform="translate(-235.508 -178.951)"/></g></g><g transform="translate(6.661)"><path class="l" d="M254.52,146.156c0,5.523-4.21,8.142-9.4,8.142s-9.4-2.619-9.4-8.142a9.406,9.406,0,0,1,18.809,0Z" transform="translate(-235.711 -136.876)"/></g><rect class="e" width="7.737" height="10.018" transform="translate(12.161 21.604)"/><path class="l" d="M248.211,196.872s2.154,4.3,4.8,4.969a3.729,3.729,0,0,0,2.146-.124,4.613,4.613,0,0,0,2.477-3.485l.1-.94A9.977,9.977,0,0,1,248.211,196.872Z" transform="translate(-237.179 -175.893)"/><path class="e" d="M255.689,148.9a37.751,37.751,0,0,1-.957,8.392,7.287,7.287,0,0,1-3.647,4.6l-.339.208a6.4,6.4,0,0,1-6.515.072h0a7.319,7.319,0,0,1-3.864-4.908,55.218,55.218,0,0,1-.877-8.362s-.752-8.559,7.984-8.392S255.689,148.9,255.689,148.9Z" transform="translate(-231.497 -139.237)"/><g transform="translate(10.155 9.732)"><path class="d" d="M260.938,179.808v.7a.536.536,0,0,0,.038.2.528.528,0,0,0,.629.29l.543-.144" transform="translate(-255.61 -174.528)"/><path class="l" d="M266.144,165.348l4.648,1.1s-.211-1.194-2.113-1.628S266.144,165.348,266.144,165.348Z" transform="translate(-258.996 -164.707)"/><path class="l" d="M250.41,165.348l-4.708,1.1s.214-1.194,2.14-1.628S250.41,165.348,250.41,165.348Z" transform="translate(-245.702 -164.707)"/><path class="l" d="M251.618,173.436a.732.732,0,1,1-.732-.728A.73.73,0,0,1,251.618,173.436Z" transform="translate(-248.597 -169.91)"/><path class="l" d="M271.47,173.436a.732.732,0,1,1-.732-.728A.73.73,0,0,1,271.47,173.436Z" transform="translate(-261.508 -169.91)"/><path class="j" d="M252.959,186.7h6.427s-.454,1.766-3.368,1.766A3.409,3.409,0,0,1,252.959,186.7Z" transform="translate(-250.421 -179.009)"/></g><path class="l" d="M238.391,154.949s3.493-4.722,2.687-9.506a6.883,6.883,0,0,0-3.268,4.672C237.135,153.483,238.391,154.949,238.391,154.949Z" transform="translate(-230.285 -142.447)"/><path class="l" d="M279.62,154.195s-4.058-4.886-3.252-9.67a7.989,7.989,0,0,1,3.489,4.993C280.533,152.886,279.62,154.195,279.62,154.195Z" transform="translate(-255.422 -141.85)"/><path class="l" d="M240.679,143.472s4.008,5.387,16.279,4.546c0,0-1.4-7.682-7.349-8.449C249.609,139.569,242.743,138.749,240.679,143.472Z" transform="translate(-232.281 -138.592)"/></g><g transform="translate(0 28.358)"><g transform="translate(0 15.727)"><path class="e" d="M202.445,307.486c-.178.281,10.213-45.214,7.128-44.526-.281.063-5.685.565-6.488,2.2-2.328,4.733-4,41.984-4,41.984Z" transform="translate(-198.886 -262.952)"/><path class="e" d="M198.714,387.569s-1.675,7.771,4.657,8.621a.89.89,0,0,0,.958-.588l.018-.053a.889.889,0,0,0-.493-1.1,3.232,3.232,0,0,1-1.839-4.276s.915-.112,1.42,1.6a.734.734,0,0,0,1.032.454h0a.734.734,0,0,0,.4-.751c-.152-1.2-.754-4.074-3.061-4.847Z" transform="translate(-198.514 -343.379)"/><path class="f" d="M205.181,288.028s5.987,8.432,6.019,8.269,2.094-11.838,2.094-11.838l-7.265-3.147Z" transform="translate(-202.85 -274.892)"/></g><g transform="translate(1.419)"><path class="o" d="M220.12,222.369c.256,0-14.8.268-17.548,19.275l8.651,1.325,1.744,14.349H237.1l4.791-26.512s-3.406-5.744-13.334-8.558Z" transform="translate(-202.572 -220.755)"/><path class="e" d="M231.716,221.888s2.127,2.824,10.844,2.824c8.635,0,10.843-2.972,10.843-2.972a37.231,37.231,0,0,0-11-3.764A39.132,39.132,0,0,0,231.716,221.888Z" transform="translate(-221.525 -217.976)"/></g></g></g><g transform="translate(49.456 103.472)"><path class="p" d="M316.414,401.367l.021,37.906h18.752l1.441-37.906Z" transform="translate(-316.414 -401.367)"/><path class="p" d="M395.261,401.367l-.021,37.906H376.487l-1.441-37.906Z" transform="translate(-354.544 -401.367)"/><rect class="p" width="19.389" height="13.169" transform="translate(11.085)"/><line class="q" x2="13.373" transform="translate(13.794 13.169)"/></g><g transform="translate(0 35.632)"><g transform="translate(79.696 5.187)"><g transform="translate(9.739 29.573)"><path class="e" d="M443.33,306.763c1.163,12.845-.064,22.2.276,45.839l-11.193.469-1.668-44.241Z" transform="translate(-430.745 -306.763)"/><path class="f" d="M434.685,323.318s6.931-.635,11.67-3.76l-.125-2.751-11.549,1.573Z" transform="translate(-433.305 -313.295)"/></g><path class="r" d="M402.894,222.188s22.015,5.537,26,33.48c0,0-10.775,4.671-21.573,2.662l2.429-9.346Z" transform="translate(-402.894 -222.188)"/></g><path class="e" d="M202.407,255.417,218.8,274.775,213.783,288.9s-12.459-17.322-18.057-30.71Z" transform="translate(-188.471 -238.611)"/><path class="e" d="M194.256,236.2s-5.756,3.252-7.22,2.076c-2.559-2.056-4.673-9.581-4.673-9.581s10.764-4.058,10.663-3.9S194.256,236.2,194.256,236.2Z" transform="translate(-179.781 -218.691)"/><path class="e" d="M212.75,237.876c-.1-.58,2.134-6.831,2.9-9.175a1.034,1.034,0,0,0-.819-1.3h0a1.194,1.194,0,0,0-1.332.546l-2.7,4.614Z" transform="translate(-198.275 -220.371)"/><path class="e" d="M208.327,219.19l-1.854-9.222a1.161,1.161,0,0,0-1.342-.92h0a1,1,0,0,0-.821,1.109l.808,6.867Z" transform="translate(-194.05 -208.443)"/><path class="e" d="M196.654,214.7l-2.517-6.585a1.155,1.155,0,0,0-1.43-.7h0a1,1,0,0,0-.658,1.181l1.868,7.61Z" transform="translate(-186.062 -207.354)"/><path class="e" d="M187.375,220.546l-3.185-6.471a1.266,1.266,0,0,0-1.617-.62h0a1.1,1.1,0,0,0-.569,1.457l2.539,6.109Z" transform="translate(-179.488 -211.259)"/><path class="e" d="M177.56,226.2l-2.5-3.964a.9.9,0,0,1,.437-1.2h0a1.023,1.023,0,0,1,1.249.363l3.286,4.559Z" transform="translate(-174.978 -216.196)"/><path class="d" d="M206.673,236.093s-3.753-.394-4.139,4.608" transform="translate(-192.898 -226.039)"/><g transform="translate(21.988 4.703)"><g transform="translate(0 11.287)"><path class="e" d="M237.859,280.776s3.083,10.669,9.226,9.251,15.719-14.54,15.719-14.54l-2.143-22.4L243.418,274.3Z" transform="translate(-237.859 -253.082)"/><path class="f" d="M269.051,291.341s5.822,8.781,10.788,11.878l3.25-4.1-12.54-9.7Z" transform="translate(-258.144 -276.71)"/></g><path class="r" d="M293.165,220.8s-17.092,3.852-26.2,23.717c0,0,5.5,8.292,14.326,11.978l5.907-7.236Z" transform="translate(-256.787 -220.803)"/></g><g transform="translate(47.229 3.157)"><path class="r" d="M321.669,217.867a42.8,42.8,0,0,0-10.874,7.967l1.317,58.066h42.075l-.136-57.767s-5.3-5.19-11.051-7.72C338.117,216.264,326.415,215.433,321.669,217.867Z" transform="translate(-310.532 -216.383)"/><path class="s" d="M0,0H11.7a0,0,0,0,1,0,0V5.852A5.852,5.852,0,0,1,5.852,11.7h0A5.852,5.852,0,0,1,0,5.852V0A0,0,0,0,1,0,0Z" transform="translate(25.194 18.074)"/><line class="d" y1="18.995" x2="0.546" transform="translate(43.586 19.393)"/><line class="d" x1="0.909" y1="16.466" transform="translate(0 18.756)"/></g></g><g transform="translate(55.045)"><path class="l" d="M339.671,131.443l-1.754-8.677a6.1,6.1,0,0,1-.037-2.822c.556-1.7,2.6-4.952,6.087-3.461l.755,3.435s-3.624.732-5.078,5.472Z" transform="translate(-335.857 -112.379)"/><path class="l" d="M345.139,122.313c-.063,1.14-1.07,6.128-4.608,7.946C340.531,130.259,337.432,123.613,345.139,122.313Z" transform="translate(-337.286 -116.418)"/><path class="e" d="M357.565,188.655h0V173.921H343.982v14.734l-4.043,1.843s.948,6.107,10.977,6.242,11.036-5.942,11.036-5.942Z" transform="translate(-337.302 -149.98)"/><path class="l" d="M355.588,109.558s2.493-6.576,10.18-3.08c4.652,2.116,5.956,4.953,6.51,6.963a8.088,8.088,0,0,1,.207,2.345l-1.859,8.732-7.259-12.082-7.024.557Z" transform="translate(-347.479 -105.453)"/><g transform="translate(22.341 18.126)"><path class="f" d="M397.094,158.229a2.262,2.262,0,0,1,2.8-.74c1.889.716,1.034,5.3-1.8,5.888a2.241,2.241,0,0,1-1.812-.474S396.985,159.515,397.094,158.229Z" transform="translate(-396.288 -157.291)"/><g transform="translate(0.531 1.765)"><path class="d" d="M400.512,162.389s-1.582-.528-2.705,1.8" transform="translate(-397.807 -162.338)"/></g></g><g transform="translate(0 18.126)"><path class="f" d="M336.211,158.229a2.262,2.262,0,0,0-2.8-.74c-1.889.716-1.034,5.3,1.8,5.888a2.241,2.241,0,0,0,1.812-.474S336.32,159.515,336.211,158.229Z" transform="translate(-332.397 -157.291)"/><g transform="translate(1.384 1.765)"><path class="d" d="M336.354,162.389s1.582-.528,2.705,1.8" transform="translate(-336.354 -162.338)"/></g></g><path class="e" d="M362.421,129.25c0,2.765-.271,8.55-1.97,11.984a8.469,8.469,0,0,1-7.7,5.062c-3.461.1-6.039-1.23-8.105-5.415s-1.968-11.58-1.968-11.58,0-9.878,9.763-9.878C362.726,119.424,362.421,129.25,362.421,129.25Z" transform="translate(-339.084 -114.539)"/><path class="l" d="M351.794,186.688s1.137,5.771,6.16,6.434c5.781.763,7.32-6.288,7.32-6.288a9.2,9.2,0,0,1-6.594,3.206A8.839,8.839,0,0,1,351.794,186.688Z" transform="translate(-345.012 -158.283)"/><g transform="translate(3.716 12.4)"><path class="d" d="M368.917,159.254v2.286a.747.747,0,0,0,.053.279.736.736,0,0,0,.877.407l.758-.2" transform="translate(-359.863 -152.842)"/><path class="l" d="M357.366,154.479a.889.889,0,1,1-.889-.889A.889.889,0,0,1,357.366,154.479Z" transform="translate(-351.195 -149.158)"/><path class="l" d="M381.2,154.479a.889.889,0,1,1-.889-.889A.889.889,0,0,1,381.2,154.479Z" transform="translate(-366.692 -149.158)"/><path class="l" d="M375.454,141.815l5.975,1.543s-.272-1.676-2.716-2.285S375.454,141.815,375.454,141.815Z" transform="translate(-364.114 -140.916)"/><path class="l" d="M353.721,141.815l-5.975,1.543s.272-1.676,2.716-2.285S353.721,141.815,353.721,141.815Z" transform="translate(-346.095 -140.916)"/><path class="d" d="M361.436,172.379a5.585,5.585,0,0,0,3.2.676,8.1,8.1,0,0,0,3.425-.676" transform="translate(-354.998 -161.377)"/><g transform="translate(0 1.804)"><circle class="t" cx="3.777" cy="3.777" r="3.777" transform="translate(1.266)"/><circle class="t" cx="3.777" cy="3.777" r="3.777" transform="translate(10.544)"/><path class="t" d="M368.246,156.185a1.229,1.229,0,0,1,1.725,0" transform="translate(-359.427 -152.408)"/><line class="t" x1="1.266" y1="0.032" transform="translate(0 3.744)"/><line class="t" y1="0.023" x2="1.414" transform="translate(18.097 3.754)"/></g></g><path class="l" d="M351.794,118.885s1.814,5.152,10,4.994c5.561-.107,6.89,3.917,6.89,3.917s-.968-9-1.222-8.911-8.462-2.19-8.462-2.19Z" transform="translate(-345.012 -112.764)"/></g></g></g></g></g></svg>