<svg xmlns="http://www.w3.org/2000/svg" width="22.265" height="21" viewBox="0 0 22.265 21">
  <g id="Group_5846" data-name="Group 5846" transform="translate(-1857.25 -3433.75)">
    <g id="Group_4216" data-name="Group 4216" transform="translate(1809 3149.5)">
      <g id="Group_4215" data-name="Group 4215" transform="translate(-295.499 -1746.276)">
        <path id="Stroke_1-103" data-name="Stroke 1-103" d="M359.619,2043.381l4.334,4.333" transform="translate(1)" fill="none" stroke="#fff" stroke-linecap="round" stroke-linejoin="round" stroke-width="1.5"/>
        <path id="Stroke_5-61" data-name="Stroke 5-61" d="M350,2036h0a2.324,2.324,0,0,0,2.557,1.966h1.974c2.16-.013,4.426.341,4.454,2.034v2" fill="none" stroke="#fff" stroke-linecap="round" stroke-linejoin="round" stroke-width="1.5" opacity="0.4" style="isolation: isolate"/>
        <path id="Stroke_7-36" data-name="Stroke 7-36" d="M358.428,2046.866q-4.508.077-8.856,0a5.34,5.34,0,0,1-5.568-5.1c-.005-.116-.007-.232,0-.349v-4.65a5.34,5.34,0,0,1,5.223-5.455c.116,0,.233,0,.35,0q4.374-.075,8.856,0a5.34,5.34,0,0,1,5.567,5.1c.005.116.007.232,0,.348v4.65" transform="translate(0.5)" fill="none" stroke="#fff" stroke-linecap="round" stroke-linejoin="round" stroke-width="1.5"/>
      </g>
      <line id="Line_9" data-name="Line 9" x2="8" transform="translate(55.5 304.5)" fill="none" stroke="#fff" stroke-linecap="round" stroke-width="1.5"/>
    </g>
  </g>
</svg>
