<svg xmlns="http://www.w3.org/2000/svg" width="18.237" height="21.5" viewBox="0 0 18.237 21.5">
  <g id="Group_6029" data-name="Group 6029" transform="translate(-647.499 -1773.904)">
    <g id="Paper-7" transform="translate(651.673 1774.654)">
      <path id="Stroke_1-6" data-name="Stroke 1-6" d="M661.226,1774.666h-5.695a3.27,3.27,0,0,0-3.282,3.192v9.17a3.276,3.276,0,0,0,3.2,3.347h6.917a3.327,3.327,0,0,0,3.192-3.348v-7.846Z" transform="translate(-652.249 -1774.656)" fill="none" stroke="#fff" stroke-linecap="round" stroke-linejoin="round" stroke-width="1.5"/>
      <path id="Stroke_3-6" data-name="Stroke 3-6" d="M662.474,1774.654v2.49a2.2,2.2,0,0,0,2.2,2.2h2.358" transform="translate(-653.722 -1774.654)" fill="none" stroke="#fff" stroke-linecap="round" stroke-linejoin="round" stroke-width="1.5"/>
      <path id="Stroke_5-6" data-name="Stroke 5-6" d="M661.509,1787.462h-4.622" transform="translate(-652.917 -1776.499)" fill="none" stroke="#fff" stroke-linecap="round" stroke-linejoin="round" stroke-width="1.5" opacity="0.4" style="isolation: isolate"/>
      <path id="Stroke_7-7" data-name="Stroke 7-7" d="M659.759,1782.51h-2.873" transform="translate(-652.917 -1775.786)" fill="none" stroke="#fff" stroke-linecap="round" stroke-linejoin="round" stroke-width="1.5" opacity="0.4" style="isolation: isolate"/>
    </g>
    <path id="Path_1909" data-name="Path 1909" d="M661.56,1791.1v.933a3.326,3.326,0,0,1-3.193,3.347h-6.916a3.278,3.278,0,0,1-3.2-3.347v-9.167a3.266,3.266,0,0,1,3.278-3.193h.146" transform="translate(0 -0.723)" fill="none" stroke="#fff" stroke-linecap="round" stroke-linejoin="round" stroke-width="1.5"/>
  </g>
</svg>
