<svg xmlns="http://www.w3.org/2000/svg" width="21.5" height="21.5" viewBox="0 0 21.5 21.5">
  <g id="Iconly_Two-tone_Category" data-name="Iconly Two-tone Category" transform="translate(0.75 0.75)">
    <g id="Category-5">
      <path id="Stroke_1-4" data-name="Stroke 1-4" d="M420.286,1813.9h3.267a2.459,2.459,0,0,1,2.447,2.47v3.294a2.46,2.46,0,0,1-2.448,2.47h-3.266a2.46,2.46,0,0,1-2.449-2.47v-3.294A2.46,2.46,0,0,1,420.286,1813.9Z" transform="translate(-406 -1813.904)" fill="none" stroke="#fff" stroke-linecap="round" stroke-linejoin="round" stroke-width="1.5" opacity="0.4" style="isolation: isolate"/>
      <path id="Stroke_3-4" data-name="Stroke 3-4" d="M408.449,1813.9h3.265a2.46,2.46,0,0,1,2.449,2.47v3.294a2.46,2.46,0,0,1-2.449,2.47h-3.265a2.46,2.46,0,0,1-2.449-2.47v-3.294A2.46,2.46,0,0,1,408.449,1813.9Z" transform="translate(-406 -1813.904)" fill="none" stroke="#fff" stroke-linecap="round" stroke-linejoin="round" stroke-width="1.5"/>
      <path id="Stroke_5-4" data-name="Stroke 5-4" d="M408.449,1825.67h3.265a2.459,2.459,0,0,1,2.449,2.471h0v3.293a2.46,2.46,0,0,1-2.449,2.47h-3.265a2.46,2.46,0,0,1-2.449-2.47v-3.293a2.459,2.459,0,0,1,2.449-2.471Z" transform="translate(-406 -1813.904)" fill="none" stroke="#fff" stroke-linecap="round" stroke-linejoin="round" stroke-width="1.5"/>
      <path id="Stroke_7-4" data-name="Stroke 7-4" d="M420.286,1825.67h3.267a2.46,2.46,0,0,1,2.447,2.471v3.293a2.459,2.459,0,0,1-2.448,2.47h-3.266a2.46,2.46,0,0,1-2.449-2.47v-3.293a2.459,2.459,0,0,1,2.449-2.471Z" transform="translate(-406 -1813.904)" fill="none" stroke="#fff" stroke-linecap="round" stroke-linejoin="round" stroke-width="1.5"/>
    </g>
  </g>
</svg>
