<svg xmlns="http://www.w3.org/2000/svg" width="19.5" height="19.5" viewBox="0 0 19.5 19.5">
  <g id="institues" transform="translate(-828.25 -2099.25)">
    <path id="Path_1918" data-name="Path 1918" d="M840,2106v-2.34a3.662,3.662,0,0,0-3.66-3.66h-3.68a3.662,3.662,0,0,0-3.66,3.66V2118h11" fill="none" stroke="#fff" stroke-linecap="round" stroke-linejoin="round" stroke-width="1.5" opacity="0.4" style="isolation: isolate"/>
    <path id="Rectangle_966" data-name="Rectangle 966" d="M3.657,0H7.343A3.657,3.657,0,0,1,11,3.657V12a0,0,0,0,1,0,0H0a0,0,0,0,1,0,0V3.657A3.657,3.657,0,0,1,3.657,0Z" transform="translate(836 2106)" fill="none" stroke="#fff" stroke-linecap="round" stroke-linejoin="round" stroke-width="1.5"/>
    <line id="Line_143" data-name="Line 143" x2="5" transform="translate(832 2104)" fill="none" stroke="#fff" stroke-linecap="round" stroke-linejoin="round" stroke-width="1.5" opacity="0.4" style="isolation: isolate"/>
    <line id="Line_144" data-name="Line 144" x1="4.06" transform="translate(832 2109)" fill="none" stroke="#fff" stroke-linecap="round" stroke-linejoin="round" stroke-width="1.5" opacity="0.4" style="isolation: isolate"/>
    <line id="Line_145" data-name="Line 145" x1="4" transform="translate(832 2114)" fill="none" stroke="#fff" stroke-linecap="round" stroke-linejoin="round" stroke-width="1.5" opacity="0.4" style="isolation: isolate"/>
    <line id="Line_146" data-name="Line 146" x2="1" transform="translate(839 2110)" fill="none" stroke="#fff" stroke-linecap="round" stroke-linejoin="round" stroke-width="1.5"/>
    <line id="Line_147" data-name="Line 147" x2="1" transform="translate(843 2110)" fill="none" stroke="#fff" stroke-linecap="round" stroke-linejoin="round" stroke-width="1.5"/>
    <line id="Line_148" data-name="Line 148" x2="1" transform="translate(839 2114)" fill="none" stroke="#fff" stroke-linecap="round" stroke-linejoin="round" stroke-width="1.5"/>
    <line id="Line_149" data-name="Line 149" x2="1" transform="translate(843 2114)" fill="none" stroke="#fff" stroke-linecap="round" stroke-linejoin="round" stroke-width="1.5"/>
  </g>
</svg>
