<svg xmlns="http://www.w3.org/2000/svg" width="23.092" height="21.519" viewBox="0 0 23.092 21.519">
  <g id="Group_6032" data-name="Group 6032" transform="translate(-370.197 -2043.543)">
    <g id="Iconly_Two-tone_Setting" data-name="Iconly Two-tone Setting" transform="translate(374.604 2045.162)">
      <g id="Setting-5">
        <path id="Path_33946-2" data-name="Path 33946-2" d="M382.491,2047.487l-.231-.4a.708.708,0,0,0-.966-.259h0a.7.7,0,0,1-.964-.247l0,0a.67.67,0,0,1-.095-.339h0a.709.709,0,0,0-.686-.731h-.487a.7.7,0,0,0-.7.7v.005h0a.709.709,0,0,1-.71.7.677.677,0,0,1-.339-.1h0a.708.708,0,0,0-.966.26l-.248.407a.709.709,0,0,0,.259.966h0a.708.708,0,0,1,0,1.227h0a.705.705,0,0,0-.261.961v0h0l.234.4a.709.709,0,0,0,.962.278l.005,0h0a.7.7,0,0,1,.96.253l0,.006a.676.676,0,0,1,.1.339h0a.708.708,0,0,0,.708.708h.463a.709.709,0,0,0,.709-.7h0a.7.7,0,0,1,.7-.708h.01a.716.716,0,0,1,.339.095h0a.709.709,0,0,0,.966-.259h0l.244-.408a.7.7,0,0,0-.253-.962l-.006,0h0a.7.7,0,0,1-.263-.959l0-.006a.694.694,0,0,1,.259-.26h0a.708.708,0,0,0,.259-.962h0Z" transform="translate(-376 -2045.507)" fill="none" stroke="#fff" stroke-linecap="round" stroke-linejoin="round" stroke-width="1"/>
        <circle id="Ellipse_737-2" data-name="Ellipse 737-2" cx="0.976" cy="0.976" r="0.976" transform="translate(2.318 2.583)" fill="none" stroke="#fff" stroke-linecap="round" stroke-linejoin="round" stroke-width="1" opacity="0.4" style="isolation: isolate"/>
      </g>
    </g>
    <g id="Iconly_Two-tone_Setting-2" data-name="Iconly Two-tone Setting" transform="translate(379.786 2050.626)">
      <g id="Setting-5-2" data-name="Setting-5">
        <path id="Path_33946-2-2" data-name="Path 33946-2" d="M395.756,2056.987l-.443-.769a1.362,1.362,0,0,0-1.857-.5h0a1.352,1.352,0,0,1-1.853-.475l0-.007a1.3,1.3,0,0,1-.182-.652h0a1.362,1.362,0,0,0-1.318-1.4h-.937a1.353,1.353,0,0,0-1.352,1.353v.009h0a1.362,1.362,0,0,1-1.365,1.343,1.307,1.307,0,0,1-.651-.182h0a1.362,1.362,0,0,0-1.857.5l-.475.783a1.363,1.363,0,0,0,.5,1.857h0a1.361,1.361,0,0,1,0,2.359h0a1.353,1.353,0,0,0-.5,1.846l0,.005h0l.45.775a1.361,1.361,0,0,0,1.85.534l.009,0h0a1.349,1.349,0,0,1,1.844.488l.006.011a1.3,1.3,0,0,1,.182.651h0a1.361,1.361,0,0,0,1.362,1.362h.89a1.362,1.362,0,0,0,1.362-1.352h0a1.353,1.353,0,0,1,1.343-1.362h.019a1.394,1.394,0,0,1,.651.182h0a1.362,1.362,0,0,0,1.857-.5h0l.469-.783a1.352,1.352,0,0,0-.485-1.85l-.013-.007h0a1.352,1.352,0,0,1-.505-1.844l.007-.013a1.333,1.333,0,0,1,.5-.5h0a1.362,1.362,0,0,0,.5-1.851h0Z" transform="translate(-383.279 -2053.182)" fill="none" stroke="#fff" stroke-linecap="round" stroke-linejoin="round" stroke-width="1.5"/>
        <circle id="Ellipse_737-2-2" data-name="Ellipse 737-2" cx="1.876" cy="1.876" r="1.876" transform="translate(4.456 4.965)" fill="none" stroke="#fff" stroke-linecap="round" stroke-linejoin="round" stroke-width="1.5" opacity="0.4" style="isolation: isolate"/>
      </g>
    </g>
    <g id="Group_6030" data-name="Group 6030" transform="translate(382.322 2044.312)">
      <path id="Stroke_1-61" data-name="Stroke 1-61" d="M386.842,2044.607a6.338,6.338,0,0,1,7.95,4.14l1.416-1.809" transform="translate(-386.842 -2044.312)" fill="none" stroke="#fff" stroke-linecap="round" stroke-linejoin="round" stroke-width="1.5"/>
      <line id="Line_139" data-name="Line 139" x2="2.143" y2="0.386" transform="translate(5.807 4.049)" fill="none" stroke="#fff" stroke-linecap="round" stroke-linejoin="round" stroke-width="1.5"/>
    </g>
    <g id="Group_6031" data-name="Group 6031" transform="translate(371.157 2055.013)">
      <path id="Stroke_1-61-2" data-name="Stroke 1-61" d="M377.844,2067.084a6.339,6.339,0,0,1-4.526-7.738l-2.162.778" transform="translate(-371.157 -2059.346)" fill="none" stroke="#fff" stroke-linecap="round" stroke-linejoin="round" stroke-width="1.5"/>
      <line id="Line_140" data-name="Line 140" x1="1.609" y1="1.468" transform="translate(2.162 0)" fill="none" stroke="#fff" stroke-linecap="round" stroke-linejoin="round" stroke-width="1.5"/>
    </g>
  </g>
</svg>
