<svg xmlns="http://www.w3.org/2000/svg" width="21.503" height="21.001" viewBox="0 0 21.503 21.001">
  <g id="Group_6028" data-name="Group 6028" transform="translate(14550.75 17267.751)">
    <path id="Stroke_7-36" data-name="Stroke 7-36" d="M358.428,2046.866q-4.508.077-8.856,0a5.34,5.34,0,0,1-5.568-5.1c-.005-.116-.007-.232,0-.349v-4.65a5.34,5.34,0,0,1,5.223-5.455c.116,0,.233,0,.35,0q4.374-.075,8.856,0a5.34,5.34,0,0,1,5.567,5.1c.005.116.007.232,0,.348v4.65" transform="translate(-14893.998 -19298.277)" fill="none" stroke="#fff" stroke-linecap="round" stroke-linejoin="round" stroke-width="1.5"/>
    <line id="Line_9" data-name="Line 9" x2="8" transform="translate(-14543.5 -17247.5)" fill="none" stroke="#fff" stroke-linecap="round" stroke-width="1.5"/>
    <path id="Stroke_3-55" data-name="Stroke 3-55" d="M419.05,1968.371a14.917,14.917,0,0,1-3.728,2.543,3.978,3.978,0,0,1-.664.214.5.5,0,0,1-.459-.27,5.277,5.277,0,0,1-.166-.689,16.5,16.5,0,0,1-.143-2.4,15.534,15.534,0,0,1,.158-2.485c.028-.156.11-.515.134-.573a.505.505,0,0,1,.226-.246.5.5,0,0,1,.25-.06,3.513,3.513,0,0,1,.575.178,14.794,14.794,0,0,1,3.807,2.568c.068.073.255.269.286.309a.5.5,0,0,1,.011.6C419.3,1968.1,419.113,1968.3,419.05,1968.371Z" transform="translate(-14956.658 -19226.953)" fill="none" stroke="#fff" stroke-linecap="round" stroke-linejoin="round" stroke-width="1.5" opacity="0.4" style="isolation: isolate"/>
  </g>
</svg>
