<svg xmlns="http://www.w3.org/2000/svg" width="104.97" height="105.066" viewBox="0 0 104.97 105.066">
  <g id="pages" transform="translate(-423.254 -340.934)">
    <g id="world-wide-web" transform="translate(423 340.934)">
      <path id="Path_1942" data-name="Path 1942" d="M111.722,81.569c-12.682,26.595-32.2,32.341-46.357,32.341a49.594,49.594,0,0,1-40.2-20.952c-9.3-13.113-11.512-29.735-6.156-45.618l.985-2.031A49.93,49.93,0,0,1,65.366,15a49.594,49.594,0,0,1,40.2,20.952C114.862,49.064,117.078,65.686,111.722,81.569Z" transform="translate(-12.63 -11.922)" fill="#ebf3ff"/>
      <path id="Path_1944" data-name="Path 1944" d="M95.46,22.244A52.8,52.8,0,0,0,52.735,0,52.766,52.766,0,0,0,4.347,32.771L3.3,34.926c-5.652,17.212-3.452,33.515,6.711,47.9a52.8,52.8,0,0,0,42.724,22.245c20.87,0,39.954-12.949,48.142-32.033l.923-1.847C107.954,53.678,105.8,36.859,95.46,22.244Zm-80.4,57.007C6.317,66.939,4.286,51.364,9.334,36.4l.8-1.662A46.918,46.918,0,0,1,36.852,9.111c-7.449,9.727-11.943,28.647-11.389,34.8a1.822,1.822,0,0,0-.123.616c-1.6,20.623,3.078,40.529,11.882,51.671A46.991,46.991,0,0,1,15.059,79.251Zm34.6,19.1a16.642,16.642,0,0,1-6.341-4.515C34.7,84.546,29.957,64.907,31.5,45.022v-.554c0-.185.062-.431.062-.616,1.785-19.146,9.3-34.249,18.1-37.143Zm6.156-.062V6.71c9.48,3.14,17.422,20.582,18.345,41.39.862,19.207-3.94,37.245-12.251,45.987A15.585,15.585,0,0,1,55.813,98.294ZM96.137,68.663C89.242,83.191,79.515,92.138,68.249,96.14c8.249-10.4,12.928-28.955,12.066-48.285-.739-16.376-5.356-30.494-12.066-38.989a46.988,46.988,0,0,1,22.162,16.95C99.153,38.127,101.185,53.7,96.137,68.663Z" transform="translate(0)" fill="#1173ff"/>
    </g>
    <path id="Path_1947" data-name="Path 1947" d="M6984.814-17189.533h97.461" transform="translate(-6558 17583)" fill="#1173ff" stroke="#1173ff" stroke-width="7"/>
  </g>
</svg>
