<svg xmlns="http://www.w3.org/2000/svg" width="21.892" height="21.503" viewBox="0 0 21.892 21.503">
  <g id="tutor" transform="translate(-855.91 -2049.25)">
    <g id="Group_6040" data-name="Group 6040" transform="translate(856.66 2052.209)" opacity="0.4" style="isolation: isolate">
      <path id="Path_1912" data-name="Path 1912" d="M869.971,2052h1.657c3.336,0,5.424,1.657,5.424,4.01v6.341c0,2.353-2.088,4.01-5.424,4.01h-9.555c-3.336,0-5.413-1.657-5.413-4.01v-6.341c0-2.353,2.088-4.01,5.413-4.01h1.679" transform="translate(-856.66 -2052)" fill="none" stroke="#fff" stroke-linecap="round" stroke-linejoin="round" stroke-width="1.5"/>
      <line id="Line_142" data-name="Line 142" x2="11.071" transform="translate(4.661 17.794)" fill="none" stroke="#fff" stroke-linecap="round" stroke-linejoin="round" stroke-width="1.5"/>
    </g>
    <g id="Iconly_Two-tone_Profile" data-name="Iconly Two-tone Profile" transform="translate(861.62 2050)">
      <g id="Profile-5">
        <circle id="Ellipse_736-2" data-name="Ellipse 736-2" cx="3.303" cy="3.303" r="3.303" transform="translate(1.937)" fill="none" stroke="#fff" stroke-linecap="round" stroke-linejoin="round" stroke-width="1.5" style="isolation: isolate"/>
        <path id="Path_33945-2" data-name="Path 33945-2" d="M861.15,2060.337a1.53,1.53,0,0,1,.152-.67,2.793,2.793,0,0,1,1.949-1.12,11.631,11.631,0,0,1,1.62-.225,17.408,17.408,0,0,1,3.031,0,11.784,11.784,0,0,1,1.62.229,2.686,2.686,0,0,1,1.949,1.119,1.569,1.569,0,0,1,0,1.349,2.663,2.663,0,0,1-1.949,1.113,10.667,10.667,0,0,1-1.62.234,17.833,17.833,0,0,1-2.466.035,2.842,2.842,0,0,1-.563-.039,10.613,10.613,0,0,1-1.614-.234,2.67,2.67,0,0,1-1.957-1.11A1.591,1.591,0,0,1,861.15,2060.337Z" transform="translate(-861.15 -2049.136)" fill="none" stroke="#fff" stroke-linecap="round" stroke-linejoin="round" stroke-width="1.5"/>
      </g>
    </g>
  </g>
</svg>
