<svg xmlns="http://www.w3.org/2000/svg" width="22.59" height="21.503" viewBox="0 0 22.59 21.503">
  <g id="Iconly_Two-tone_2_User" data-name="Iconly Two-tone 2 User" transform="translate(-838 -1910.403)">
    <g id="_2_User-6" data-name=" 2 User-6" transform="translate(838.75 1911.153)">
      <path id="Stroke_1-30" data-name="Stroke 1-30" d="M852.02,1919.736a3.756,3.756,0,1,0,0-7.513h0" transform="translate(-836.901 -1911.004)" fill="none" stroke="#fff" stroke-linecap="round" stroke-linejoin="round" stroke-width="1.5" opacity="0.4" style="isolation: isolate"/>
      <path id="Stroke_3-28" data-name="Stroke 3-28" d="M853.536,1922.4a12.364,12.364,0,0,1,1.842.265,3.035,3.035,0,0,1,2.216,1.268,1.787,1.787,0,0,1,0,1.532,3.057,3.057,0,0,1-2.216,1.274" transform="translate(-836.69 -1909.586)" fill="none" stroke="#fff" stroke-linecap="round" stroke-linejoin="round" stroke-width="1.5"/>
      <path id="Stroke_5-21" data-name="Stroke 5-21" d="M846.544,1923.11c4.2,0,7.8.637,7.8,3.181s-3.568,3.2-7.8,3.2c-4.2,0-7.794-.631-7.794-3.176S842.317,1923.11,846.544,1923.11Z" transform="translate(-838.75 -1909.487)" fill="none" stroke="#fff" stroke-linecap="round" stroke-linejoin="round" stroke-width="1.5"/>
      <path id="Stroke_7-16" data-name="Stroke 7-16" d="M846.2,1921.145a5,5,0,1,1,5-5h0a4.978,4.978,0,0,1-4.959,5Z" transform="translate(-838.408 -1911.153)" fill="none" stroke="#fff" stroke-linecap="round" stroke-linejoin="round" stroke-width="1.5" opacity="0.4" style="isolation: isolate"/>
    </g>
  </g>
</svg>
