<svg xmlns="http://www.w3.org/2000/svg" xmlns:xlink="http://www.w3.org/1999/xlink" width="260" height="126" viewBox="0 0 260 126">
  <defs>
    <clipPath id="clip-path">
      <rect id="Rectangle_863" data-name="Rectangle 863" width="260" height="126" transform="translate(1382 1013)" fill="#fff" stroke="#707070" stroke-width="1"/>
    </clipPath>
    <clipPath id="clip-path-2">
      <path id="path16" d="M0-158.666H183.5V-92.3H0Z" transform="translate(0 158.666)"/>
    </clipPath>
  </defs>
  <g id="Mask_Group_78" data-name="Mask Group 78" transform="translate(-1382 -1013)" clip-path="url(#clip-path)">
    <g id="g10" transform="translate(1420 1201.666)" style="mix-blend-mode: luminosity;isolation: isolate">
      <g id="g12" transform="translate(0 -158.666)">
        <g id="g14" clip-path="url(#clip-path-2)">
          <g id="g20" transform="translate(3.367 2.466)">
            <path id="path22" d="M-49.367-54.765h0c0,4.321-7.387,10.041-13.789,13.333-6.526-3.333-13.831-8.971-13.831-13.333V-86.246h27.62Zm-35.5-39.382h0v39.382c0,13.086,21.669,22.057,21.669,22.057s21.71-8.971,21.71-22.057V-94.146Z" transform="translate(84.866 94.146)" fill="#f15c19"/>
          </g>
          <g id="g24" transform="translate(156.694 32.712)">
            <path id="path26" d="M-3.025-19.114h0v-7.778H-5.2v-.988l2.216-.494v-4.321l2.462-.165v4.568H3.254v1.4H-.522v7.449c0,1.481.493,2.1,1.6,2.1.78,0,1.272-.576,1.847-1.441l.821.617c-.985,1.811-1.888,2.428-3.611,2.428-2.134,0-3.16-1.358-3.16-3.374" transform="translate(5.2 32.859)" fill="#1b3162"/>
          </g>
          <g id="g28" transform="translate(59.018 9.009)">
            <path id="path30" d="M-15.295-13.963h0l-2.216-6.42h-.205l-2.462,6.42Zm.534,1.564h-6.033l-.862,2.346c-.7,1.769-.985,2.345,1.354,2.8v1.234h-5.992V-7.255c1.847-.453,2.216-1.276,3-3.292L-17.962-24h1.929l5.212,14.568c.534,1.523,1.026,1.893,3.037,2.181v1.234h-8.044V-7.255c2.34-.165,2.586-.741,2.175-2.016Z" transform="translate(26.293 24.004)" fill="#1b3162"/>
          </g>
          <g id="g32" transform="translate(76.953 10.12)">
            <path id="path34" d="M-2.967-19.056h0v-7.778H-5.1v-.988l2.216-.453v-4.362l2.462-.123v4.527H3.353v1.4H-.423v7.489c0,1.482.452,2.057,1.6,2.057.738,0,1.231-.576,1.847-1.44l.821.659C2.819-16.3,1.957-15.682.234-15.682c-2.175,0-3.2-1.358-3.2-3.374" transform="translate(5.101 32.76)" fill="#1b3162"/>
          </g>
          <g id="g36" transform="translate(86.597 8.186)">
            <path id="path38" d="M-.114-24.32h0c1.559,0,1.97-.288,1.97-.946V-39.094c0-.823-.492-1.317-2.052-1.317v-1.317l4.6-.082v8.189a8.427,8.427,0,0,1,4.72-1.934c1.806,0,3.119,1.358,3.119,3.786v6.5c0,.659.41.946,1.97.946V-23h-6.2V-24.32c1.313,0,1.724-.288,1.724-.946v-5.555c0-2.14-.78-2.757-2.339-2.757a6.013,6.013,0,0,0-3,.946v7.366c0,.659.329.946,1.683.946V-23h-6.2Z" transform="translate(0.196 41.809)" fill="#1b3162"/>
          </g>
          <g id="g40" transform="translate(102.48 14.44)">
            <path id="path42" d="M-10.159-12.99h0v-3.045c-3.776.864-4.474,1.4-4.474,2.963a1.63,1.63,0,0,0,1.847,1.728,3.344,3.344,0,0,0,2.626-1.646m-7.305.535h0a3.179,3.179,0,0,1,1.641-2.8c2.052-1.152,5.253-1.605,5.664-1.934v-.741c0-2.263-.616-3.127-2.38-3.127a2.657,2.657,0,0,0-1.765.535,3.148,3.148,0,0,1,.287,1.276,1.425,1.425,0,0,1-1.437,1.523,1.5,1.5,0,0,1-1.559-1.523c0-1.852,2.3-3.087,4.843-3.087,2.832,0,4.556,1.276,4.556,3.868v5.72c0,1.317.082,1.728,1.888,1.523l.082,1.029A6.4,6.4,0,0,1-7.86-9.7c-1.437,0-1.929-.494-2.052-2.057h-.246a5.3,5.3,0,0,1-3.9,2.139c-2.257,0-3.406-1.276-3.406-2.839" transform="translate(17.464 22.332)" fill="#1b3162"/>
          </g>
          <g id="g44" transform="translate(113.807 8.186)">
            <path id="path46" d="M-15.01-17.168h0c0-2.634-1.313-4.445-3.242-4.445a4.182,4.182,0,0,0-2.955,1.152v6.749a3.212,3.212,0,0,0,3.037,1.893c2.216,0,3.16-1.934,3.16-5.35m-8.741,4.4h0V-26.8c0-.782-.492-1.276-2.052-1.317v-1.317l4.6-.083v7.819A5.4,5.4,0,0,1-17.39-23.34c3.283,0,5.171,2.551,5.171,6.049,0,3.621-2.3,6.79-5.869,6.79a6.247,6.247,0,0,1-3.858-1.4l-.862,1.564h-1.026Z" transform="translate(25.804 29.513)" fill="#1b3162"/>
          </g>
          <g id="g48" transform="translate(128.91 14.44)">
            <path id="path50" d="M-10.1-12.99h0v-3.045c-3.735.864-4.432,1.4-4.432,2.963a1.629,1.629,0,0,0,1.847,1.728A3.338,3.338,0,0,0-10.1-12.99m-7.264.535h0a3.1,3.1,0,0,1,1.641-2.8c2.052-1.152,5.253-1.605,5.623-1.934v-.741c0-2.263-.616-3.127-2.339-3.127a2.78,2.78,0,0,0-1.806.535,2.6,2.6,0,0,1,.287,1.276A1.4,1.4,0,0,1-15.4-17.723a1.526,1.526,0,0,1-1.559-1.523c0-1.852,2.3-3.087,4.884-3.087,2.791,0,4.514,1.276,4.514,3.868v5.72c0,1.317.123,1.728,1.888,1.523l.123,1.029A6.6,6.6,0,0,1-7.8-9.7c-1.437,0-1.888-.494-2.052-2.057H-10.1A5.3,5.3,0,0,1-14-9.616c-2.257,0-3.365-1.276-3.365-2.839" transform="translate(17.365 22.332)" fill="#1b3162"/>
          </g>
          <g id="g52" transform="translate(142.043 14.358)">
            <path id="path54" d="M0-12.132H1.108C2.38-10.2,3.529-9.292,5.089-9.292A1.666,1.666,0,0,0,6.977-10.9c0-1.152-.78-1.81-3.037-2.428-2.75-.7-3.817-1.893-3.817-3.58,0-2.346,1.765-3.95,4.432-3.95a4.322,4.322,0,0,1,2.381.782l.492-.782h.944v3.7H7.264C6.32-18.716,5.541-19.58,4.227-19.58s-2.011.7-2.011,1.646c0,1.07.944,1.6,2.954,2.139,2.668.741,3.776,1.77,3.776,3.621A3.914,3.914,0,0,1,4.679-8.017a4.927,4.927,0,0,1-3-.988l-.739.988H0Z" transform="translate(0 20.856)" fill="#1b3162"/>
          </g>
          <g id="g56" transform="translate(152.467 14.359)">
            <path id="path58" d="M0-9.1H0a6.266,6.266,0,0,1,6.115-6.543c2.75,0,4.514,1.481,4.514,3.127a1.819,1.819,0,0,1-1.641,1.975,1.455,1.455,0,0,1-1.56-1.4A1.756,1.756,0,0,1,8.29-13.42a2.736,2.736,0,0,0-2.134-.864c-2.011,0-3.406,1.152-3.406,4.609,0,3.21,1.313,5.226,3.94,5.226A4.754,4.754,0,0,0,10.26-6.382L11-5.642A5.723,5.723,0,0,1,5.828-2.8C2.3-2.8,0-5.518,0-9.1" transform="translate(0 15.641)" fill="#1b3162"/>
          </g>
          <g id="g60" transform="translate(164.861 14.44)">
            <path id="path62" d="M-10.159-12.99h0v-3.045c-3.776.864-4.474,1.4-4.474,2.963a1.63,1.63,0,0,0,1.847,1.728,3.476,3.476,0,0,0,2.626-1.646m-7.305.535h0a3.18,3.18,0,0,1,1.642-2.8c2.052-1.152,5.253-1.605,5.663-1.934v-.741c0-2.263-.616-3.127-2.38-3.127a2.581,2.581,0,0,0-1.765.535,3.048,3.048,0,0,1,.247,1.276,1.393,1.393,0,0,1-1.4,1.523,1.5,1.5,0,0,1-1.559-1.523c0-1.852,2.257-3.087,4.843-3.087,2.79,0,4.514,1.276,4.514,3.868v5.72c0,1.317.123,1.728,1.888,1.523l.123,1.029A6.6,6.6,0,0,1-7.86-9.7c-1.437,0-1.929-.494-2.052-2.057h-.247a5.375,5.375,0,0,1-3.9,2.139c-2.258,0-3.407-1.276-3.407-2.839" transform="translate(17.464 22.332)" fill="#1b3162"/>
          </g>
          <g id="g64" transform="translate(59.223 31.848)">
            <path id="path66" d="M-4-17.224h0v-9.918c0-.823-.616-1.07-2.873-1.152v-1.316h8.29v1.316c-2.421.083-2.668.247-2.668,1.152v9.218c0,3.416,1.724,4.732,5.007,4.732a4.373,4.373,0,0,0,3.283-1.276c.9-.906,1.149-2.1,1.149-4.116v-6.79c0-2.469-.492-2.634-3.037-3v-1.234h7.183v1.234c-2.422.412-2.544.535-2.544,3v8.148c0,2.963-2.462,5.8-6.854,5.8C-1.573-11.422-4-13.85-4-17.224" transform="translate(6.868 29.611)" fill="#1b3162"/>
          </g>
          <g id="g68" transform="translate(78.964 37.074)">
            <path id="path70" d="M0-15.623H0c1.559-.041,1.97-.288,1.97-.946v-7.489c0-.782-.41-1.276-1.97-1.317v-1.276l4.432-.123v1.852a8.547,8.547,0,0,1,4.761-1.934c1.847,0,3.16,1.317,3.16,3.745v6.543c0,.659.369.905,1.97.946v1.276H8.085v-1.276c1.4-.041,1.723-.288,1.723-.946v-5.556c0-2.181-.78-2.8-2.3-2.8a5.885,5.885,0,0,0-3,.988v7.366c0,.659.329.905,1.683.946v1.276H0Z" transform="translate(0 26.857)" fill="#1b3162"/>
          </g>
          <g id="g72" transform="translate(94.641 30.86)">
            <path id="path74" d="M-2.055-2.461h0A1.663,1.663,0,0,1-.372-4.231,1.6,1.6,0,0,1,1.311-2.543,1.629,1.629,0,0,1-.372-.815,1.564,1.564,0,0,1-2.055-2.461M-3.532,13.218h0c1.559-.041,1.97-.288,1.97-.946V4.782c0-.823-.41-1.276-1.97-1.317V2.189L.942,2.066V12.272c0,.658.369.905,1.969.946v1.276H-3.532Z" transform="translate(3.532 4.231)" fill="#1b3162"/>
          </g>
          <g id="g76" transform="translate(101.454 37.197)">
            <path id="path78" d="M-2.91-4.063h0A2.194,2.194,0,0,0-5-5.75V-6.985H1.153V-5.75C-.119-5.586-.53-5.421-.53-5.01a1.9,1.9,0,0,0,.164.535L2.179,2.356h.328L4.764-3.487A3.423,3.423,0,0,0,5.011-4.6c0-.576-.41-.906-1.437-1.152V-6.985H8.458V-5.75A2.771,2.771,0,0,0,6.406-3.858l-3.9,9.424H.866Z" transform="translate(5.003 6.985)" fill="#1b3162"/>
          </g>
          <g id="g80" transform="translate(115.449 36.992)">
            <path id="path82" d="M-3.824-7.211h0l5.581-.123c.041-2.223-.738-3.91-2.626-3.91-1.477,0-2.709.946-2.955,4.033m-2.75,1.358h0c0-3.7,2.422-6.543,5.91-6.543,3.94,0,5.294,3.169,5.089,6.255l-8.249-.041V-6.1c0,2.716,1.313,4.9,3.94,4.9A4.823,4.823,0,0,0,3.892-3.425l.738.741A5.82,5.82,0,0,1-.664.444c-3.776,0-5.91-2.757-5.91-6.3" transform="translate(6.573 12.396)" fill="#1b3162"/>
          </g>
          <g id="g84" transform="translate(127.884 37.074)">
            <path id="path86" d="M0-15.623H0c1.6-.041,1.97-.288,1.97-.946v-7.489c0-.782-.369-1.276-1.97-1.317v-1.276l4.474-.123v2.1c.944-1.194,2.052-2.181,3.447-2.181a1.95,1.95,0,0,1,2.052,2.1A1.556,1.556,0,0,1,8.5-23.153a1.39,1.39,0,0,1-1.559-1.44c0-.124.041-.288.041-.453a3.029,3.029,0,0,0-2.462,1.44v7.037c0,.659.493.905,2.258.946v1.276H0Z" transform="translate(0 26.857)" fill="#1b3162"/>
          </g>
          <g id="g88" transform="translate(138.76 36.992)">
            <path id="path90" d="M0-12.074H1.149C2.38-10.1,3.529-9.194,5.089-9.194a1.7,1.7,0,0,0,1.929-1.6c0-1.153-.821-1.852-3.078-2.428C1.231-13.967.164-15.12.164-16.807c0-2.346,1.724-3.95,4.391-3.95a4.46,4.46,0,0,1,2.422.782l.451-.782h.985v3.7H7.305c-.944-1.6-1.724-2.428-3.078-2.428-1.313,0-1.97.658-1.97,1.605,0,1.07.9,1.646,2.914,2.181,2.709.7,3.776,1.77,3.776,3.621A3.881,3.881,0,0,1,4.72-7.918a4.935,4.935,0,0,1-3-.987l-.738.987H0Z" transform="translate(0 20.757)" fill="#1b3162"/>
          </g>
          <g id="g92" transform="translate(149.759 30.86)">
            <path id="path94" d="M-2.055-2.461h0A1.663,1.663,0,0,1-.372-4.231,1.565,1.565,0,0,1,1.27-2.543,1.6,1.6,0,0,1-.372-.815,1.564,1.564,0,0,1-2.055-2.461M-3.532,13.218h0c1.559-.041,1.929-.288,1.929-.946V4.782c0-.823-.369-1.276-1.929-1.317V2.189L.942,2.066V12.272c0,.658.328.905,1.929.946v1.276h-6.4Z" transform="translate(3.532 4.231)" fill="#1b3162"/>
          </g>
          <g id="g96" transform="translate(166.503 37.198)">
            <path id="path98" d="M-2.911-4.12h0C-3.445-5.272-3.773-5.643-5-5.848V-7.083H1.152v1.234c-1.642.165-1.888.535-1.519,1.4l2.75,6.625,2.3-5.514c.615-1.481.287-2.223-1.108-2.51V-7.083H8.622v1.234a2.783,2.783,0,0,0-2.3,2.057L2.055,6.456c-1.518,3.5-2.75,4.4-4.432,4.4A2.151,2.151,0,0,1-4.676,8.8a1.6,1.6,0,0,1,1.56-1.646A1.562,1.562,0,0,1-1.6,8.76a2.14,2.14,0,0,1-.082.576c.862-.083,1.641-1.358,2.75-3.909l.083-.206Z" transform="translate(5.004 7.083)" fill="#1b3162"/>
          </g>
        </g>
      </g>
    </g>
  </g>
</svg>
