<svg id="Group_11037" data-name="Group 11037" xmlns="http://www.w3.org/2000/svg" width="81" height="81" viewBox="0 0 81 81">
  <circle id="Ellipse_116" data-name="Ellipse 116" cx="40.5" cy="40.5" r="40.5" fill="#faaf3a" opacity="0.24"/>
  <g id="Group_5444" data-name="Group 5444" transform="translate(22 24)">
    <path id="Subtraction_9" data-name="Subtraction 9" d="M14,28A14,14,0,0,1,4.1,4.1,14,14,0,0,1,28,14a13.856,13.856,0,0,1-1.446,6.212c-1.122-.135-2.276-.237-3.433-.3-.04,0-.08,0-.119,0a1.929,1.929,0,0,0-1.96,1.892v4.308A13.974,13.974,0,0,1,14,28ZM5.575,17.554h0a10.187,10.187,0,0,0,2,2.568,9.508,9.508,0,0,0,6.465,2.628h.133a8.766,8.766,0,0,0,6.279-2.6,9.787,9.787,0,0,0,1.886-2.6H5.575ZM18.812,7.875A2.188,2.188,0,1,0,21,10.062,2.19,2.19,0,0,0,18.812,7.875Zm-9.625,0a2.188,2.188,0,1,0,2.187,2.188A2.19,2.19,0,0,0,9.187,7.875Z" transform="translate(0 0)" fill="#faaf3a"/>
    <path id="Icon_awesome-book-open" data-name="Icon awesome-book-open" d="M14.324,2.251c-1.448.082-4.325.381-6.1,1.469a.406.406,0,0,0-.192.348V13.68a.418.418,0,0,0,.615.356,16.113,16.113,0,0,1,5.778-1.24.824.824,0,0,0,.793-.81V3.062a.828.828,0,0,0-.892-.811ZM6.994,3.72C5.218,2.632,2.34,2.334.892,2.251A.829.829,0,0,0,0,3.062v8.925a.824.824,0,0,0,.793.81,16.111,16.111,0,0,1,5.779,1.24.417.417,0,0,0,.613-.356V4.063A.4.4,0,0,0,6.994,3.72Z" transform="translate(21.548 19.04)" fill="#fff"/>
  </g>
</svg>
