<svg xmlns="http://www.w3.org/2000/svg" width="81" height="81" viewBox="0 0 81 81">
  <g id="Group_11606" data-name="Group 11606" transform="translate(-676 -687.499)">
    <g id="Group_11605" data-name="Group 11605" transform="translate(536 -725.501)">
      <circle id="Ellipse_95" data-name="Ellipse 95" cx="40.5" cy="40.5" r="40.5" transform="translate(140 1413)" fill="#1877ff" opacity="0.24"/>
      <g id="Group_7403" data-name="Group 7403" transform="translate(162.617 1439.298)">
        <path id="Path_2027" data-name="Path 2027" d="M8.237,0A8.237,8.237,0,1,1,0,8.237,8.237,8.237,0,0,1,8.237,0Z" transform="translate(18.033 15.04)" fill="#fff"/>
        <path id="Path_2026" data-name="Path 2026" d="M1089.17,589v7.9l-4.132-1.412-3.191,1.1s.366-8.108-.366-8-8.84,0-8.84,0l-1.046,1.308v24.062l2.092,1.674,15.274-.314s-2.825-4.342,0-8.212,2.354-5.178,9.886-4.812c-.262-4.551,0-13.286,0-13.286Z" transform="translate(-1070.641 -587.399)" fill="#1173ff"/>
        <g id="pending" transform="translate(0 0)">
          <path id="Path_942" data-name="Path 942" d="M29.144,14.536V3.14A2.643,2.643,0,0,0,26.5.5H2.641A2.643,2.643,0,0,0,0,3.14V27a2.643,2.643,0,0,0,2.64,2.64H18.008A9.831,9.831,0,1,0,29.144,14.536ZM11.98,2.649h5.185V8.58L14.971,7.7a1.077,1.077,0,0,0-.8,0L11.98,8.58ZM2.641,27.494A.491.491,0,0,1,2.15,27V3.14a.491.491,0,0,1,.491-.491H9.831v7.518a1.074,1.074,0,0,0,1.473,1l3.268-1.306,3.268,1.306a1.074,1.074,0,0,0,1.473-1V2.649H26.5A.491.491,0,0,1,27,3.14V14.055a9.833,9.833,0,0,0-10.186,13.44Zm23.294,4.02a7.684,7.684,0,1,1,7.684-7.684A7.693,7.693,0,0,1,25.934,31.515Zm0,0" transform="translate(-0.001 -0.5)" fill="#1173ff"/>
          <path id="Path_943" data-name="Path 943" d="M359.89,267.074h-2.909v-2.909a1.074,1.074,0,1,0-2.149,0v3.984a1.074,1.074,0,0,0,1.074,1.074h3.984a1.074,1.074,0,1,0,0-2.149Zm0,0" transform="translate(-330.045 -243.65)" fill="#1173ff"/>
        </g>
      </g>
    </g>
  </g>
</svg>
